<svg id="Layer_1" data-name="Layer 1" xmlns="http://www.w3.org/2000/svg" viewBox="0 0 250 110"><defs><style>.cls-1{fill:#b56e9d;}.cls-2{fill:#a8dfa2;}.cls-3{fill:#005ed0;}</style></defs><g id="btn-play"><g id="play-btn"><rect id="score" class="cls-1" x="4.89" y="8.69" width="233.24" height="96.02" rx="48.01"/><rect id="score-2" data-name="score" class="cls-2" x="19.19" y="17.92" width="204.63" height="77.55" rx="38.77"/></g><path class="cls-3" d="M52,89.47q2.71-12,5.17-23.46,1-4.8,2.09-10.13T61.3,45.4c.66-3.43,1.3-6.75,1.9-9.95s1.12-6.13,1.55-8.8q2.63-.79,5.17-1.37t5.22-1a30.39,30.39,0,0,1,5-.45A15.87,15.87,0,0,1,87,25.14a12.23,12.23,0,0,1,4.49,3.6A14,14,0,0,1,94,34a27.31,27.31,0,0,1,.73,6.48,25.47,25.47,0,0,1-1.86,9.6,29,29,0,0,1-5,8.22,25.18,25.18,0,0,1-7.17,5.73,17.82,17.82,0,0,1-8.4,2.13h-1c-.48,2-.94,4.2-1.36,6.57s-.79,4.56-1.09,6.58c-.42,2.37-.82,4.74-1.18,7.1Zm23.32-43.8q-1,5.23-2.17,11.19a8,8,0,0,0,3-1.64,14.59,14.59,0,0,0,3-3.38A18.71,18.71,0,0,0,81.27,47a20.39,20.39,0,0,0,.81-5.78,7.32,7.32,0,0,0-1.49-5,4.42,4.42,0,0,0-3.32-1.69Q76.28,40.42,75.27,45.67Z"/><path class="cls-3" d="M105.73,86.71q-3.14.18-6.31.53t-6.22.94a44,44,0,0,0-5.49,1.37c.36-2.66.79-5.62,1.27-8.88S90,74,90.66,70.54L92.57,60q.95-5.32,2-10.22Q96.79,38.13,99.33,26l15.88-2q-2.44,10.31-4.72,20.08c-.66,2.78-1.33,5.67-2,8.66s-1.31,5.91-1.91,8.75-1.15,5.6-1.63,8.26-.88,5-1.18,7.11c1.51-.12,3.13-.19,4.85-.22s3.25,0,4.58,0c.07,1.13.16,2.24.28,3.33s.25,2.09.41,3,.27,1.67.36,2.36a13.49,13.49,0,0,0,.23,1.37c-.49,0-1,0-1.41,0s-.92,0-1.41,0C109.8,86.53,107.81,86.59,105.73,86.71Z"/><path class="cls-3" d="M142.44,88.4l-4.9.8c.24-2,.48-3.88.73-5.78.18-1.65.34-3.31.5-5s.28-3.08.4-4.27h-7.89L127.65,87c-1.34.18-2.91.37-4.72.57l-5.09.58-5.71.71Q115.75,77,119.3,65.57q1.44-4.8,3-10t3.17-10.44q1.59-5.21,3-10c1-3.19,1.82-6.13,2.55-8.79q6.17-.45,12.57-1.07t12.48-1.68c-.18,1.89-.38,4.25-.59,7.06s-.41,5.88-.59,9.19-.37,6.79-.55,10.4-.36,7.16-.54,10.66q-.45,12.26-1,26c-1.82.3-3.63.53-5.45.71Zm-9-23.1c.24,0,.68,0,1.31,0l2-.09,1.95-.09a6.59,6.59,0,0,0,1.27-.14c0-.35,0-1,.14-1.82s.18-1.83.27-2.93.19-2.29.32-3.6.24-2.57.36-3.82c.24-3,.55-6.27.91-9.77l.54-7.73-1.36.09L139.08,43Z"/><path class="cls-3" d="M157.69,88l4.18-17.85q0-3.82-.14-8.31t-.41-9c-.18-3-.36-5.93-.54-8.75s-.34-5.3-.46-7.46-.3-4.55-.54-7.15L174.57,24V39.36c0,1.54,0,3,0,4.53s-.05,2.87-.05,4.18v3.28q1.19-3,2.86-7.46c1.12-3,2.17-5.83,3.13-8.62Q182.2,30.4,184,25l14.07,3.11q-3.9,7.64-7.62,15.19-1.54,3.28-3.27,6.79l-3.45,7q-1.73,3.51-3.36,6.8c-1.09,2.19-2.08,4.23-3,6.13-.31,1.54-.68,3.23-1.14,5.06s-.89,3.59-1.31,5.24c-.55,2-1.12,3.91-1.73,5.87Z"/></g></svg>