<svg id="Layer_1" data-name="Layer 1" xmlns="http://www.w3.org/2000/svg" viewBox="0 0 250 125"><defs><style>.cls-1{fill:#b56e9d;}.cls-2{fill:#a8dfa2;}.cls-3{fill:#005ed0;}</style></defs><g id="btn-play"><g id="play-btn"><rect id="score" class="cls-1" x="6.21" y="9.81" width="233.24" height="96.02" rx="48.01"/><rect id="score-2" data-name="score" class="cls-2" x="20.52" y="19.04" width="204.63" height="77.55" rx="38.77"/></g><path class="cls-3" d="M52.78,80.32q1.62-8,3.12-15.6.54-3.24,1.2-6.75t1.23-7q.57-3.45,1.08-6.66t.81-5.85a42.52,42.52,0,0,1,7.38-1.59,61.48,61.48,0,0,1,7.86-.51,11.78,11.78,0,0,1,3.87.54,5.59,5.59,0,0,1,2.4,1.53A5.73,5.73,0,0,1,83,40.78a11.17,11.17,0,0,1,.36,2.94,13.69,13.69,0,0,1-.84,4.71,19.74,19.74,0,0,1-2.25,4.38A22.47,22.47,0,0,1,77,56.59a17.41,17.41,0,0,1-3.93,2.79q1.08,2.4,2.31,5.25t2.31,5.43q1.2,3,2.46,6l-9.3,3.24q-1.2-4.14-2.16-7.8-.42-1.5-.84-3.09t-.78-3q-.36-1.41-.6-2.49a15.36,15.36,0,0,1-.3-1.68l-.78.24q-.36,1.92-.87,4.68t-.93,5.34Q63,74.56,62.5,77.8Zm14.1-26a8.4,8.4,0,0,0,2.79-1,19.5,19.5,0,0,0,3.15-2,17.79,17.79,0,0,0,2.58-2.43,3.66,3.66,0,0,0,1.08-2.22,1.36,1.36,0,0,0-.42-1,2.8,2.8,0,0,0-1.17-.6,8.12,8.12,0,0,0-1.65-.27q-.9-.06-1.86-.06l-1.35,0-1.23,0Z"/><path class="cls-3" d="M79.66,80.32l7.86-42.66,19-1.62q-.42,1.32-.72,2.7-.3,1.14-.57,2.37t-.45,2.19q-.6.06-1.71.09l-2.37.06q-1.26,0-2.55,0H95.86l-2.1,10.74q1.86-.12,3.48-.18,1.32-.06,2.7-.06t2-.06q-.24,1.68-.45,3.3t-.51,3.3q-.6.06-2,.09l-2.73.09-3.42.12-2,11,8.76-1.38L99,77.32Z"/><path class="cls-3" d="M99.46,80.32q1.8-8.1,3.42-15.84.66-3.24,1.38-6.84t1.38-7.08q.66-3.48,1.26-6.72t1-5.94q1.74-.54,3.42-.93t3.45-.69a20,20,0,0,1,3.33-.3,10.21,10.21,0,0,1,4.53.9,8.08,8.08,0,0,1,3,2.43,9.56,9.56,0,0,1,1.62,3.57,19.09,19.09,0,0,1,.48,4.38,17.51,17.51,0,0,1-1.23,6.48,19.53,19.53,0,0,1-3.3,5.55,16.47,16.47,0,0,1-4.74,3.87,11.54,11.54,0,0,1-5.55,1.44h-.66q-.48,2-.9,4.44t-.72,4.44q-.42,2.4-.78,4.8Zm15.42-29.58q-.66,3.54-1.44,7.56a5.22,5.22,0,0,0,2-1.11,9.71,9.71,0,0,0,2-2.28,12.54,12.54,0,0,0,1.44-3.27,13.92,13.92,0,0,0,.54-3.9,5,5,0,0,0-1-3.36,2.88,2.88,0,0,0-2.19-1.14Q115.54,47.2,114.88,50.74Z"/><path class="cls-3" d="M135,78.46q-2.07.12-4.17.36t-4.11.63a29,29,0,0,0-3.63.93q.36-2.7.84-6t1.11-6.84q.63-3.54,1.26-7.14t1.29-6.9q1.5-7.86,3.18-16l10.5-1.38q-1.62,7-3.12,13.56-.66,2.82-1.32,5.85t-1.26,5.91Q135,64.3,134.5,67t-.78,4.8q1.5-.12,3.21-.15l3,0q.06,1.14.18,2.25t.27,2q.15.9.24,1.59t.15.93q-.48,0-.93,0t-.93,0Q137.08,78.34,135,78.46Z"/><path class="cls-3" d="M159.28,79.6l-3.24.54q.24-2,.48-3.9.18-1.68.33-3.36t.27-2.88H151.9l-2.4,8.64q-1.32.18-3.12.39l-3.36.39-3.78.48q2.4-8,4.74-15.72l2-6.78q1-3.54,2.1-7t2-6.75q1-3.24,1.68-5.94,4.08-.3,8.31-.72t8.25-1.14q-.18,1.92-.39,4.77t-.39,6.21q-.18,3.36-.36,7t-.36,7.2q-.3,8.28-.66,17.58-1.8.3-3.6.48ZM153.34,64l.87,0,1.32-.06,1.29-.06a5,5,0,0,0,.84-.09q0-.36.09-1.23t.18-2q.09-1.11.21-2.43t.24-2.58q.24-3.06.6-6.6l.36-5.22-.9.06-1.38,5.16Z"/><path class="cls-3" d="M171.1,79.36l2.76-12.06q0-2.58-.09-5.61t-.27-6.09q-.18-3.06-.36-5.91t-.3-5q-.12-2.19-.36-4.83l9.78-3.72V46.48q0,1.56,0,3.06t0,2.82v2.22q.78-2,1.89-5t2.07-5.82q1.14-3.3,2.34-7l9.3,2.1q-2.58,5.16-5,10.26-1,2.22-2.16,4.59l-2.28,4.74L186.1,63q-1.08,2.22-2,4.14-.3,1.56-.75,3.42t-.87,3.54q-.54,2-1.14,4Z"/></g></svg>