<svg id="Layer_1" data-name="Layer 1" xmlns="http://www.w3.org/2000/svg" viewBox="0 0 550 780"><defs><style>.cls-1{opacity:0.54;}.cls-2{fill:#e9e9f0;}.cls-3{fill:#3d420d;}.cls-4{fill:#fbb03b;}.cls-5{fill:#00479c;stroke:#2e3192;stroke-width:0.5px;}.cls-11,.cls-14,.cls-15,.cls-16,.cls-18,.cls-5,.cls-6,.cls-7,.cls-9{stroke-miterlimit:10;}.cls-16,.cls-6{fill:none;}.cls-14,.cls-15,.cls-18,.cls-6,.cls-9{stroke:#000;}.cls-6{stroke-width:0.25px;}.cls-11,.cls-7{fill:#bf0046;stroke:#d4145a;}.cls-18,.cls-8{fill:#fff2d5;}.cls-9{fill:#ccecff;stroke-width:5px;}.cls-10{fill:#d00034;}.cls-11{stroke-width:0.75px;}.cls-12{fill:#f0e5cf;}.cls-13{fill:#513b08;}.cls-14,.cls-20{fill:#fff;}.cls-14,.cls-16{stroke-width:2px;}.cls-16{stroke:#2900d0;}.cls-17{fill:#e0b4ce;}.cls-18{stroke-width:0.17px;}.cls-19{fill:#e7d5cb;opacity:0.8;}</style></defs><g id="character"><g id="character-2" data-name="character"><g id="right-shoe"><g id="character-3" data-name="character" class="cls-1"><g id="right-shoe-2" data-name="right-shoe"><g id="Laces"><path class="cls-2" d="M113.73,581.9c-.7,0-1,7.19-.7,16"/><path class="cls-2" d="M113.73,581.9c-.7,0-1,7.19-.7,16"/><path class="cls-2" d="M113.73,581.9c-.7,0-1,7.19-.7,16"/><path class="cls-2" d="M113.73,581.9c-.7,0-1,7.19-.7,16"/><path class="cls-2" d="M113.73,581.9c-.7,0-1,7.19-.7,16"/><path class="cls-2" d="M113.73,581.9c-.7,0-1,7.19-.7,16"/><path class="cls-2" d="M113.73,581.9c-.7,0-1,7.19-.7,16"/><path class="cls-2" d="M113.73,581.9c-.7,0-1,7.19-.7,16"/><path class="cls-2" d="M113.73,581.9c-.7,0-1,7.19-.7,16"/><path class="cls-2" d="M113.73,581.9c-.7,0-1,7.19-.7,16"/><path class="cls-2" d="M113.73,581.9c-.7,0-1,7.19-.7,16"/><path class="cls-2" d="M113.73,581.9c-.7,0-1,7.19-.7,16"/><path class="cls-2" d="M113.73,581.9c-.7,0-1,7.19-.7,16"/><path class="cls-2" d="M113.73,581.9c-.7,0-1,7.19-.7,16"/><path class="cls-2" d="M118.62,578.72c-.59,0-.82,7.19-.51,16"/><path class="cls-2" d="M109.05,584.14c-.7,0-1,7.19-.7,16"/></g></g><g id="pants"><path class="cls-2" d="M109.88,603.16c1.73-12.44,6.94-33.1,8.53-45.78.79-6.31,1.94-8,6.84-7.35,54.57,7,159.68,48.47,158.94,53.39-1.49,9.88-3.17,23.21-6,32.64-1.41,4.7-1.27,7.79-7.4,5.93-68.28-20.76-88.51-24.23-156.07-28.51C108.65,613.1,109,609.35,109.88,603.16Z"/><path class="cls-2" d="M125.21,520.65c3.88-11.54,16-44.77,21.78-41.13,58.41,37,74.66,61.32,142.29,60.45,6.64-.08.75,35.36-.57,47.55-.66,6.08-2.33,8.92-7.29,8.62A156.9,156.9,0,0,1,256,592.38a250.79,250.79,0,0,1-37-11.79c-12-4.81-24-10.43-35.7-16.47-19.68-10.14-38.55-21.47-55.45-32C123.45,529.32,123.27,526.4,125.21,520.65Z"/></g><g id="body"><path class="cls-2" d="M275.75,637.68c-6.93-39-6-64.49,12.64-98.11,3.46-6.25,9.31-.51,11.7.49,23.88,10,48.29,19.24,72.09,21.81a56.2,56.2,0,0,1,13.68,4.06c5.71,2.45,13.06,5.7,17.45,13.11a28,28,0,0,1,3.56,11.47c3.4,27.75-7.68,47.87-9.24,76-.27,4.92-3.57,9-8.18,8.47-36.7-4.41-70.6-25.76-107.62-28.61C277.17,646.05,277,644.93,275.75,637.68Z"/></g><g id="face"><ellipse class="cls-2" cx="430.76" cy="630.34" rx="31.66" ry="36.94" transform="translate(-101.06 82.57) rotate(-9.81)"/><ellipse class="cls-2" cx="427.13" cy="652.65" rx="31.76" ry="49.77" transform="translate(-30.66 21.13) rotate(-2.74)"/><ellipse class="cls-2" cx="398.89" cy="635.8" rx="16.54" ry="5.5" transform="translate(-288.59 937.02) rotate(-81.56)"/><ellipse class="cls-2" cx="454.84" cy="648.67" rx="60.52" ry="24.55" transform="translate(-264.78 980.05) rotate(-79.69)"/></g><polygon class="cls-2" points="314.25 646.39 335.52 626.92 365.07 679.31 343.8 698.79 314.25 646.39"/><path class="cls-2" d="M341.54,660.35s-3,4-3.45,6.4l-.11.54a4.14,4.14,0,0,0,.1,1.52c.47,1.9,2.12,3.1,3.69,2.68a2.93,2.93,0,0,0,2-2.22,2.78,2.78,0,0,0,2.77.93c1.57-.42,2.46-2.3,2-4.2a4.1,4.1,0,0,0-.63-1.37l-.34-.42c-1.54-1.88-6-3.86-6-3.86Z"/><path class="cls-2" d="M345.24,610.92l.25,14.26a1.67,1.67,0,0,1,0,.32l-3.09,22.64c0,.05,0,.09,0,.14l-1.28,6.15c-.33,1.59-2.05,1.63-2.38.05l-3-13.91a1.37,1.37,0,0,0-1-1.15l-3.56-.58a1.09,1.09,0,0,1-.6-.33l-5.21-5.31a1.63,1.63,0,0,1-.42-.85l-1.56-7.79c-.27-1.37.85-2.52,1.8-1.85l4.44,3.14c.74.53,1.67-.06,1.82-1.16l1.77-13"/><path class="cls-2" d="M330.77,679.62h-6a4.18,4.18,0,0,1-3.88-3.94l-.52-4.69a5,5,0,0,0-.57-1.81l-2.24-4.1a4.84,4.84,0,0,1-.22-4.18c1.75-4.06.58-4.5.58-4.5"/><path class="cls-2" d="M425.82,595.62a41.71,41.71,0,0,1,7.22,2.64c-.73,1.54-1.47,3.08-2.24,4.59,7.54,2.95,14.46,6,22.38,5.37,1.95,1.09,3.35,1.5,5.41,2.75s4,1.47,6.12,3.77a48.5,48.5,0,0,1,6.33,9.9c-.73,3.48-3.72,2.79-3.5,7.16s3.34,10.2,5.14,14.47c-2.57,3.59-5.19,7-7.62,10.75q-.37,3-.73,6c-2,2.84-4.05,5.66-6,8.55.41,3.11.88,6.18,1.22,9.32-2.86,3.3-6,7.6-8.89,10.58s-5.45,4.51-8.26,7.16c-4.66-1.41-7.56-2.09-13.29-3.74l-15.41-4.31c-3.41-.91-5.33-1.47-7.21-2l-3.5-1c5.18,4.82,10.19,9.67,15.29,14.53,4.93.33,9.81.49,14.77.93,4.31,4.68,9.51,10.55,13.78,14.73s7.7,6.62,11.77,10.49c4.7-4,7.79-8,13-11.69s12.14-6.12,17.91-9.75,11.77-8.18,17.52-12.06c4.31-7.28,8.55-14.57,12.89-21.8-.68-7.42-1.14-14.6-1.66-22.08s-1.11-15.26-1.78-22.79c1.62-4.46,3.18-8.93,4.72-13.42q-5.19-6.16-10.39-12.34c-3.72-2.25-7.43-4.51-11.18-6.69-3.08-4.94-6.14-9.89-9.31-14.77a114.44,114.44,0,0,0-16.55,4.77,45.42,45.42,0,0,1-2.29-5.29c-5.56-1.06-9.11-.71-14.84-3.5s-12.62-5.84-19.26-4.53C433,579.76,429.92,588,425.82,595.62Z"/><g id="oko"><path class="cls-2" d="M434.11,616.36c5.62,1.88,9.1,7.12,8.67,11.06-.52,4.68-6.68,8.53-13.59,5.6"/><ellipse class="cls-2" cx="433.96" cy="625.75" rx="3.9" ry="4.46" transform="translate(-315.98 493.57) rotate(-45.26)"/></g><g id="oko-2" data-name="oko"><path class="cls-2" d="M424.63,658.75c5.72,1.37,9.66,6.32,9.61,10.33-.06,4.75-5.76,9.19-12.84,6.88"/><ellipse class="cls-2" cx="425.39" cy="668.21" rx="3.89" ry="4.47" transform="translate(-351.58 514.01) rotate(-46.29)"/></g><path class="cls-2" d="M408.73,656.24c-1.09.35-6.87-9.47-4.77-18.58,1.89-8.18,9.35-12.43,10.2-11.44.71.83-3.6,4.9-5.33,13.53C407,649.06,409.62,656,408.73,656.24Z"/><g id="glasses"><g id="glasses-2" data-name="glasses"><polygon class="cls-2" points="424.69 637.59 431.77 609.39 447.86 615.9 440.78 644.1 424.69 637.59"/><polygon class="cls-2" points="417.22 680.25 422.26 651.35 438.12 655.79 433.08 684.69 425.86 682.67 417.22 680.25"/><line class="cls-2" x1="451.04" y1="606.22" x2="440.9" y2="613.09"/><line class="cls-2" x1="429.6" y1="689.1" x2="425.66" y2="683.23"/></g><line class="cls-2" x1="430.59" y1="654.56" x2="433.17" y2="642.01"/></g><path id="arm" class="cls-2" d="M393,569.79a49.43,49.43,0,0,0-7.3-9.14c-3.94-3.83-6.13-4.47-11.34-8-2.11-1.44-1.91-1.45-13.88-11.38-10.56-8.77-12-9.83-13.87-8.89-4.23,2.12-5.93,12-7.92,24.72-6.91,44.16-10.25,66.34-5.28,71.31,4.51,4.51,13.61,1.27,14.8-3.26.47-1.78-.36-3.45-1-5.34-2-5.47-1.74-12.17-1.17-25.32.78-18.33,1.17-27.49,3.68-30.32,4.58-5.17,13.91-.55,22.8,10.27"/></g><path class="cls-3" d="M201.27,558.49c13.08,8.63,32.35,6.59,29.55,26.77s-32.46,16.39-43.66,4.32-41.06-20.92-25.92-36.69S188.19,549.87,201.27,558.49Z"/><path class="cls-4" d="M163.68,561.8a9.45,9.45,0,0,1,4.9,1.46c2.69,1.78,3.72,5.06,7.87,9.64,30.17,33.34,44.72-9.66,54.51,2,3.78,4.49,8.85,11.82,6,19.56-5.29,14.15-30.3,12.13-43.37,9.39C183.42,601.73,177,592.72,167,582.18a159,159,0,0,1-13.48-16.33h0C154.47,564.92,158.28,561.4,163.68,561.8Z"/></g><g id="left-shoe"><path class="cls-3" d="M131.25,569.78s4.05,2.69,18.7,15.87c4.69,4.23,6.33,5.9,6.36,8.36.1,7.6-15.22,13.43-19.08,15.17-12.06,5.47-20.59,6.28-26.9,4.34-7-2.15-11.93-11.8-22.12-30.57a39.92,39.92,0,0,0-4.34-6.47,44.24,44.24,0,0,0-3.71-4c-1.62-1.58-12-11.71-9.29-20,1.49-4.57,7.07-7.69,11-9.52C102.11,533.68,123.93,554.06,131.25,569.78Z"/><path class="cls-4" d="M151.35,585.58c-13.07-11.18-6.62,20.67-36.24,8C93.64,584.4,92.72,557.3,73.6,549.52A3.5,3.5,0,0,1,70.73,552c-.2,0-.41,0-.68.09a11.2,11.2,0,0,1-3.37,0,3.92,3.92,0,0,1-.6,2.15c.13,1.52-.77,2.26-1.4,3.78,2.75,15.62,12.22,33.39,21.74,45.7,11.6,15,34.14,17.51,51,10.49C153.07,607.57,163.46,595.93,151.35,585.58Z"/></g><g id="pants-2" data-name="pants"><path class="cls-5" d="M214.11,563.08c-15,1.08-40.7-.16-55.88,1.17-7.56.66-9.91-.38-11.06-6.94-12.78-73-5.12-221.07.82-221.43,11.93-.7,27.9-2.09,39.82-.94,5.93.57,9.44-.44,9.63,8.05,2.16,94.54,5.88,121.83,26.7,211C226,562,221.56,562.54,214.11,563.08Z"/><path class="cls-5" d="M112.64,566.84c-14.85-2-58-9-56-17.46,20.46-86.64,42.35-114.53,15.39-203-2.64-8.69,40.65-10.54,55.27-12.1,7.29-.78,11.22.65,12.78,7.23a240.62,240.62,0,0,1,5.41,34.38A363.26,363.26,0,0,1,146,427.6c-.95,17.07-2.86,34.31-5.35,51.29-4.21,28.55-10.07,56.38-15.84,81.42C123.35,566.8,120,567.83,112.64,566.84Z"/><path class="cls-6" d="M196.77,574.85c.28.45,8.31-2.47,18-6.53"/><path class="cls-6" d="M109.54,578.25c.28.45,8.32-2.47,18-6.53"/><path class="cls-6" d="M115.54,584.25c.28.45,8.32-2.47,18-6.53"/><path class="cls-6" d="M188.22,569.25c.27.46,6.67-1.57,14.29-4.54"/></g><g id="body-2" data-name="body"><path class="cls-7" d="M193.5,345.57c-42.52,19.84-72.44,25.57-118.56,10C66.36,352.72,70.77,343.39,71,340c2.38-34.4,3.75-69.31-2.41-101.58a84.56,84.56,0,0,1-.55-19.25c.64-8.26,1.59-18.89,8.49-26.74a29,29,0,0,1,11.92-7.86c30.86-12.09,58.44-2.89,91.67-8.52,5.81-1,11.82,2.28,13,8.55,9,49.88-2.73,100.68,8.19,150.57C202.65,341.39,201.4,341.88,193.5,345.57Z"/></g><path class="cls-8" d="M220.27,255.85l1,8.08a5.35,5.35,0,0,1-3.34,5.82l-4.66,1.45a4.46,4.46,0,0,0-1.73,1.05l-3.77,3.66a4,4,0,0,1-4.19,1c-4.41-1.7-4.66-.06-4.66-.06"/><polygon class="cls-9" points="188.68 285.84 157.97 263.19 207.29 210.27 238 232.92 188.68 285.84"/><path class="cls-10" d="M194.37,246.26s5.76,2.84,8.73,2.8h.67a4.2,4.2,0,0,0,1.72-.53,4.11,4.11,0,0,0,1.68-5.57,4,4,0,0,0-3.33-2,4,4,0,0,0,0-3.89,4.12,4.12,0,0,0-5.63-1.47,4.23,4.23,0,0,0-1.35,1.2l-.35.56c-1.58,2.52-2.16,8.92-2.16,8.92Z"/><path class="cls-8" d="M138.69,254.47l16.43-4a2.32,2.32,0,0,1,.38-.06l27.4-2h7.78c2,0,2.68,2.14,1,3l-15,7.28a1.54,1.54,0,0,0-.94,1.57l.7,4.6a1.35,1.35,0,0,1-.15.83l-4.16,7.88a1.75,1.75,0,0,1-.82.74l-8.42,4c-1.48.69-3.25-.42-2.84-1.78l1.94-6.34c.33-1.06-.72-2.07-2-2l-15.75,1.13"/><path id="arm-2" data-name="arm" class="cls-11" d="M69.86,203.25a57.61,57.61,0,0,0-7.8,12.27c-2.94,6.32-2.84,9.42-5,17.35-.86,3.22-1,3-7.88,21.69-6.12,16.51-6.8,18.72-5,21,4.08,5.06,16.19,4.63,31.75,3.78,53.93-2.93,81-4.57,84.84-12.58,3.5-7.27-3.76-18.53-9.48-18.88-2.25-.14-3.87,1.43-5.8,2.87-5.6,4.14-13.46,5.66-29,8.53-21.58,4-32.37,6-36.62,3.43-7.77-4.69-6-18.43,3.15-33.29"/></g><g id="head"><g id="face-2" data-name="face"><ellipse class="cls-12" cx="115.93" cy="144.01" rx="48.84" ry="43.43"/><ellipse class="cls-12" cx="148.26" cy="142.74" rx="59.11" ry="43.43" transform="translate(-29.15 38.42) rotate(-13.46)"/><ellipse class="cls-12" cx="139.59" cy="184.35" rx="19.94" ry="7.41" transform="translate(-8.51 6.76) rotate(-2.69)"/><ellipse class="cls-12" cx="133.02" cy="107.46" rx="73.25" ry="32.93"/></g><path class="cls-13" d="M69.53,156.31v-9.4l5.7,2.17-5.7-28.23,5.7-8,5.7-9.41L94.77,89s7.32,2.17,9,2.17S120,75.25,120,75.25l16.28,4.34,7.32-1.44,13,4.34,9.77-4.34,17.91,8,12.21,8,3.25,14.48c0,.14,6.71,28.17,6.71,28.2l1.39,5.84.86,3.59,6.51-23.88-8.14-18.1,8.14-24.61,4.07-17.37L199.76,52.09,179.41,33.27,156.62,16.63,125.69,9.39l-23.6,10.85L77.67,32.55l-17.09-.73L51.63,48.47,49.18,64.39l-13,15.2,9,18.82-6.52,4.35,1.63,18.09,6.51,26.78Z"/><g id="oko-3" data-name="oko"><path class="cls-14" d="M98.58,140.74c0-5.94,4.74-10.45,9.46-10.82,5.6-.44,12.39,4.86,11.65,12.28"/><ellipse class="cls-15" cx="109.48" cy="138.97" rx="4.88" ry="4.34"/></g><path class="cls-15" d="M114.3,140.51v0Z"/><polygon class="cls-16" points="132.19 145.01 89.12 142.98 90.77 115.13 133.85 117.16 132.19 145.01"/><polygon class="cls-16" points="195.84 142.91 152.73 144.37 151.59 117.57 194.7 116.11 195.22 128.31 195.84 142.91"/><g id="oko-4" data-name="oko"><path class="cls-14" d="M161.29,140.92c-.61-5.92,3.62-10.8,8.27-11.57,5.54-.91,12.86,3.81,12.91,11.26"/><ellipse class="cls-15" cx="171.96" cy="138.25" rx="4.88" ry="4.34"/></g><line class="cls-16" x1="75.64" y1="113.25" x2="90.06" y2="127.18"/><line class="cls-16" x1="202.54" y1="120.21" x2="196.1" y2="128.45"/><path class="cls-17" d="M165,162.39c1.13,1.67-9.08,15.54-23,16-12.5.41-22.87-10.17-22-12,.73-1.54,9,3.85,22,3C156.1,168.46,164.11,161,165,162.39Z"/><line class="cls-16" x1="152.15" y1="135.69" x2="132.61" y2="135.69"/><path id="nose" class="cls-18" d="M149.73,151.17s-2.57,4.69-6.92,5.28a9.33,9.33,0,0,1-6.5-2,9.33,9.33,0,0,0,6.5,2C147.16,155.86,149.73,151.17,149.73,151.17Z"/><circle class="cls-19" cx="99.03" cy="156.39" r="8.5"/><circle class="cls-19" cx="183.53" cy="153.89" r="8.5"/></g><g id="like_ig" data-name="like ig"><path class="cls-20" d="M201.89,41.52,196,39.34a1.06,1.06,0,0,1-.62-.57.85.85,0,0,1,0-.68l4.94-11.6a1.09,1.09,0,0,1,1-.62,1,1,0,0,1,.42.08l18.4,6.76a1.11,1.11,0,0,1,.63.57.87.87,0,0,1,0,.69l-4.93,11.6a1.1,1.1,0,0,1-1,.62h0a1.26,1.26,0,0,1-.43-.08l-5.9-2.17-5.5,4Z"/><path d="M201.29,26.35a.75.75,0,0,1,.26,0L220,33.17a.57.57,0,0,1,.35.31.39.39,0,0,1,0,.3l-4.93,11.6a.64.64,0,0,1-.58.33.75.75,0,0,1-.26-.05l-5.67-2.08-.48-.18-.41.3-4.66,3.37-.9-5.35-.09-.55-.53-.2-5.66-2.08a.6.6,0,0,1-.35-.31.37.37,0,0,1,0-.31l4.94-11.59a.61.61,0,0,1,.58-.33m0-1a1.58,1.58,0,0,0-1.47.91l-4.93,11.6a1.43,1.43,0,0,0,.91,1.89l5.66,2.09,1.16,6.88,5.91-4.28,5.66,2.08a1.81,1.81,0,0,0,.6.11,1.58,1.58,0,0,0,1.46-.91l4.94-11.6a1.46,1.46,0,0,0-.91-1.9l-18.4-6.77a1.7,1.7,0,0,0-.59-.1Z"/><path class="cls-10" d="M206.1,40.56s5.14-1,7-2.32l.41-.31a2.88,2.88,0,0,0,.8-1.08,3,3,0,0,0-1.91-4,3.59,3.59,0,0,0-3.16.33A3.21,3.21,0,0,0,207.16,31a3.4,3.4,0,0,0-4.32,1.68,2.83,2.83,0,0,0-.21,1.3l.07.49c.35,2.17,3.39,6.14,3.39,6.14Z"/></g></g></svg>