<svg id="Layer_1" data-name="Layer 1" xmlns="http://www.w3.org/2000/svg" viewBox="0 0 60 60"><defs><style>.cls-1{fill:none;}.cls-2{fill:#febfff;}.cls-3{fill:#005ed0;}</style></defs><line class="cls-1" x1="-77.86" y1="48.32" x2="0.71" y2="106.89"/><g id="closeBtn"><circle class="cls-2" cx="30.39" cy="33.43" r="22.25"/><path class="cls-3" d="M39.32,47.52l-1.41.5-1.84.69c-.67.25-1.33.49-2,.74l-1.8.7c-.56.23-1,.41-1.3.57-.2-1.27-.39-2.5-.55-3.71-.15-1-.31-2.09-.48-3.14s-.3-1.92-.39-2.62q-.35,1.09-.9,2.73c-.38,1.09-.74,2.16-1.1,3.22-.45,1.23-.91,2.47-1.38,3.73l-8.19,0q2-4.45,4.08-8.82A92.33,92.33,0,0,0,25.77,33q-.46-2.13-.87-3.78C24.63,28.12,24.34,27,24,26s-.65-2.14-1-3.22-.71-2.31-1.08-3.69l7.39-3.8c.28,1.49.6,3.13,1,4.93s.69,3.46,1,5c.6-1.66,1.2-3.31,1.78-5s1.19-3.29,1.83-4.92L42,16.57c-.71,1.47-1.35,2.82-1.92,4.06S39,23.1,38.44,24.33s-1,2.48-1.52,3.76-1,2.7-1.62,4.26c.31,1.38.64,2.69,1,3.91s.74,2.43,1.15,3.61.81,2.39,1.21,3.59.84,2.47,1.31,3.81A5.22,5.22,0,0,1,39.32,47.52Z"/></g></svg>