<svg id="Layer_1" data-name="Layer 1" xmlns="http://www.w3.org/2000/svg" viewBox="0 0 90 90"><defs><style>.cls-1{fill:#fff67d;}</style></defs><path class="cls-1" d="M56.82,67.44,54.66,68l-2.84.79-3,.87c-1,.28-1.9.56-2.77.82s-1.53.5-2,.69c-.15-1.92-.27-3.79-.36-5.62-.1-1.58-.21-3.17-.33-4.75s-.2-2.9-.25-4c-.43,1.06-1,2.38-1.69,4S40,64,39.33,65.5q-1.23,2.67-2.52,5.4L24.57,69.82q3.6-6.4,7.2-12.67A138.51,138.51,0,0,0,38.39,44c-.29-2.16-.56-4.08-.83-5.76s-.56-3.33-.9-5S36,30,35.58,28.38s-.77-3.54-1.15-5.65L46,18c.24,2.26.52,4.75.83,7.49s.59,5.25.83,7.56q1.65-3.6,3.27-7.2t3.35-7.13l10.44,2.81q-1.87,3.16-3.38,5.83c-1,1.78-2,3.55-2.88,5.33s-1.83,3.59-2.74,5.43-1.9,3.9-3,6.16c.29,2.11.62,4.1,1,6S54.53,54,55,55.78s.91,3.66,1.37,5.51.94,3.8,1.47,5.87A10.09,10.09,0,0,1,56.82,67.44Z"/></svg>