<svg id="Layer_1" data-name="Layer 1" xmlns="http://www.w3.org/2000/svg" viewBox="0 0 1450 870"><defs><style>.cls-1{fill:none;}.cls-1,.cls-10,.cls-2,.cls-3,.cls-4,.cls-5,.cls-6,.cls-7,.cls-8,.cls-9{stroke:#000;}.cls-1,.cls-10,.cls-11,.cls-2,.cls-3,.cls-4,.cls-5,.cls-6,.cls-7,.cls-8,.cls-9{stroke-miterlimit:10;}.cls-1,.cls-10,.cls-2,.cls-3,.cls-4,.cls-5,.cls-6,.cls-7,.cls-9{stroke-width:0.25px;}.cls-2{fill:#dfb7d9;}.cls-3{fill:#fbb03b;}.cls-4{fill:#d3efd1;}.cls-5{fill:#feefd8;}.cls-6{fill:#a8dfa2;}.cls-7,.cls-8{fill:#e6b695;}.cls-8{stroke-width:0.26px;}.cls-9{fill:#649e39;}.cls-10{fill:#54593f;}.cls-11{fill:#fed6ff;stroke:#c291c2;stroke-width:3px;}.cls-12{fill:#005ed0;}.cls-13{fill:#fff;}.cls-14{fill:#d00034;}.cls-15{font-size:36.07px;font-family:MyriadPro-Regular, Myriad Pro;}</style></defs><g id="game_over_logo"><g id="Book3"><ellipse class="cls-1" cx="1314.04" cy="528.69" rx="8.56" ry="5.52" transform="translate(-96.78 654.4) rotate(-27.01)"/><rect class="cls-2" x="1247.82" y="540.47" width="140.41" height="218.52" rx="12" transform="translate(2777.38 477.66) rotate(147.03)"/><rect class="cls-3" x="1255.57" y="538.52" width="135.39" height="219.93" rx="12" transform="translate(2786.34 472.53) rotate(147.03)"/><rect class="cls-4" x="1317.23" y="664.91" width="59.62" height="40.82" transform="translate(2850.12 527.32) rotate(147.03)"/></g><g id="Book2"><ellipse class="cls-1" cx="206.88" cy="571.4" rx="4.82" ry="7.39" transform="translate(-378.03 406.55) rotate(-54.36)"/><path class="cls-5" d="M113.47,513.4l97.41,54.68a4.83,4.83,0,0,1,1.8,6.54L124.51,733.3a4.76,4.76,0,0,1-6.48,1.88L20.62,680.5a4.82,4.82,0,0,1-1.8-6.53L107,515.29A4.77,4.77,0,0,1,113.47,513.4Z"/><path class="cls-6" d="M118.71,517.45,212.33,570a4.82,4.82,0,0,1,1.81,6.53L125.36,736.31a4.77,4.77,0,0,1-6.48,1.88L25.26,685.63a4.82,4.82,0,0,1-1.8-6.53l88.77-159.77A4.77,4.77,0,0,1,118.71,517.45Z"/><polygon class="cls-2" points="86.34 633.11 131.21 658.3 113.87 689.51 69 664.32 86.34 633.11"/></g><g id="Book1"><ellipse class="cls-7" cx="346.37" cy="654.66" rx="5.68" ry="3.46" transform="translate(-49.86 28.92) rotate(-4.46)"/><path class="cls-7" d="M430.89,652.41,345,651.17a3.57,3.57,0,0,0-3.71,3.39L339.07,784.5a3.54,3.54,0,0,0,3.59,3.5l85.91,1.25a3.57,3.57,0,0,0,3.71-3.4l2.2-129.94A3.56,3.56,0,0,0,430.89,652.41Z"/><path class="cls-8" d="M425.06,653l-91.31-1.58c-2.23,0-4.07,1.48-4.09,3.37l-1.85,130.85a3.81,3.81,0,0,0,4,3.51l91.31,1.58c2.22,0,4.06-1.48,4.09-3.37l1.84-130.85C429.08,654.62,427.28,653,425.06,653Z"/><polygon class="cls-9" points="402.99 736.25 363.41 735.68 362.98 761.24 402.56 761.81 402.99 736.25"/></g><g id="Book2-2" data-name="Book2"><path class="cls-5" d="M945,656.35l101.94-45.66a4.83,4.83,0,0,1,6.33,2.44l74.94,165.34a4.78,4.78,0,0,1-2.35,6.33l-101.94,45.67a4.81,4.81,0,0,1-6.32-2.45L942.65,662.68A4.77,4.77,0,0,1,945,656.35Z"/><path class="cls-10" d="M948.18,654.56l98-43.9a4.81,4.81,0,0,1,6.32,2.45l75.46,166.46a4.78,4.78,0,0,1-2.35,6.33l-98,43.9a4.84,4.84,0,0,1-6.33-2.45L945.83,660.88A4.77,4.77,0,0,1,948.18,654.56Z"/><polygon class="cls-2" points="1024.98 749.45 1071.94 728.41 1086.68 760.93 1039.72 781.97 1024.98 749.45"/></g><g id="logo"><g id="brainNEW"><ellipse class="cls-11" cx="740.4" cy="248.72" rx="329.61" ry="143.22" transform="translate(-6.72 20.96) rotate(-1.61)"/><path class="cls-11" d="M229.74,231.39c-8.26,2.59-90.38,29.35-103.74,83.7C112.91,368.31,172.36,421,232,427.22c33.68,3.52,53.72-9.23,82.89-.32,35.94,11,22,35.39,51.12,49.05C416.1,499.47,495,444.74,617.42,456.74c60.86,6,50.27,20.38,106.76,23.24,99.82,5.07,149-39.11,218.21-22.31,38.11,9.26,43.46,27.57,77,26.11,39.75-1.73,70.65-29.11,75.73-33.61,0,0,15.37-13.62,22-29.73,21.05-51.45-59.32-106.66-66.14-111.23"/><path class="cls-11" d="M1101,458.29c8.52,2.47,51.59,14.24,96.37-.6,38.64-12.8,73-43.57,64.42-65.58s-55.16-23.37-55.38-40.95c-.15-12.82,24.58-14.36,38.23-33,18.71-25.49-2.43-57.05-23.58-88.61-18-26.84-31.45-47-58.68-51.49-26-4.33-43.87,9-57.18,1.61-14.67-8.11,3.27-26.31-4.51-53-8.49-29.16-43-52.65-77-61.6-21.4-5.64-20,.43-78.37-2-64.49-2.74-87.29-11-120.5-.86a115,115,0,0,0-35.64,18"/><path class="cls-11" d="M860.68,147c-4.1-9.75-25.45-56.27-95-76.08-81.38-23.18-197.5-.86-266.89,60"/><path class="cls-11" d="M481.5,105.14c-78.39-19.93-167.86-3.29-211.19,36.24-34.3,31.3-35.46,73.09-3.61,107.14"/><path class="cls-11" d="M243.94,274.16C205.59,194,249,107,332.31,74.23,428.53,36.36,562.21,77,605,171.45"/><path class="cls-11" d="M890.73,154.18c9.09-1.43,87.66-13,149.72,18,53.44,26.71,72.52,73.95,46.43,117.84"/><path class="cls-11" d="M531.63,354.14c11.6-7,75.35-44,171.2-43.19,121.9,1,185.91,62.35,190.9,67.32"/><path class="cls-11" d="M165.83,359.38c2.93-2.51,26.71-22.61,63.87-43.38,30.76-17.2,58.39-28,70.3-27.43"/><path class="cls-11" d="M450.14,422.06c-30.24,12.83-69,16.05-91.73,9.59-12.71-3.61-17.9-9.54-20.1-13.45"/><path class="cls-11" d="M690.08,446.61c8.23-3.88,25.18-10.81,49.35-13.51a176.52,176.52,0,0,1,63.13,4.28"/><path class="cls-11" d="M1017.21,307c1.9,1.33,22.82,16.56,19.27,38-3.31,19.93-26.42,36.77-55.78,38.26"/><path class="cls-11" d="M1051.34,383.49c11.32,7.39,31,22.41,39.43,44.75a60,60,0,0,1,2.51,34.49"/><path class="cls-11" d="M411.44,276.39c-55.47-2.24-96.71-32.56-99.62-65.07-4.25-47.43,75.47-73.4,81.2-75.2,68-21.31,130.66,11.11,138.2,15.16"/></g></g><path class="cls-12" d="M450.33,304.7a86.27,86.27,0,0,1-15,23.81,59.87,59.87,0,0,1-18.82,14.3,45.15,45.15,0,0,1-19.1,4.71,30.52,30.52,0,0,1-13.27-3,29.59,29.59,0,0,1-10.91-9.13A46.42,46.42,0,0,1,366,320a79,79,0,0,1-2.63-21.64q0-24.27,7-42.34T388,226q10.62-12,22.77-17.88t22.67-5.83a30.32,30.32,0,0,1,13.08,2.63,25.79,25.79,0,0,1,9.13,7.06,27.71,27.71,0,0,1,5.17,10.35,47.65,47.65,0,0,1,1.6,12.51l-25.78,4.9q-1.69-7.53-4.51-10.73a8.41,8.41,0,0,0-6.4-3.2q-4.71,0-10.35,6.68a76.65,76.65,0,0,0-10.54,17.22,142.47,142.47,0,0,0-8.28,23.15,108.15,108.15,0,0,0-3.76,24.84q0,11.67,3.48,16.65c2.32,3.33,5.29,5,8.94,5a18.51,18.51,0,0,0,7.8-1.88,22.7,22.7,0,0,0,7.25-5.37,31.73,31.73,0,0,0,5.36-8.09,25.63,25.63,0,0,0,2.36-10.07l-20.14,3,3.58-18.64q8.83-1.12,17.31-2.25c4.77-.63,9.81-1.38,15.15-2.26s10-1.7,14-2.45Q456.54,290.5,450.33,304.7Z"/><path class="cls-12" d="M508.29,340.93l-10.16,1.69q.75-6.21,1.5-12.23c.38-3.51.72-7,1-10.54s.59-6.52.85-9H485.14l-7.52,27.1q-4.15.57-9.79,1.22l-10.54,1.23-11.85,1.5q7.51-25,14.86-49.3l6.31-21.27q3.28-11.1,6.58-22.11T479.5,228q3-10.17,5.27-18.63,12.8-.94,26.06-2.26t25.88-3.58q-.57,6-1.23,15T534.26,238q-.57,10.55-1.13,22T532,282.59q-.94,26-2.07,55.14-5.64.94-11.29,1.51Q513.93,340,508.29,340.93ZM489.66,292q.75,0,2.73-.09l4.14-.19c1.44-.06,2.79-.12,4.05-.19a15,15,0,0,0,2.63-.28c0-.75.09-2,.28-3.86s.38-3.89.57-6.21.4-4.86.65-7.62.5-5.46.76-8.09q.75-9.6,1.88-20.7l1.13-16.38-2.82.19-4.33,16.19Z"/><path class="cls-12" d="M525.23,341.87q8.28-25,15.81-49.11,3.19-10.17,6.58-21.27t6.78-22q3.39-10.9,6.3-21.08t5.18-18.81a161.88,161.88,0,0,0,19.57-1.13q9.21-1.14,19.95-2.07-.57,4.14-1.23,9.31t-1.5,10.82q-.85,5.66-1.79,11.67t-2.26,15.43Q597.3,263,595,277.14h2.45q5.46-14.31,9-23.81t5.84-15.53q2.25-6,4.61-11.76t4.52-10.91q2.16-5.17,4-9.13,4.71-.37,8.85-.94c2.75-.38,5.52-.78,8.28-1.22l8.37-1.32q4.23-.66,9.32-1.6-1.89,10.92-3.58,22.39t-3,22.87q-1.32,11.38-2.54,22.49t-2.16,21.07q-2.26,23.34-4,45.55l-32.74,5.83c0-.63.09-2.32.28-5.08s.44-6.15.75-10.16.76-8.47,1.32-13.37,1.13-9.78,1.69-14.67,1.16-9.63,1.79-14.21,1.26-8.5,1.88-11.76h-1.69q-2.64,7.9-5.83,16.65t-6.5,17.78q-3.28,9-6.49,17.69t-5.64,16.56q-6.6.19-11.29.48l-10.92.65,6-69.81h-2.82q-.37,2.44-1.88,8.18l-3.48,13.18q-2,7.42-4.24,15.43t-4.23,14.86q-2,6.87-3.3,11.3c-.87,2.94-1.38,4.61-1.5,5Z"/><path class="cls-12" d="M648.87,343.19l24.65-133.8L733,204.31c-.88,2.76-1.64,5.58-2.26,8.46q-.94,3.58-1.79,7.44t-1.41,6.87c-1.26.12-3,.22-5.37.28l-7.43.19q-3.94.09-8,.09h-7.05l-6.59,33.69q5.83-.37,10.91-.57c2.76-.12,5.59-.19,8.47-.19s5-.06,6.4-.18q-.75,5.26-1.41,10.35c-.44,3.38-1,6.84-1.6,10.35-1.26.12-3.29.22-6.12.28s-5.67.16-8.56.28c-3.26.13-6.84.25-10.73.38l-6.39,34.63,27.47-4.33-1.88,21.45Z"/><path class="cls-12" d="M850.32,270.27a127.28,127.28,0,0,1-8.75,25,102.51,102.51,0,0,1-12.71,20.32,99.31,99.31,0,0,1-15.15,15.24,64.71,64.71,0,0,1-16,9.6,40.87,40.87,0,0,1-15.43,3.29A26.5,26.5,0,0,1,771,341.4a24.84,24.84,0,0,1-8.85-7,33.8,33.8,0,0,1-5.93-11.86,61.41,61.41,0,0,1-2.16-17.4A100.68,100.68,0,0,1,756.69,283a159.34,159.34,0,0,1,7.15-23.15A127.67,127.67,0,0,1,775,238a110.21,110.21,0,0,1,14.49-18.35,68,68,0,0,1,16.94-12.7,40.27,40.27,0,0,1,18.81-4.7q8.47,0,14,3.48a24.88,24.88,0,0,1,8.66,9,41.19,41.19,0,0,1,4.42,12.52,74.55,74.55,0,0,1,1.32,13.92A124,124,0,0,1,850.32,270.27Zm-67.47,34.34a13,13,0,0,0,2.07,3.95,12.39,12.39,0,0,0,3.29,2.92,7.88,7.88,0,0,0,4.24,1.22,22.05,22.05,0,0,0,15-5.83,48.27,48.27,0,0,0,10.92-14.3,83.37,83.37,0,0,0,6.68-18.07,74,74,0,0,0,2.35-17.5,45.41,45.41,0,0,0-.28-4.89,19.83,19.83,0,0,0-1.13-4.9,9.57,9.57,0,0,0-2.63-3.85,6.94,6.94,0,0,0-4.8-1.6,21.38,21.38,0,0,0-11.11,3,34.29,34.29,0,0,0-9.12,8,56.45,56.45,0,0,0-7.06,11.3,111.88,111.88,0,0,0-5.18,12.79,77,77,0,0,0-3.1,12.71,72.59,72.59,0,0,0-.94,10.72A13.7,13.7,0,0,0,782.85,304.61Z"/><path class="cls-12" d="M852.1,344.7q2.45-26.35,4.52-51.76.95-10.53,1.79-22.2t1.5-23.06q.66-11.38,1-22t.56-19.48q4.51,0,9.7-.19c3.44-.12,6.58-.25,9.4-.38s6.24-.37,10.26-.75q-2.07,21.84-3.58,35.85t-2.35,22.77q-.84,8.76-1.5,16.84T882,295.39c-.51,4.64-.94,8.59-1.32,11.86h3.39l21.07-100.12q5.08-.18,10.35-.57c3.14-.25,6.43-.43,9.88-.56s6.62-.38,9.51-.75q-2.64,8.28-5.37,18.25t-5.64,20.7Q921,254.93,918.25,266t-5.36,21.46q-6,24.27-12,49.87Z"/><path class="cls-12" d="M913.83,343.19l24.65-133.8L998,204.31q-1.32,4.14-2.26,8.46c-.63,2.39-1.22,4.87-1.79,7.44s-1,4.86-1.41,6.87c-1.25.12-3,.22-5.36.28l-7.43.19q-4,.09-8,.09h-7.06l-6.59,33.69q5.84-.37,10.92-.57c2.76-.12,5.58-.19,8.47-.19s5-.06,6.4-.18q-.76,5.26-1.42,10.35c-.44,3.38-1,6.84-1.59,10.35-1.26.12-3.3.22-6.12.28s-5.68.16-8.56.28c-3.27.13-6.84.25-10.73.38L949,316.66l27.48-4.33-1.89,21.45Z"/><path class="cls-12" d="M977.25,343.19q5.07-25,9.78-48.93,1.69-10.15,3.77-21.17t3.85-21.83q1.79-10.81,3.39-20.89t2.54-18.35a133.56,133.56,0,0,1,23.15-5,194,194,0,0,1,24.65-1.59,36.93,36.93,0,0,1,12.14,1.69,17.56,17.56,0,0,1,7.53,4.8,18.11,18.11,0,0,1,3.86,7.24,35.17,35.17,0,0,1,1.13,9.22,42.88,42.88,0,0,1-2.64,14.78,62,62,0,0,1-7.06,13.74,70.46,70.46,0,0,1-10.16,11.85,54.43,54.43,0,0,1-12.33,8.75q3.39,7.53,7.25,16.47t7.24,17q3.77,9.4,7.72,18.82L1033.89,340q-3.77-12-6.77-22.58-1.32-4.34-2.64-8.94t-2.44-8.75q-1.14-4.14-1.89-7.44a43.39,43.39,0,0,1-.94-5.36l-2.44.75q-1.14,6-2.73,14.12t-2.92,15.62q-1.7,8.85-3.39,17.88Zm44.22-81.67a26.3,26.3,0,0,0,8.75-3,60.61,60.61,0,0,0,9.88-6.3,55.61,55.61,0,0,0,8.09-7.62q3.39-4,3.39-7a4.29,4.29,0,0,0-1.32-3.3,8.87,8.87,0,0,0-3.67-1.88,25.72,25.72,0,0,0-5.17-.85c-1.88-.12-3.83-.18-5.83-.18-1.39,0-2.8,0-4.24.09s-2.73.09-3.86.09Z"/><path class="cls-12" d="M516.79,510.82a32.56,32.56,0,0,1-2.23,6.38,26.24,26.24,0,0,1-3.24,5.19,25.35,25.35,0,0,1-3.87,3.88,16.25,16.25,0,0,1-4.08,2.45,10.42,10.42,0,0,1-3.93.84,6.75,6.75,0,0,1-2.88-.6,6.31,6.31,0,0,1-2.26-1.77,8.77,8.77,0,0,1-1.51-3,15.56,15.56,0,0,1-.55-4.44,25.56,25.56,0,0,1,.67-5.66,40.57,40.57,0,0,1,1.82-5.91,32.66,32.66,0,0,1,2.83-5.56,28.27,28.27,0,0,1,3.7-4.68,17.21,17.21,0,0,1,4.32-3.24,10.28,10.28,0,0,1,4.8-1.2,6.67,6.67,0,0,1,3.58.88,6.4,6.4,0,0,1,2.2,2.31,10.32,10.32,0,0,1,1.13,3.19,18.56,18.56,0,0,1,.34,3.55A31.53,31.53,0,0,1,516.79,510.82Zm-17.21,8.76a3.35,3.35,0,0,0,.53,1,3.19,3.19,0,0,0,.84.74,2,2,0,0,0,1.08.31,5.59,5.59,0,0,0,3.84-1.49,12.1,12.1,0,0,0,2.78-3.64,21,21,0,0,0,1.71-4.61,18.89,18.89,0,0,0,.6-4.47,11.33,11.33,0,0,0-.08-1.24,4.86,4.86,0,0,0-.28-1.25,2.51,2.51,0,0,0-.68-1,1.76,1.76,0,0,0-1.22-.4,5.46,5.46,0,0,0-2.83.76,9,9,0,0,0-2.33,2,14.32,14.32,0,0,0-1.8,2.88,29.41,29.41,0,0,0-1.32,3.27,19.08,19.08,0,0,0-.79,3.24,18.58,18.58,0,0,0-.24,2.73A3.45,3.45,0,0,0,499.58,519.58Z"/><path class="cls-12" d="M514.84,529.47q1.26-6.63,2.45-13c.29-1.79.61-3.66,1-5.59s.69-3.85,1-5.74.62-3.72.91-5.5.55-3.4.77-4.87l7.78-.53c-.55,2.24-1.08,4.58-1.61,7s-1,4.8-1.47,7.11l4.76-.53q.66-3.4,1.2-6.6t1.39-6.6c.73-.13,1.55-.23,2.45-.31l2.49-.22,2.74-.24q-.67,2.16-1.27,4.73c-.4,1.71-.8,3.49-1.18,5.33s-.75,3.7-1.1,5.59-.68,3.68-1,5.37q-1.06,6.11-2,12.48l-7.49.87c.42-1.92.78-3.79,1.1-5.62q.48-2.29,1-4.8c.33-1.66.6-3.08.79-4.27l-4.66.43c-.22,1.22-.48,2.63-.79,4.23s-.58,3.12-.84,4.56l-1,5.18Z"/><path class="cls-12" d="M545.28,529.61q1.34-6.76,2.59-13.2.48-2.68,1-5.64c.37-2,.71-3.9,1-5.81s.62-3.74.89-5.52.49-3.4.65-4.87l2.88-.19c.83-.07,1.68-.12,2.54-.17s1.63-.1,2.31-.17q.62,3.7,1.1,7.06c.16,1,.33,2,.5,3s.35,2,.51,3,.32,1.88.48,2.76.32,1.65.48,2.33c.12-.68.27-1.45.43-2.33s.34-1.81.53-2.79.39-2,.6-3,.41-2,.6-3c.48-2.24,1-4.58,1.49-7l5.85-.72q-1.63,7.2-2.88,13.63-.57,2.79-1.13,5.62c-.36,1.89-.71,3.71-1,5.47s-.59,3.38-.81,4.87-.41,2.75-.53,3.77a9.43,9.43,0,0,0-1.13.22l-2.26.5-2.54.6c-.85.21-1.48.38-1.9.5q-.33-3.88-.72-7.39c-.09-1-.2-2-.33-3.07s-.25-2.06-.36-3-.23-1.87-.34-2.72-.21-1.56-.31-2.13c-.1.57-.22,1.28-.38,2.11s-.32,1.72-.48,2.66-.32,1.92-.48,2.93-.34,2-.53,3c-.42,2.28-.87,4.64-1.35,7.11Z"/><path class="cls-12" d="M592.77,510.82a31.92,31.92,0,0,1-2.23,6.38,26.24,26.24,0,0,1-3.24,5.19,24.91,24.91,0,0,1-3.87,3.88,16.25,16.25,0,0,1-4.08,2.45,10.38,10.38,0,0,1-3.93.84,6.75,6.75,0,0,1-2.88-.6,6.4,6.4,0,0,1-2.26-1.77,8.77,8.77,0,0,1-1.51-3,15.56,15.56,0,0,1-.55-4.44,25.56,25.56,0,0,1,.67-5.66,40.62,40.62,0,0,1,1.83-5.91,32,32,0,0,1,2.83-5.56,28.23,28.23,0,0,1,3.69-4.68,17.57,17.57,0,0,1,4.32-3.24,10.28,10.28,0,0,1,4.8-1.2,6.67,6.67,0,0,1,3.58.88,6.51,6.51,0,0,1,2.21,2.31,10.3,10.3,0,0,1,1.12,3.19,18.56,18.56,0,0,1,.34,3.55A31.53,31.53,0,0,1,592.77,510.82Zm-17.21,8.76a3.59,3.59,0,0,0,.53,1,3.19,3.19,0,0,0,.84.74,2,2,0,0,0,1.08.31,5.59,5.59,0,0,0,3.84-1.49,12.29,12.29,0,0,0,2.79-3.64,21.51,21.51,0,0,0,1.7-4.61,18.89,18.89,0,0,0,.6-4.47c0-.38,0-.79-.07-1.24a5.32,5.32,0,0,0-.29-1.25,2.6,2.6,0,0,0-.67-1,1.8,1.8,0,0,0-1.23-.4,5.49,5.49,0,0,0-2.83.76,9.13,9.13,0,0,0-2.33,2,14.32,14.32,0,0,0-1.8,2.88,29.41,29.41,0,0,0-1.32,3.27,19.08,19.08,0,0,0-.79,3.24,18.58,18.58,0,0,0-.24,2.73A3.45,3.45,0,0,0,575.56,519.58Z"/><path class="cls-12" d="M599.11,527.35a4.76,4.76,0,0,1-1.18,1.61,5.61,5.61,0,0,1-1.92,1.11,8,8,0,0,1-2.64.4,4.15,4.15,0,0,1-1.82-.38,3.52,3.52,0,0,1-1.32-1,5.21,5.21,0,0,1-.8-1.47,4.86,4.86,0,0,1-.28-1.63,5.39,5.39,0,0,1,.28-1.75,4.26,4.26,0,0,1,.89-1.49,5.06,5.06,0,0,1,1.49-1.08,4.8,4.8,0,0,1,2.14-.43,5.86,5.86,0,0,1,4.17,1.32,4,4,0,0,1,1.39,3A4.4,4.4,0,0,1,599.11,527.35Zm-2.86-9.26-2.78.19q1.49-5.89,2.9-11.76t3-11.76l2.09-.29c.78-.09,1.58-.2,2.38-.33s1.57-.24,2.33-.34,1.38-.19,1.89-.29q-2.6,6.06-4.73,12.17T599,518C598.11,518,597.18,518,596.25,518.09Z"/><path class="cls-12" d="M611.73,527.35a4.63,4.63,0,0,1-1.18,1.61,5.61,5.61,0,0,1-1.92,1.11,7.88,7.88,0,0,1-2.64.4,4.15,4.15,0,0,1-1.82-.38,3.68,3.68,0,0,1-1.32-1,5,5,0,0,1-.79-1.47,4.87,4.87,0,0,1-.29-1.63,5.4,5.4,0,0,1,.29-1.75,4.11,4.11,0,0,1,.89-1.49,5,5,0,0,1,1.48-1.08,4.86,4.86,0,0,1,2.14-.43,5.87,5.87,0,0,1,4.18,1.32,4.06,4.06,0,0,1,1.39,3A4.42,4.42,0,0,1,611.73,527.35Zm-2.86-9.26-2.78.19q1.49-5.89,2.9-11.76t3-11.76l2.08-.29c.79-.09,1.58-.2,2.38-.33s1.58-.24,2.33-.34,1.38-.19,1.89-.29q-2.58,6.06-4.72,12.17T611.66,518C610.73,518,609.8,518,608.87,518.09Z"/><path class="cls-12" d="M627.64,528.65l2.21-9.65c0-1.37,0-2.87-.07-4.49s-.12-3.24-.22-4.87-.19-3.21-.29-4.73l-.24-4c-.06-1.16-.16-2.45-.29-3.86l7.83-3v8.31c0,.83,0,1.64,0,2.44s0,1.56,0,2.26v1.78c.42-1.09.92-2.44,1.51-4s1.15-3.15,1.66-4.65q.91-2.64,1.87-5.57l7.44,1.68q-2.07,4.13-4,8.21c-.55,1.18-1.12,2.41-1.73,3.67s-1.22,2.53-1.82,3.79-1.2,2.49-1.78,3.67-1.1,2.29-1.58,3.32q-.24,1.25-.6,2.73c-.24,1-.48,1.94-.7,2.83-.29,1.06-.59,2.12-.91,3.17Z"/><path class="cls-12" d="M668.42,510.82a31.93,31.93,0,0,1-2.24,6.38,25.84,25.84,0,0,1-7.1,9.07,16.25,16.25,0,0,1-4.08,2.45,10.47,10.47,0,0,1-3.94.84,6.81,6.81,0,0,1-2.88-.6,6.36,6.36,0,0,1-2.25-1.77,8.6,8.6,0,0,1-1.51-3,15.53,15.53,0,0,1-.56-4.44,25.6,25.6,0,0,1,.68-5.66,39.37,39.37,0,0,1,1.82-5.91,32.66,32.66,0,0,1,2.83-5.56,27.76,27.76,0,0,1,3.7-4.68,17.21,17.21,0,0,1,4.32-3.24,10.22,10.22,0,0,1,4.8-1.2,6.61,6.61,0,0,1,3.57.88,6.43,6.43,0,0,1,2.21,2.31,10.32,10.32,0,0,1,1.13,3.19,19.4,19.4,0,0,1,.34,3.55A31.53,31.53,0,0,1,668.42,510.82Zm-17.21,8.76a3.35,3.35,0,0,0,.53,1,3.19,3.19,0,0,0,.84.74,2,2,0,0,0,1.08.31,5.59,5.59,0,0,0,3.84-1.49,12.26,12.26,0,0,0,2.78-3.64,21,21,0,0,0,1.7-4.61,18.89,18.89,0,0,0,.6-4.47,11.17,11.17,0,0,0-.07-1.24,4.87,4.87,0,0,0-.29-1.25,2.39,2.39,0,0,0-.67-1,1.76,1.76,0,0,0-1.22-.4,5.43,5.43,0,0,0-2.83.76,9,9,0,0,0-2.33,2,14.32,14.32,0,0,0-1.8,2.88,29.41,29.41,0,0,0-1.32,3.27,19.08,19.08,0,0,0-.79,3.24,18.58,18.58,0,0,0-.24,2.73A3.45,3.45,0,0,0,651.21,519.58Z"/><path class="cls-12" d="M684.11,524.67a11.7,11.7,0,0,1-2.88,3.16,11.33,11.33,0,0,1-3.53,1.83,12.72,12.72,0,0,1-3.74.57,7.56,7.56,0,0,1-2.26-.36,6.44,6.44,0,0,1-2.06-1.08,5.75,5.75,0,0,1-1.51-1.82,5.36,5.36,0,0,1-.6-2.59V524a1.28,1.28,0,0,1,.05-.38c.12-1.31.33-2.89.62-4.75s.59-3.79.91-5.81.67-4,1.06-6.07.73-3.88,1-5.55.57-3,.79-4.15.37-1.78.43-2l2.4-.24,2.6-.24,2.92-.29q-1.25,5.82-2.2,10.52c-.29,1.34-.57,2.68-.84,4s-.53,2.58-.77,3.69-.45,2.09-.63,2.91-.32,1.48-.43,2-.24,1.16-.38,1.94a11.51,11.51,0,0,0-.22,2.14,2,2,0,0,0,.39,1.27,1.14,1.14,0,0,0,1,.51,1.66,1.66,0,0,0,1.34-.65,5.84,5.84,0,0,0,.89-1.56,10.47,10.47,0,0,0,.53-1.85c.11-.62.21-1.11.31-1.46.19-.93.41-2,.65-3.1s.48-2.32.72-3.55.48-2.49.72-3.77.47-2.53.69-3.74c.55-2.82,1.07-5.73,1.59-8.74l7.29-.48c-.32,1.66-.61,3.19-.86,4.56s-.54,2.94-.84,4.7-.65,3.6-1,5.5-.76,3.78-1.13,5.62-.73,3.52-1.08,5.06A15.51,15.51,0,0,1,684.11,524.67Z"/><path class="cls-12" d="M686.34,529.42q1.3-6.39,2.5-12.48.43-2.6,1-5.4t1-5.57q.47-2.76.87-5.33c.27-1.71.49-3.27.65-4.68a34.31,34.31,0,0,1,5.9-1.27,49.56,49.56,0,0,1,6.29-.41,9.58,9.58,0,0,1,3.09.43,4.43,4.43,0,0,1,1.92,1.23,4.48,4.48,0,0,1,1,1.85,9,9,0,0,1,.29,2.35,10.91,10.91,0,0,1-.68,3.77,15.47,15.47,0,0,1-1.8,3.5,17.74,17.74,0,0,1-2.59,3,13.69,13.69,0,0,1-3.14,2.24q.85,1.92,1.85,4.2c.65,1.52,1.27,3,1.84,4.34q1,2.4,2,4.8l-7.44,2.59c-.64-2.05-1.21-4-1.73-5.76-.22-.73-.44-1.49-.67-2.28s-.43-1.53-.62-2.23-.35-1.34-.48-1.9a9.85,9.85,0,0,1-.24-1.36l-.63.19q-.28,1.53-.69,3.6c-.27,1.37-.52,2.7-.75,4-.28,1.51-.57,3-.86,4.56Zm11.28-20.83a6.92,6.92,0,0,0,2.24-.77,16,16,0,0,0,2.52-1.61,14.27,14.27,0,0,0,2.06-1.94,2.93,2.93,0,0,0,.86-1.78,1.11,1.11,0,0,0-.33-.84,2.25,2.25,0,0,0-.94-.48,7.27,7.27,0,0,0-1.32-.22c-.48,0-1,0-1.49,0-.35,0-.71,0-1.08,0s-.69,0-1,0Z"/><path class="cls-12" d="M737.05,522.39a11.65,11.65,0,0,1-2.78,3.76,12.21,12.21,0,0,1-4.13,2.45,14.74,14.74,0,0,1-5.11.87,8,8,0,0,1-3.84-1,12.17,12.17,0,0,1-3.7-3.28l3.56-7a5.43,5.43,0,0,0,1,1.27,7.8,7.8,0,0,0,1.52,1.13,11.56,11.56,0,0,0,1.68.79,4.33,4.33,0,0,0,1.51.31,4,4,0,0,0,1.2-.19,3.89,3.89,0,0,0,1.15-.58A3.08,3.08,0,0,0,730,520a2.13,2.13,0,0,0,.31-1.17,3.52,3.52,0,0,0-.74-2.14,10.86,10.86,0,0,0-1.85-1.87q-1.11-.89-2.4-1.8a23.17,23.17,0,0,1-2.38-1.92,10.53,10.53,0,0,1-1.84-2.26,5.13,5.13,0,0,1-.77-2.78,8,8,0,0,1,1.49-4.66,14.61,14.61,0,0,1,3.72-3.72,19.92,19.92,0,0,1,4.87-2.47,15.5,15.5,0,0,1,5-.91,9.29,9.29,0,0,1,2.45.31,5.28,5.28,0,0,1,2,1,5,5,0,0,1,1.34,1.75,6.09,6.09,0,0,1,.51,2.64,7.7,7.7,0,0,1-.12,1.35c-.08.45-.15.92-.22,1.44l-7,2c.07-.25.12-.51.17-.77a3.91,3.91,0,0,0,.07-.76,3.47,3.47,0,0,0-.5-2.09,1.61,1.61,0,0,0-1.32-.65,2.16,2.16,0,0,0-.94.29,6.43,6.43,0,0,0-1.1.74,4.63,4.63,0,0,0-.94,1.08,2.6,2.6,0,0,0-.38,1.35,2.86,2.86,0,0,0,.65,1.92,8.37,8.37,0,0,0,1.6,1.44c.64.45,1.34.9,2.09,1.36a9,9,0,0,1,3.7,4.56,11.73,11.73,0,0,1,.65,4.2A11.26,11.26,0,0,1,737.05,522.39Z"/><path class="cls-12" d="M755.39,523.63a18.32,18.32,0,0,1-3,3.27,11.12,11.12,0,0,1-3.14,1.94,8.3,8.3,0,0,1-3.07.63,5.51,5.51,0,0,1-2.71-.68,6.08,6.08,0,0,1-2.14-2,11.11,11.11,0,0,1-1.46-3.31,17.11,17.11,0,0,1-.56-4.61,32.55,32.55,0,0,1,1.25-8.91,29,29,0,0,1,3.51-7.89,19.43,19.43,0,0,1,5.35-5.64,11.72,11.72,0,0,1,6.84-2.14,5.3,5.3,0,0,1,2.21.48,5.38,5.38,0,0,1,1.82,1.35,6.4,6.4,0,0,1,1.22,2.11A7.91,7.91,0,0,1,762,501v.6a4.87,4.87,0,0,1,0,.65l-6.29,1.68c-.38-.8-.83-1.2-1.34-1.2a2.35,2.35,0,0,0-1.61.89,12.1,12.1,0,0,0-1.65,2.3,31.18,31.18,0,0,0-1.59,3.17,37,37,0,0,0-1.34,3.53c-.39,1.18-.7,2.31-.94,3.38a12.56,12.56,0,0,0-.36,2.62,4.2,4.2,0,0,0,.41,2.16,1.24,1.24,0,0,0,1.08.62,2.32,2.32,0,0,0,1.2-.41,5.54,5.54,0,0,0,1.25-1,9.19,9.19,0,0,0,1-1.47,5.83,5.83,0,0,0,.68-1.63l5.47,2.21A24.32,24.32,0,0,1,755.39,523.63Z"/><path class="cls-12" d="M783.37,510.82a31.92,31.92,0,0,1-2.23,6.38,26.24,26.24,0,0,1-3.24,5.19,25.3,25.3,0,0,1-3.86,3.88,16.61,16.61,0,0,1-4.08,2.45,10.47,10.47,0,0,1-3.94.84,6.81,6.81,0,0,1-2.88-.6,6.28,6.28,0,0,1-2.25-1.77,8.61,8.61,0,0,1-1.52-3,15.92,15.92,0,0,1-.55-4.44,26.17,26.17,0,0,1,.67-5.66,40.62,40.62,0,0,1,1.83-5.91,32.66,32.66,0,0,1,2.83-5.56,28.23,28.23,0,0,1,3.69-4.68,17.43,17.43,0,0,1,4.33-3.24,10.22,10.22,0,0,1,4.8-1.2,6.61,6.61,0,0,1,3.57.88,6.51,6.51,0,0,1,2.21,2.31,10.58,10.58,0,0,1,1.13,3.19,19.38,19.38,0,0,1,.33,3.55A31.53,31.53,0,0,1,783.37,510.82Zm-17.2,8.76a3.33,3.33,0,0,0,.52,1,3.54,3.54,0,0,0,.84.74,2,2,0,0,0,1.08.31,5.59,5.59,0,0,0,3.84-1.49,12.29,12.29,0,0,0,2.79-3.64,21.51,21.51,0,0,0,1.7-4.61,18.89,18.89,0,0,0,.6-4.47,11.17,11.17,0,0,0-.07-1.24,4.87,4.87,0,0,0-.29-1.25,2.49,2.49,0,0,0-.67-1,1.78,1.78,0,0,0-1.22-.4,5.49,5.49,0,0,0-2.84.76,8.92,8.92,0,0,0-2.32,2,14.32,14.32,0,0,0-1.8,2.88A26,26,0,0,0,767,512.5a19.14,19.14,0,0,0-.8,3.24,18.58,18.58,0,0,0-.24,2.73A3.48,3.48,0,0,0,766.17,519.58Z"/><path class="cls-12" d="M781.19,529.42q1.29-6.39,2.5-12.48.42-2.6,1-5.4c.35-1.87.67-3.73,1-5.57s.59-3.62.86-5.33.49-3.27.65-4.68a34.43,34.43,0,0,1,5.91-1.27,49.41,49.41,0,0,1,6.28-.41,9.69,9.69,0,0,1,3.1.43,4.43,4.43,0,0,1,1.92,1.23,4.59,4.59,0,0,1,1,1.85,8.54,8.54,0,0,1,.29,2.35,10.9,10.9,0,0,1-.67,3.77,15.89,15.89,0,0,1-1.8,3.5,18.21,18.21,0,0,1-2.59,3,14,14,0,0,1-3.15,2.24c.58,1.28,1.19,2.68,1.85,4.2s1.27,3,1.85,4.34q1,2.4,2,4.8l-7.44,2.59c-.64-2.05-1.22-4-1.73-5.76-.23-.73-.45-1.49-.67-2.28s-.44-1.53-.63-2.23-.35-1.34-.48-1.9-.2-1-.24-1.36l-.62.19c-.19,1-.43,2.22-.7,3.6s-.52,2.7-.74,4c-.29,1.51-.58,3-.86,4.56Zm11.28-20.83a6.8,6.8,0,0,0,2.23-.77,16,16,0,0,0,2.52-1.61,14.37,14.37,0,0,0,2.07-1.94,3,3,0,0,0,.86-1.78,1.08,1.08,0,0,0-.34-.84,2.15,2.15,0,0,0-.93-.48,7.27,7.27,0,0,0-1.32-.22c-.48,0-1,0-1.49,0-.35,0-.71,0-1.08,0s-.7,0-1,0Z"/><path class="cls-12" d="M802.69,529.42,809,495.29l15.17-1.3c-.22.71-.42,1.43-.58,2.16s-.31,1.24-.45,1.9-.27,1.24-.36,1.75c-.32,0-.78.06-1.37.07l-1.9.05q-1,0-2,0h-1.8L814,508.54c1-.07,1.92-.11,2.79-.15.7,0,1.42,0,2.16,0s1.28,0,1.63-.05q-.19,1.33-.36,2.64c-.11.86-.25,1.74-.41,2.64-.32,0-.84.06-1.56.07l-2.18.07-2.74.1-1.63,8.83,7-1.1L818.2,527Z"/><path class="cls-12" d="M834.49,528.53c-.85.08-1.72.18-2.61.29l-2.43.31a10.53,10.53,0,0,0-1.17.19c.32-1.37.64-2.9,1-4.58s.68-3.44,1-5.28.69-3.7,1-5.59.62-3.72.91-5.48q1-6.13,2-12.62l7.49-1.2q-1.11,6.44-2.16,12.62-.43,2.64-.89,5.48c-.31,1.88-.61,3.76-.91,5.61s-.59,3.66-.84,5.4-.5,3.32-.72,4.73Q835.76,528.41,834.49,528.53Z"/><path class="cls-12" d="M858,522.39a11.65,11.65,0,0,1-2.78,3.76,12.21,12.21,0,0,1-4.13,2.45,14.74,14.74,0,0,1-5.11.87,8,8,0,0,1-3.84-1,12.17,12.17,0,0,1-3.7-3.28l3.56-7a5.18,5.18,0,0,0,1,1.27,7.8,7.8,0,0,0,1.52,1.13,11.08,11.08,0,0,0,1.68.79,4.33,4.33,0,0,0,1.51.31,4,4,0,0,0,1.2-.19,3.89,3.89,0,0,0,1.15-.58,3.08,3.08,0,0,0,.84-.89,2.13,2.13,0,0,0,.31-1.17,3.52,3.52,0,0,0-.74-2.14,10.86,10.86,0,0,0-1.85-1.87q-1.11-.89-2.4-1.8a23.17,23.17,0,0,1-2.38-1.92,10.53,10.53,0,0,1-1.84-2.26,5.13,5.13,0,0,1-.77-2.78,8,8,0,0,1,1.49-4.66,14.61,14.61,0,0,1,3.72-3.72,19.92,19.92,0,0,1,4.87-2.47,15.5,15.5,0,0,1,5-.91,9.29,9.29,0,0,1,2.45.31,5.28,5.28,0,0,1,2,1A5,5,0,0,1,862,497.4a6.09,6.09,0,0,1,.51,2.64,7.7,7.7,0,0,1-.12,1.35c-.08.45-.15.92-.22,1.44l-7,2c.07-.25.12-.51.17-.77a3.91,3.91,0,0,0,.07-.76,3.47,3.47,0,0,0-.5-2.09,1.61,1.61,0,0,0-1.32-.65,2.16,2.16,0,0,0-.94.29,6.43,6.43,0,0,0-1.1.74,4.63,4.63,0,0,0-.94,1.08,2.51,2.51,0,0,0-.38,1.35A2.86,2.86,0,0,0,851,506a8.37,8.37,0,0,0,1.6,1.44c.64.45,1.34.9,2.09,1.36a9,9,0,0,1,3.7,4.56,11.73,11.73,0,0,1,.65,4.2A11.26,11.26,0,0,1,858,522.39Z"/><path class="cls-12" d="M888.61,521a10.85,10.85,0,0,1-2.21,3,15.31,15.31,0,0,1-3.24,2.4,23.85,23.85,0,0,1-3.89,1.73,27.08,27.08,0,0,1-4.17,1.05,24.75,24.75,0,0,1-4.11.36,17.36,17.36,0,0,1-3.31-.29,157.53,157.53,0,0,0,3.67-16.92q1.38-8.5,2.62-17.16,2.49-.53,5.18-.93a37.44,37.44,0,0,1,5.57-.41,12.39,12.39,0,0,1,2.55.29,6.77,6.77,0,0,1,2.45,1.05,6.51,6.51,0,0,1,1.84,2,6.07,6.07,0,0,1,.75,3.17,9.55,9.55,0,0,1-.6,3.41,12.41,12.41,0,0,1-1.54,2.88A11.07,11.07,0,0,1,888,508.9a9.68,9.68,0,0,1-2.44,1.41,7.14,7.14,0,0,1,1.29,1,8.64,8.64,0,0,1,1.25,1.47,7.49,7.49,0,0,1,.94,2,8.67,8.67,0,0,1,.36,2.59A8.28,8.28,0,0,1,888.61,521Zm-10.54-6.6c-.11.59-.21,1.16-.31,1.7s-.2,1.12-.31,1.71-.23,1.29-.36,2.09c.61-.07,1.3-.18,2.06-.34a9.9,9.9,0,0,0,2.21-.74,5.35,5.35,0,0,0,1.78-1.35,3,3,0,0,0,.72-2,2.24,2.24,0,0,0-.46-1.44,3.88,3.88,0,0,0-1.15-1,5.45,5.45,0,0,0-1.51-.55,7.88,7.88,0,0,0-1.54-.17h-.4a1.64,1.64,0,0,0-.37.05Q878.25,513.49,878.07,514.37ZM880.38,502c-.08.48-.17,1-.27,1.51s-.2,1-.31,1.56-.2,1-.26,1.35a18.09,18.09,0,0,0,2.11-.53,14.22,14.22,0,0,0,1.9-.74,5.28,5.28,0,0,0,1.34-.89,1.42,1.42,0,0,0,.5-1.06A1.61,1.61,0,0,0,885,502a3,3,0,0,0-1.13-.75,6.42,6.42,0,0,0-1.44-.41,9.63,9.63,0,0,0-1.32-.12h-.48Z"/><path class="cls-12" d="M903.3,528.84l-2.59.43c.12-1,.25-2.09.38-3.12s.18-1.79.26-2.68.16-1.67.22-2.31h-4.18l-1.92,6.91c-.7.1-1.53.2-2.49.32l-2.69.31-3,.38c1.28-4.25,2.54-8.45,3.79-12.57l1.61-5.43q.84-2.83,1.68-5.64T896,500c.52-1.73,1-3.31,1.35-4.75q3.26-.24,6.65-.58t6.6-.91c-.1,1-.2,2.3-.32,3.82s-.21,3.17-.31,5-.19,3.66-.28,5.61-.2,3.87-.29,5.76q-.24,6.63-.53,14.07c-1,.16-1.92.28-2.88.38Zm-4.75-12.48.69,0,1.06-.05,1,0a3.66,3.66,0,0,0,.67-.07c0-.19,0-.52.07-1s.1-1,.15-1.59.1-1.24.17-1.94.12-1.39.19-2.07q.2-2.44.48-5.28l.29-4.17-.72.05-1.11,4.12Z"/><path class="cls-12" d="M932.77,510.15a31.76,31.76,0,0,1-2,5.56,30,30,0,0,1-3.2,5.28,23.67,23.67,0,0,1-4.29,4.42,21.25,21.25,0,0,1-5.26,3.05,16,16,0,0,1-6.07,1.15,12.21,12.21,0,0,1-1.35-.07l-1.34-.17q1.29-6.63,2.55-12.91c.31-1.76.65-3.59,1-5.5s.69-3.78,1-5.64.63-3.63.94-5.33.55-3.23.74-4.6c1.38-.26,2.77-.5,4.18-.72a26.61,26.61,0,0,1,4.32-.34,10.49,10.49,0,0,1,4.39.82,7.68,7.68,0,0,1,2.93,2.25,9.43,9.43,0,0,1,1.65,3.36,15.41,15.41,0,0,1,.53,4.08A21.45,21.45,0,0,1,932.77,510.15Zm-11.71-3.63c-.38,1.73-.77,3.47-1.15,5.23s-.77,3.6-1.15,5.52-.76,4-1.11,6.29a10.27,10.27,0,0,0,2.23-2.09,20.1,20.1,0,0,0,2-3,36.22,36.22,0,0,0,1.76-3.65c.52-1.28,1-2.53,1.36-3.75a30.78,30.78,0,0,0,.89-3.4,14.33,14.33,0,0,0,.31-2.74,3.83,3.83,0,0,0-1-2.78,4.15,4.15,0,0,0-3.1-1C921.81,503,921.44,504.79,921.06,506.52Z"/><path class="cls-12" d="M421.54,586.44l-2.6.43.39-3.12c.09-.89.18-1.79.26-2.68s.15-1.67.22-2.31h-4.18l-1.92,6.91c-.7.1-1.53.2-2.49.32l-2.69.31-3,.38c1.28-4.25,2.55-8.45,3.8-12.57q.76-2.6,1.6-5.43l1.68-5.64q.84-2.81,1.61-5.4t1.35-4.75c2.17-.16,4.39-.35,6.64-.58s4.46-.52,6.6-.91c-.09,1-.2,2.3-.31,3.82s-.21,3.17-.31,5-.19,3.66-.29,5.61-.19,3.87-.29,5.76q-.24,6.63-.52,14.07c-1,.16-1.92.28-2.88.38ZM416.78,574l.7,0,1.06-.05,1,0a3.66,3.66,0,0,0,.67-.07c0-.19,0-.52.07-1s.1-1,.15-1.59.1-1.24.16-1.94.13-1.39.2-2.07q.18-2.45.48-5.28l.28-4.17-.72,0-1.1,4.12Z"/><path class="cls-12" d="M431.62,587q1.1-5.28,2.11-10.42c.29-1.44.57-2.94.86-4.51s.57-3.11.84-4.63.51-3,.72-4.42.39-2.73.55-3.91a12.73,12.73,0,0,0-2.23-.1,6.54,6.54,0,0,1-2.23-.28c0-.52.05-1.11.05-1.78s0-1.34,0-2,.06-1.52.09-2.35c.83.07,1.67.11,2.5.15s1.66,0,2.49,0c1.64,0,3.21,0,4.73-.12s2.93-.17,4.23-.28,2.56-.25,3.81-.41l-.53,2.59c-.16.74-.31,1.49-.45,2.26s-.28,1.42-.41,2a13,13,0,0,1-2.14.41c-.72.08-1.43.19-2.13.31q-.34,1.63-.72,3.63c-.26,1.33-.51,2.7-.75,4.13s-.47,2.87-.69,4.34-.45,2.88-.67,4.22q-.78,4.75-1.44,9.84Z"/><path class="cls-12" d="M464.14,585.53c-1.11.06-2.22.16-3.34.29s-2.22.29-3.29.5a23,23,0,0,0-2.9.75c.19-1.44.41-3,.67-4.8s.55-3.59.89-5.48.67-3.79,1-5.71.67-3.76,1-5.52q1.2-6.28,2.54-12.81l8.4-1.11q-1.29,5.57-2.49,10.85c-.36,1.5-.71,3.06-1.06,4.68s-.69,3.19-1,4.73-.61,3-.86,4.46-.47,2.72-.63,3.84c.8-.06,1.66-.1,2.57-.12l2.43,0c0,.61.08,1.21.14,1.8s.14,1.13.22,1.61.14.9.19,1.27.09.61.12.74l-.75,0c-.24,0-.48,0-.74,0C466.29,585.43,465.24,585.47,464.14,585.53Z"/><path class="cls-12" d="M468.91,587l6.29-34.13,15.17-1.3c-.23.71-.42,1.43-.58,2.16s-.31,1.24-.46,1.9-.26,1.24-.36,1.75c-.32,0-.77.06-1.36.07l-1.9,0q-1,0-2,0h-1.8l-1.68,8.59c1-.07,1.92-.11,2.78-.15.71,0,1.43,0,2.17,0s1.27,0,1.63-.05q-.19,1.33-.36,2.64c-.12.86-.25,1.74-.41,2.64-.32,0-.84.05-1.56.07l-2.19.07-2.73.1-1.63,8.83,7-1.1-.48,5.47Z"/><path class="cls-12" d="M499.92,586.44l-2.59.43c.12-1,.25-2.09.38-3.12s.18-1.79.26-2.68.16-1.67.22-2.31H494l-1.92,6.91c-.7.1-1.53.2-2.49.32l-2.69.31-3,.38c1.28-4.25,2.54-8.45,3.79-12.57l1.61-5.43c.55-1.89,1.12-3.77,1.68-5.64s1.09-3.67,1.6-5.4,1-3.31,1.35-4.75q3.25-.24,6.65-.58t6.6-.91c-.1,1-.2,2.3-.32,3.82s-.21,3.17-.31,5-.19,3.66-.29,5.61-.19,3.87-.28,5.76q-.25,6.63-.53,14.07c-1,.16-1.92.28-2.88.38ZM495.17,574l.69,0,1.06-.05,1,0a3.66,3.66,0,0,0,.67-.07c0-.19,0-.52.07-1s.1-1,.15-1.59.1-1.24.17-1.94.12-1.39.19-2.07q.19-2.45.48-5.28l.29-4.17-.72,0-1.11,4.12Z"/><path class="cls-12" d="M525.91,580a12,12,0,0,1-2.78,3.76A12.3,12.3,0,0,1,519,586.2a14.78,14.78,0,0,1-5.11.87,8,8,0,0,1-3.84-1,12.05,12.05,0,0,1-3.7-3.28l3.55-7a5.5,5.5,0,0,0,1,1.27,7.73,7.73,0,0,0,1.51,1.13,11.56,11.56,0,0,0,1.68.79,4.37,4.37,0,0,0,1.51.31,4.11,4.11,0,0,0,2.36-.77,3.08,3.08,0,0,0,.84-.89,2.22,2.22,0,0,0,.31-1.17,3.47,3.47,0,0,0-.75-2.14,10.79,10.79,0,0,0-1.84-1.87q-1.11-.88-2.4-1.8a22.14,22.14,0,0,1-2.38-1.92,10.57,10.57,0,0,1-1.85-2.26,5.22,5.22,0,0,1-.77-2.78,8.09,8.09,0,0,1,1.49-4.66,14.61,14.61,0,0,1,3.72-3.72,19.75,19.75,0,0,1,4.87-2.47,15.29,15.29,0,0,1,5-.91,9.16,9.16,0,0,1,2.44.31,5.32,5.32,0,0,1,2,1A5.11,5.11,0,0,1,530,555a6.1,6.1,0,0,1,.5,2.64,7.7,7.7,0,0,1-.12,1.35q-.12.66-.21,1.44l-7,2c.06-.25.12-.51.17-.77a4.88,4.88,0,0,0,.07-.76,3.4,3.4,0,0,0-.51-2.09,1.58,1.58,0,0,0-1.32-.65,2.16,2.16,0,0,0-.93.29,6.49,6.49,0,0,0-1.11.74,4.58,4.58,0,0,0-.93,1.08,2.52,2.52,0,0,0-.39,1.35,2.92,2.92,0,0,0,.65,1.92,8.44,8.44,0,0,0,1.61,1.44c.64.44,1.34.9,2.09,1.36a8.94,8.94,0,0,1,3.69,4.56,11.51,11.51,0,0,1,.65,4.2A11.26,11.26,0,0,1,525.91,580Z"/><path class="cls-12" d="M530.64,587q1.1-5.28,2.11-10.42c.29-1.44.58-2.94.86-4.51s.57-3.11.84-4.63.52-3,.72-4.42.39-2.73.56-3.91a12.84,12.84,0,0,0-2.24-.1,6.54,6.54,0,0,1-2.23-.28c0-.52,0-1.11,0-1.78s0-1.34.05-2,.06-1.52.09-2.35c.84.07,1.67.11,2.5.15s1.66,0,2.5,0c1.63,0,3.2,0,4.72-.12s2.93-.17,4.23-.28,2.57-.25,3.81-.41l-.52,2.59c-.17.74-.32,1.49-.46,2.26s-.28,1.42-.41,2a12.92,12.92,0,0,1-2.13.41c-.72.08-1.44.19-2.14.31q-.33,1.63-.72,3.63c-.26,1.33-.5,2.7-.74,4.13s-.48,2.87-.7,4.34-.45,2.88-.67,4.22q-.76,4.75-1.44,9.84Z"/><path class="cls-12" d="M573.29,580a11.83,11.83,0,0,1-2.79,3.76,12.21,12.21,0,0,1-4.13,2.45,14.7,14.7,0,0,1-5.11.87,8,8,0,0,1-3.84-1,12.17,12.17,0,0,1-3.7-3.28l3.56-7a5.24,5.24,0,0,0,1,1.27,7.44,7.44,0,0,0,1.51,1.13,11.56,11.56,0,0,0,1.68.79,4.33,4.33,0,0,0,1.51.31,4,4,0,0,0,1.2-.19,3.89,3.89,0,0,0,1.15-.58,3.08,3.08,0,0,0,.84-.89,2.13,2.13,0,0,0,.31-1.17,3.52,3.52,0,0,0-.74-2.14,10.86,10.86,0,0,0-1.85-1.87q-1.11-.88-2.4-1.8a22,22,0,0,1-2.37-1.92,10.28,10.28,0,0,1-1.85-2.26,5.13,5.13,0,0,1-.77-2.78A8.09,8.09,0,0,1,558,559a14.61,14.61,0,0,1,3.72-3.72,19.75,19.75,0,0,1,4.87-2.47,15.23,15.23,0,0,1,5-.91,9.29,9.29,0,0,1,2.45.31,5.28,5.28,0,0,1,2,1,5,5,0,0,1,1.34,1.75,6.09,6.09,0,0,1,.51,2.64,7.7,7.7,0,0,1-.12,1.35c-.08.44-.15.92-.22,1.44l-7,2c.07-.25.12-.51.17-.77a3.91,3.91,0,0,0,.07-.76,3.47,3.47,0,0,0-.5-2.09,1.61,1.61,0,0,0-1.32-.65,2.16,2.16,0,0,0-.94.29,6.43,6.43,0,0,0-1.1.74,4.63,4.63,0,0,0-.94,1.08,2.6,2.6,0,0,0-.38,1.35,2.86,2.86,0,0,0,.65,1.92,8.15,8.15,0,0,0,1.61,1.44c.63.44,1.33.9,2.08,1.36a9,9,0,0,1,3.7,4.56,11.73,11.73,0,0,1,.65,4.2A11.4,11.4,0,0,1,573.29,580Z"/><path class="cls-12" d="M578,587q1.11-5.28,2.11-10.42c.29-1.44.58-2.94.87-4.51s.57-3.11.84-4.63.51-3,.72-4.42.39-2.73.55-3.91a12.77,12.77,0,0,0-2.23-.1,6.51,6.51,0,0,1-2.23-.28c0-.52,0-1.11,0-1.78s0-1.34.05-2,.07-1.52.1-2.35c.83.07,1.66.11,2.49.15s1.67,0,2.5,0c1.63,0,3.21,0,4.73-.12s2.93-.17,4.22-.28,2.57-.25,3.82-.41l-.53,2.59c-.16.74-.31,1.49-.46,2.26s-.28,1.42-.4,2a13.24,13.24,0,0,1-2.14.41c-.72.08-1.43.19-2.13.31-.23,1.09-.47,2.3-.73,3.63s-.5,2.7-.74,4.13-.47,2.87-.7,4.34-.44,2.88-.67,4.22q-.76,4.75-1.44,9.84Z"/><path class="cls-12" d="M597.52,586.13c-.84.08-1.72.18-2.61.29l-2.43.31a10.53,10.53,0,0,0-1.17.19c.32-1.37.65-2.9,1-4.58s.68-3.44,1-5.28.69-3.71,1-5.59.63-3.72.91-5.48q1-6.13,2-12.62l7.49-1.2q-1.11,6.44-2.16,12.62-.44,2.64-.89,5.48c-.3,1.88-.61,3.76-.91,5.61s-.59,3.66-.84,5.4-.5,3.32-.72,4.73Q598.8,586,597.52,586.13Z"/><path class="cls-12" d="M610.87,585.53c-1.11.06-2.22.16-3.34.29s-2.21.29-3.28.5a23.15,23.15,0,0,0-2.91.75c.19-1.44.42-3,.67-4.8s.55-3.59.89-5.48.67-3.79,1-5.71.68-3.76,1-5.52q1.2-6.28,2.54-12.81l8.41-1.11q-1.3,5.57-2.5,10.85c-.35,1.5-.71,3.06-1.06,4.68s-.69,3.19-1,4.73-.6,3-.86,4.46-.46,2.72-.62,3.84c.8-.06,1.65-.1,2.56-.12l2.43,0c0,.61.08,1.21.14,1.8s.14,1.13.22,1.61.14.9.19,1.27.09.61.12.74l-.74,0q-.36,0-.75,0C613,585.43,612,585.47,610.87,585.53Z"/><path class="cls-12" d="M625.36,585.53c-1.1.06-2.21.16-3.33.29s-2.22.29-3.29.5a23,23,0,0,0-2.9.75c.19-1.44.41-3,.67-4.8s.55-3.59.89-5.48.67-3.79,1-5.71.68-3.76,1-5.52q1.2-6.28,2.54-12.81l8.4-1.11q-1.29,5.57-2.5,10.85-.52,2.25-1,4.68c-.35,1.62-.69,3.19-1,4.73s-.61,3-.86,4.46-.47,2.72-.63,3.84c.8-.06,1.66-.1,2.57-.12l2.42,0c0,.61.08,1.21.15,1.8s.13,1.13.21,1.61.15.9.2,1.27a4.61,4.61,0,0,0,.12.74l-.75,0c-.24,0-.49,0-.74,0C627.52,585.43,626.47,585.47,625.36,585.53Z"/><path class="cls-12" d="M663.31,577.2a22,22,0,0,1-3.82,6.07,15.24,15.24,0,0,1-4.8,3.65,11.53,11.53,0,0,1-4.87,1.2,7.68,7.68,0,0,1-3.39-.77,7.48,7.48,0,0,1-2.78-2.32,12,12,0,0,1-1.85-3.92,20,20,0,0,1-.67-5.52,29.89,29.89,0,0,1,1.78-10.8,25.25,25.25,0,0,1,4.48-7.68,18.84,18.84,0,0,1,5.81-4.56,13.46,13.46,0,0,1,5.79-1.48,7.64,7.64,0,0,1,3.33.67,6.57,6.57,0,0,1,2.33,1.8,7,7,0,0,1,1.32,2.64,12.28,12.28,0,0,1,.41,3.19l-6.58,1.25a6.37,6.37,0,0,0-1.15-2.74,2.14,2.14,0,0,0-1.63-.81,3.82,3.82,0,0,0-2.64,1.7,19.6,19.6,0,0,0-2.69,4.39,35.91,35.91,0,0,0-2.11,5.91,27.14,27.14,0,0,0-1,6.33,7.59,7.59,0,0,0,.89,4.25,2.67,2.67,0,0,0,2.28,1.27,4.71,4.71,0,0,0,2-.48,5.79,5.79,0,0,0,1.85-1.37A8,8,0,0,0,657,577a6.42,6.42,0,0,0,.6-2.57l-5.13.77.91-4.75,4.42-.58c1.21-.16,2.5-.35,3.86-.57l3.58-.63A25.81,25.81,0,0,1,663.31,577.2Z"/><path class="cls-12" d="M689.11,568.42a31.93,31.93,0,0,1-2.24,6.38,25.54,25.54,0,0,1-7.1,9.07,16.25,16.25,0,0,1-4.08,2.45,10.46,10.46,0,0,1-3.93.84,6.83,6.83,0,0,1-2.89-.6,6.36,6.36,0,0,1-2.25-1.77,8.6,8.6,0,0,1-1.51-3,15.53,15.53,0,0,1-.56-4.44,25.6,25.6,0,0,1,.68-5.66,39.37,39.37,0,0,1,1.82-5.91,32.66,32.66,0,0,1,2.83-5.56,27.76,27.76,0,0,1,3.7-4.68,17.21,17.21,0,0,1,4.32-3.24,10.22,10.22,0,0,1,4.8-1.2,6.61,6.61,0,0,1,3.57.88,6.35,6.35,0,0,1,2.21,2.31,10.32,10.32,0,0,1,1.13,3.19A19.4,19.4,0,0,1,690,561,31.53,31.53,0,0,1,689.11,568.42Zm-17.21,8.76a3.35,3.35,0,0,0,.53,1,3.19,3.19,0,0,0,.84.74,2,2,0,0,0,1.08.31,5.59,5.59,0,0,0,3.84-1.49,12.26,12.26,0,0,0,2.78-3.64,21.53,21.53,0,0,0,1.71-4.61,19.37,19.37,0,0,0,.59-4.47,11,11,0,0,0-.07-1.24,4.87,4.87,0,0,0-.29-1.25,2.39,2.39,0,0,0-.67-1,1.76,1.76,0,0,0-1.22-.4,5.43,5.43,0,0,0-2.83.76,9,9,0,0,0-2.33,2,14.32,14.32,0,0,0-1.8,2.88,29.41,29.41,0,0,0-1.32,3.27,19.08,19.08,0,0,0-.79,3.24,18.58,18.58,0,0,0-.24,2.73A3.45,3.45,0,0,0,671.9,577.18Z"/><path class="cls-12" d="M691.05,587q1.11-5.28,2.11-10.42c.29-1.44.58-2.94.87-4.51s.56-3.11.84-4.63.51-3,.72-4.42.39-2.73.55-3.91a12.77,12.77,0,0,0-2.23-.1,6.48,6.48,0,0,1-2.23-.28c0-.52,0-1.11,0-1.78s0-1.34,0-2,.06-1.52.1-2.35c.83.07,1.66.11,2.49.15s1.67,0,2.5,0c1.63,0,3.21,0,4.73-.12s2.92-.17,4.22-.28,2.57-.25,3.82-.41l-.53,2.59c-.16.74-.31,1.49-.46,2.26s-.28,1.42-.41,2a12.92,12.92,0,0,1-2.13.41c-.72.08-1.43.19-2.14.31q-.33,1.63-.72,3.63c-.25,1.33-.5,2.7-.74,4.13s-.47,2.87-.7,4.34-.45,2.88-.67,4.22q-.76,4.75-1.44,9.84Z"/><path class="cls-12" d="M733.7,580a11.83,11.83,0,0,1-2.79,3.76,12.16,12.16,0,0,1-4.12,2.45,14.8,14.8,0,0,1-5.12.87,8,8,0,0,1-3.84-1,12,12,0,0,1-3.69-3.28l3.55-7a5.24,5.24,0,0,0,1,1.27,7.73,7.73,0,0,0,1.51,1.13,11.56,11.56,0,0,0,1.68.79,4.33,4.33,0,0,0,1.51.31,4,4,0,0,0,1.2-.19,3.77,3.77,0,0,0,1.15-.58,2.83,2.83,0,0,0,.84-.89,2.14,2.14,0,0,0,.32-1.17,3.47,3.47,0,0,0-.75-2.14,10.51,10.51,0,0,0-1.85-1.87q-1.09-.88-2.4-1.8a23,23,0,0,1-2.37-1.92,10.57,10.57,0,0,1-1.85-2.26,5.22,5.22,0,0,1-.77-2.78,8.09,8.09,0,0,1,1.49-4.66,14.61,14.61,0,0,1,3.72-3.72,19.75,19.75,0,0,1,4.87-2.47,15.27,15.27,0,0,1,5-.91,9.24,9.24,0,0,1,2.45.31,5.28,5.28,0,0,1,2,1,5.13,5.13,0,0,1,1.35,1.75,6.25,6.25,0,0,1,.5,2.64,7.7,7.7,0,0,1-.12,1.35q-.12.66-.21,1.44l-7,2c.06-.25.12-.51.16-.77a3.92,3.92,0,0,0,.08-.76,3.4,3.4,0,0,0-.51-2.09,1.58,1.58,0,0,0-1.32-.65,2.12,2.12,0,0,0-.93.29,6.49,6.49,0,0,0-1.11.74,4.36,4.36,0,0,0-.93,1.08,2.52,2.52,0,0,0-.39,1.35,2.92,2.92,0,0,0,.65,1.92A8.44,8.44,0,0,0,728.3,565c.64.44,1.33.9,2.09,1.36a9.07,9.07,0,0,1,3.69,4.56,11.73,11.73,0,0,1,.65,4.2A11.26,11.26,0,0,1,733.7,580Z"/><path class="cls-12" d="M760.15,568.42a31.93,31.93,0,0,1-2.24,6.38,25.84,25.84,0,0,1-7.1,9.07,16.43,16.43,0,0,1-4.08,2.45,10.47,10.47,0,0,1-3.94.84,6.81,6.81,0,0,1-2.88-.6,6.36,6.36,0,0,1-2.25-1.77,8.6,8.6,0,0,1-1.51-3,15.53,15.53,0,0,1-.56-4.44,25.6,25.6,0,0,1,.68-5.66,39.37,39.37,0,0,1,1.82-5.91,32.66,32.66,0,0,1,2.83-5.56,27.76,27.76,0,0,1,3.7-4.68,17.21,17.21,0,0,1,4.32-3.24,10.22,10.22,0,0,1,4.8-1.2,6.61,6.61,0,0,1,3.57.88,6.35,6.35,0,0,1,2.21,2.31,10.32,10.32,0,0,1,1.13,3.19A19.4,19.4,0,0,1,761,561,31.53,31.53,0,0,1,760.15,568.42Zm-17.21,8.76a3.35,3.35,0,0,0,.53,1,3.19,3.19,0,0,0,.84.74,2,2,0,0,0,1.08.31,5.61,5.61,0,0,0,3.84-1.49,12.26,12.26,0,0,0,2.78-3.64,21,21,0,0,0,1.7-4.61,18.89,18.89,0,0,0,.6-4.47,11,11,0,0,0-.07-1.24,4.87,4.87,0,0,0-.29-1.25,2.39,2.39,0,0,0-.67-1,1.76,1.76,0,0,0-1.22-.4,5.43,5.43,0,0,0-2.83.76,9,9,0,0,0-2.33,2,14.32,14.32,0,0,0-1.8,2.88,27.6,27.6,0,0,0-1.32,3.27,19.08,19.08,0,0,0-.79,3.24,18.58,18.58,0,0,0-.24,2.73A3.45,3.45,0,0,0,742.94,577.18Z"/><path class="cls-12" d="M756.33,586.68q2.11-6.37,4-12.53.82-2.58,1.68-5.42c.58-1.89,1.15-3.76,1.73-5.62s1.11-3.64,1.61-5.37.93-3.33,1.32-4.8a41.5,41.5,0,0,0,5-.29c1.57-.19,3.26-.37,5.09-.53-.1.71-.2,1.5-.31,2.38s-.24,1.8-.39,2.76-.29,2-.45,3-.36,2.34-.58,3.94-.53,3.6-.91,6h.62c.93-2.43,1.7-4.46,2.31-6.07s1.1-2.94,1.48-4,.78-2,1.18-3,.78-1.91,1.15-2.79.71-1.65,1-2.32c.8-.07,1.56-.15,2.26-.24s1.41-.2,2.11-.32l2.14-.33c.72-.11,1.51-.25,2.37-.41q-.48,2.79-.91,5.71c-.29,1.95-.54,3.9-.77,5.83s-.44,3.85-.64,5.74-.4,3.68-.56,5.38c-.38,4-.72,7.84-1,11.61l-8.36,1.49c0-.16,0-.59.08-1.3s.11-1.56.19-2.59.19-2.16.33-3.41.29-2.49.44-3.74.29-2.46.45-3.62.32-2.17.48-3h-.43c-.45,1.34-.94,2.76-1.49,4.24L777,577.61c-.56,1.54-1.12,3-1.66,4.51s-1,2.88-1.44,4.23q-1.68,0-2.88.12l-2.78.16,1.53-17.8H769a21.09,21.09,0,0,1-.48,2.08c-.26,1-.55,2.1-.89,3.36s-.69,2.58-1.08,3.94-.74,2.62-1.08,3.79-.61,2.13-.84,2.88-.35,1.18-.38,1.27Z"/><path class="cls-12" d="M787.86,587l6.29-34.13,15.17-1.3c-.22.71-.42,1.43-.58,2.16s-.31,1.24-.45,1.9-.27,1.24-.36,1.75c-.32,0-.78.06-1.37.07l-1.9,0q-1,0-2,0h-1.8l-1.68,8.59c1-.07,1.92-.11,2.79-.15.7,0,1.42,0,2.16,0s1.28,0,1.63-.05q-.19,1.33-.36,2.64c-.11.86-.25,1.74-.41,2.64-.32,0-.84.05-1.56.07l-2.18.07-2.74.1-1.63,8.83,7-1.1-.48,5.47Z"/><path class="cls-12" d="M813.59,587.07q1.35-6.72,2.59-13.11.48-2.73,1-5.69c.35-2,.68-3.91,1-5.83s.59-3.78.86-5.59.49-3.45.65-4.92q1.09,0,2,.12l1.85.12c.6,0,1.22.06,1.84.07s1.31,0,2,0c-.54,2.27-1.08,4.54-1.6,6.81s-1,4.56-1.47,6.87l4.75-.53q.68-3.4,1.2-6.6c.36-2.13.82-4.33,1.4-6.6.73-.13,1.55-.23,2.44-.31l2.5-.22,2.74-.24c-.45,1.44-.88,3-1.28,4.73s-.79,3.49-1.17,5.33-.75,3.7-1.11,5.59-.67,3.68-1,5.37q-1,6.1-2,12.48l-7.49.87q.62-2.88,1.1-5.62.48-2.3,1-4.8c.33-1.66.6-3.09.79-4.27l-4.66.43c-.22,1.22-.49,2.63-.79,4.23s-.58,3.12-.84,4.56q-.52,2.58-1.06,5.18Z"/><path class="cls-12" d="M834.76,587l6.29-34.13,15.17-1.3c-.23.71-.42,1.43-.58,2.16s-.31,1.24-.46,1.9-.26,1.24-.36,1.75c-.32,0-.77.06-1.36.07l-1.9,0q-1,0-2,0h-1.8L846,566.14c1-.07,1.92-.11,2.78-.15.71,0,1.43,0,2.16,0s1.28,0,1.64-.05q-.2,1.33-.36,2.64c-.12.86-.25,1.74-.41,2.64-.32,0-.84.05-1.56.07l-2.19.07-2.73.1-1.63,8.83,7-1.1-.48,5.47Z"/><path class="cls-12" d="M865.77,586.44l-2.59.43c.12-1,.25-2.09.38-3.12s.18-1.79.26-2.68.15-1.67.22-2.31h-4.18l-1.92,6.91c-.7.1-1.53.2-2.49.32l-2.69.31-3,.38c1.27-4.25,2.54-8.45,3.79-12.57l1.61-5.43c.55-1.89,1.12-3.77,1.68-5.64s1.09-3.67,1.6-5.4,1-3.31,1.35-4.75q3.26-.24,6.65-.58t6.6-.91c-.1,1-.21,2.3-.32,3.82s-.21,3.17-.31,5-.19,3.66-.29,5.61-.19,3.87-.28,5.76q-.26,6.63-.53,14.07c-1,.16-1.92.28-2.88.38ZM861,574l.69,0,1.06-.05,1,0a3.66,3.66,0,0,0,.67-.07c0-.19,0-.52.07-1s.1-1,.15-1.59.1-1.24.17-1.94.12-1.39.19-2.07q.19-2.45.48-5.28l.29-4.17-.73,0-1.1,4.12Z"/><path class="cls-12" d="M871.72,587q1.29-6.39,2.5-12.48.42-2.6,1-5.4c.35-1.87.67-3.73,1-5.57s.59-3.62.86-5.33.49-3.27.65-4.68a34.31,34.31,0,0,1,5.9-1.27,49.68,49.68,0,0,1,6.29-.41,9.69,9.69,0,0,1,3.1.43,4.3,4.3,0,0,1,2.9,3.08,9,9,0,0,1,.29,2.35,10.94,10.94,0,0,1-.67,3.77,15.89,15.89,0,0,1-1.8,3.5,18.21,18.21,0,0,1-2.59,3,14,14,0,0,1-3.15,2.24c.58,1.28,1.19,2.68,1.85,4.2s1.27,3,1.85,4.34c.64,1.6,1.29,3.2,2,4.8l-7.44,2.59q-1-3.08-1.73-5.76c-.23-.73-.45-1.49-.67-2.28s-.44-1.53-.63-2.23-.35-1.34-.48-1.9a10.12,10.12,0,0,1-.24-1.36l-.62.19c-.19,1-.43,2.22-.7,3.6s-.52,2.7-.74,4q-.43,2.26-.87,4.56ZM883,566.19a6.8,6.8,0,0,0,2.23-.77,16,16,0,0,0,2.52-1.61,13.77,13.77,0,0,0,2.06-1.94,3,3,0,0,0,.87-1.78,1.08,1.08,0,0,0-.34-.84,2.15,2.15,0,0,0-.93-.48,7.27,7.27,0,0,0-1.32-.22c-.48,0-1,0-1.49,0-.35,0-.71,0-1.08,0s-.7,0-1,0Z"/><path class="cls-12" d="M897.16,587q1.1-5.28,2.11-10.42c.29-1.44.58-2.94.86-4.51s.57-3.11.84-4.63.52-3,.72-4.42.4-2.73.56-3.91A12.84,12.84,0,0,0,900,559a6.54,6.54,0,0,1-2.23-.28c0-.52.05-1.11.05-1.78s0-1.34,0-2,.06-1.52.09-2.35c.84.07,1.67.11,2.5.15s1.66,0,2.5,0c1.63,0,3.2,0,4.72-.12s2.93-.17,4.23-.28,2.57-.25,3.81-.41l-.52,2.59c-.16.74-.32,1.49-.46,2.26s-.28,1.42-.41,2a12.92,12.92,0,0,1-2.13.41c-.72.08-1.44.19-2.14.31q-.33,1.63-.72,3.63c-.26,1.33-.5,2.7-.74,4.13s-.48,2.87-.7,4.34-.45,2.88-.67,4.22q-.76,4.75-1.44,9.84Z"/><path class="cls-12" d="M930.45,580a11.83,11.83,0,0,1-2.79,3.76,12.21,12.21,0,0,1-4.13,2.45,14.7,14.7,0,0,1-5.11.87,8,8,0,0,1-3.84-1,12,12,0,0,1-3.69-3.28l3.55-7a5.24,5.24,0,0,0,1,1.27,7.44,7.44,0,0,0,1.51,1.13,11.56,11.56,0,0,0,1.68.79,4.33,4.33,0,0,0,1.51.31,4,4,0,0,0,1.2-.19,3.77,3.77,0,0,0,1.15-.58,3.08,3.08,0,0,0,.84-.89,2.13,2.13,0,0,0,.31-1.17,3.46,3.46,0,0,0-.74-2.14,10.86,10.86,0,0,0-1.85-1.87q-1.09-.88-2.4-1.8a23,23,0,0,1-2.37-1.92,10.57,10.57,0,0,1-1.85-2.26,5.22,5.22,0,0,1-.77-2.78,8.09,8.09,0,0,1,1.49-4.66,14.61,14.61,0,0,1,3.72-3.72,19.75,19.75,0,0,1,4.87-2.47,15.23,15.23,0,0,1,5-.91,9.24,9.24,0,0,1,2.45.31,5.28,5.28,0,0,1,2,1,5.13,5.13,0,0,1,1.35,1.75,6.25,6.25,0,0,1,.5,2.64,7.7,7.7,0,0,1-.12,1.35c-.08.44-.15.92-.22,1.44l-7,2c.07-.25.12-.51.17-.77a3.91,3.91,0,0,0,.07-.76,3.4,3.4,0,0,0-.5-2.09,1.61,1.61,0,0,0-1.32-.65,2.16,2.16,0,0,0-.94.29,6.84,6.84,0,0,0-1.1.74,4.63,4.63,0,0,0-.94,1.08,2.6,2.6,0,0,0-.38,1.35,2.92,2.92,0,0,0,.65,1.92,8.44,8.44,0,0,0,1.61,1.44c.64.44,1.33.9,2.08,1.36a9.26,9.26,0,0,1,2.09,1.8,9.43,9.43,0,0,1,1.61,2.76,11.73,11.73,0,0,1,.65,4.2A11.4,11.4,0,0,1,930.45,580Z"/><path class="cls-12" d="M950.32,585.53c-1.11.06-2.22.16-3.34.29s-2.21.29-3.29.5a23,23,0,0,0-2.9.75c.19-1.44.42-3,.67-4.8s.55-3.59.89-5.48.67-3.79,1-5.71.68-3.76,1-5.52q1.2-6.28,2.54-12.81l8.4-1.11q-1.29,5.57-2.49,10.85c-.35,1.5-.71,3.06-1.06,4.68s-.69,3.19-1,4.73-.6,3-.86,4.46-.46,2.72-.62,3.84c.8-.06,1.65-.1,2.56-.12l2.43,0c0,.61.08,1.21.14,1.8s.14,1.13.22,1.61.14.9.19,1.27.09.61.12.74l-.74,0q-.36,0-.75,0C952.47,585.43,951.42,585.47,950.32,585.53Z"/><path class="cls-12" d="M955.09,587l6.29-34.13,15.17-1.3c-.22.71-.42,1.43-.58,2.16s-.31,1.24-.45,1.9-.27,1.24-.36,1.75c-.32,0-.78.06-1.37.07l-1.9,0q-1,0-2,0h-1.8l-1.68,8.59c1-.07,1.92-.11,2.79-.15.7,0,1.42,0,2.16,0s1.28,0,1.63-.05q-.19,1.33-.36,2.64c-.11.86-.25,1.74-.41,2.64-.32,0-.84.05-1.56.07l-2.18.07-2.74.1-1.63,8.83,7-1.1-.48,5.47Z"/><path class="cls-12" d="M974.05,586.39l-2.78.63c.38-1.38.76-2.92,1.13-4.63s.73-3.52,1.1-5.4.72-3.8,1.06-5.74.66-3.8,1-5.59q1-6.39,2-13.2l16.08-.82-1.4,5.91h-7.53l-1.49,8.54c1,0,1.94-.05,2.83-.05h2.26c.77,0,1.36,0,1.77,0q-.14,1.35-.36,2.64c-.14.87-.28,1.73-.4,2.6l-1.78,0c-.77,0-1.56,0-2.38-.07l-2.76-.1-2.2,14.16c-1.09.2-2.16.4-3.22.63C976.08,586,975.11,586.17,974.05,586.39Z"/><path class="cls-12" d="M991.76,587q1.11-5.28,2.12-10.42c.28-1.44.57-2.94.86-4.51s.57-3.11.84-4.63.51-3,.72-4.42.39-2.73.55-3.91a12.73,12.73,0,0,0-2.23-.1,6.51,6.51,0,0,1-2.23-.28c0-.52.05-1.11.05-1.78s0-1.34,0-2,.07-1.52.1-2.35c.83.07,1.66.11,2.5.15s1.66,0,2.49,0c1.63,0,3.21,0,4.73-.12s2.93-.17,4.22-.28,2.57-.25,3.82-.41l-.53,2.59c-.16.74-.31,1.49-.45,2.26s-.28,1.42-.41,2a13.24,13.24,0,0,1-2.14.41c-.72.08-1.43.19-2.13.31q-.34,1.63-.72,3.63c-.26,1.33-.51,2.7-.75,4.13s-.47,2.87-.69,4.34-.45,2.88-.68,4.22q-.76,4.75-1.44,9.84Z"/></g><g id="logo-extended"><g id="like_ig" data-name="like ig"><path class="cls-13" d="M1123,578.44l-20.33-5.56a3.68,3.68,0,0,1-2.24-1.75,3.57,3.57,0,0,1-.28-2.79l13.16-43.14a4,4,0,0,1,3.79-2.76,3.83,3.83,0,0,1,1,.13l63.28,17.3a3.64,3.64,0,0,1,2.23,1.75,3.53,3.53,0,0,1,.29,2.79l-13.16,43.14a4,4,0,0,1-3.79,2.76h0a3.83,3.83,0,0,1-1-.13l-20.29-5.55-17.24,16.26Z"/><path d="M1117.07,523.94a2.49,2.49,0,0,1,.61.08l63.28,17.3a2.14,2.14,0,0,1,1.32,1,2.12,2.12,0,0,1,.17,1.62l-13.17,43.14a2.48,2.48,0,0,1-2.35,1.7,2.15,2.15,0,0,1-.62-.08l-19.47-5.32-1.63-.45-1.22,1.16L1129.25,598l-4.61-19.08-.42-1.72-1.71-.46L1103,571.43a2.08,2.08,0,0,1-1.32-1,2,2,0,0,1-.17-1.62l13.17-43.14a2.47,2.47,0,0,1,2.35-1.7m0-3a5.48,5.48,0,0,0-5.22,3.82l-13.17,43.15a5.11,5.11,0,0,0,3.57,6.42l19.47,5.32,5.82,24.1,18.51-17.45,19.47,5.32a5.26,5.26,0,0,0,1.41.19,5.48,5.48,0,0,0,5.22-3.82l13.16-43.15a5.09,5.09,0,0,0-3.56-6.42l-63.27-17.29a5.31,5.31,0,0,0-1.41-.19Z"/><path class="cls-14" d="M1136.83,573.24s16.85-5.31,22.64-10.85l1.29-1.25a11,11,0,0,0,2.36-4.16,10.68,10.68,0,0,0-7.5-13.47,11.52,11.52,0,0,0-10.46,2.36,10.72,10.72,0,0,0-7.52-7.28,11.46,11.46,0,0,0-13.92,7.62,10.55,10.55,0,0,0-.35,4.71l.39,1.7c1.78,7.62,13,20.61,13,20.61Z"/></g></g><path class="cls-13" d="M1058.68,579.66,1037,583.91a4.08,4.08,0,0,1-4.76-3.22l-9.21-47a4.08,4.08,0,0,1,3.19-4.78l67.61-13.26a3.94,3.94,0,0,1,.77-.08,4.09,4.09,0,0,1,4,3.3l9.21,47a4.07,4.07,0,0,1-3.19,4.78L1083,574.89l-8,23.52Z"/><path d="M1094.62,517.12a2.58,2.58,0,0,1,2.52,2.08l9.21,46.95a2.58,2.58,0,0,1-2,3l-20.81,4.08-1.7.34-.56,1.64-6.88,20.22-14-16.12-1.14-1.31-1.7.33-20.81,4.08a2,2,0,0,1-.48.05,2.58,2.58,0,0,1-2.52-2.08l-9.21-47a2.59,2.59,0,0,1,.39-1.93,2.52,2.52,0,0,1,1.62-1.08l67.61-13.27a2.59,2.59,0,0,1,.48,0m0-3a5.51,5.51,0,0,0-1.06.1L1026,527.48a5.58,5.58,0,0,0-4.37,6.54l9.21,47a5.59,5.59,0,0,0,5.46,4.5,5.51,5.51,0,0,0,1.06-.1l20.81-4.08,17.43,20.06,8.56-25.16,20.81-4.09a5.58,5.58,0,0,0,4.37-6.54l-9.21-47a5.59,5.59,0,0,0-5.46-4.5Z"/><text/><text class="cls-15" transform="translate(1050.09 565.32) rotate(-11.1) scale(2.34 1)">?</text></svg>