<svg id="Layer_1" data-name="Layer 1" xmlns="http://www.w3.org/2000/svg" width="90" height="90" viewBox="0 0 90 90">
  <defs>
    <style>
      .cls-1 {
        fill: #fff;
      }

      .cls-2 {
        fill: #e6e6e6;
        stroke: #000;
        stroke-miterlimit: 10;
        stroke-width: 2px;
      }
    </style>
  </defs>
  <g id="like_ig" data-name="like ig">
    <g>
      <path class="cls-1" d="M33.73,55.89,11.15,56A3,3,0,0,1,8.1,53.06L7.9,6.49a3,3,0,0,1,3-2.94l68.73-.27a3,3,0,0,1,3,2.91l.19,46.58a2.84,2.84,0,0,1-.86,2,3.1,3.1,0,0,1-2.16.89L57.3,55.8l-11.7,20Z"/>
      <path d="M79.68,5.78h0a.5.5,0,0,1,.53.42l.19,46.58a.33.33,0,0,1-.12.26.56.56,0,0,1-.41.17l-21.15.08H55.86l-1.44,2.47L45.58,70.92l-9-15.08-1.46-2.46H32.29l-21.16.09a.51.51,0,0,1-.53-.43L10.4,6.48a.4.4,0,0,1,.13-.27.6.6,0,0,1,.41-.16l68.74-.27m0-5h0l-68.73.27A5.5,5.5,0,0,0,5.4,6.5l.2,46.57a5.5,5.5,0,0,0,5.53,5.41h0l21.15-.09L45.62,80.78,58.74,58.29l21.15-.08a5.5,5.5,0,0,0,5.51-5.45L85.21,6.18A5.49,5.49,0,0,0,79.68.78Z"/>
    </g>
    <path class="cls-2" d="M45.46,47.84S60.68,37.9,64.77,30.78l.9-1.59a11.07,11.07,0,0,0,1.07-4.8A11.49,11.49,0,0,0,55.06,13.06a11.65,11.65,0,0,0-9.74,5.24,11.71,11.71,0,0,0-9.79-5.17A11.51,11.51,0,0,0,23.94,24.56a11.2,11.2,0,0,0,1.12,4.79L26,30.94c4.14,7.08,19.46,16.9,19.46,16.9Z"/>
  </g>
</svg>
