<svg id="Layer_1" data-name="Layer 1" xmlns="http://www.w3.org/2000/svg" viewBox="0 0 1920 1080"><defs><style>.cls-1{fill:#000d00;}.cls-2,.cls-6{fill:none;}.cls-2,.cls-3,.cls-4,.cls-5,.cls-6,.cls-7,.cls-8{stroke:#000;}.cls-12,.cls-15,.cls-2,.cls-3,.cls-4,.cls-5,.cls-6,.cls-7,.cls-8{stroke-miterlimit:10;}.cls-3{fill:#dfb7d9;}.cls-4{fill:#fbb03b;}.cls-4,.cls-6,.cls-7,.cls-8{stroke-width:0.25px;}.cls-5{fill:#d3efd1;stroke-width:1.42px;}.cls-7{fill:#feefd8;}.cls-8{fill:#a8dfa2;}.cls-9{opacity:0.45;}.cls-10{fill:#fff;}.cls-11{fill:#d00034;}.cls-12,.cls-15{fill:#fed6ff;stroke:#c291c2;}.cls-12{stroke-width:3px;}.cls-13{fill:#005ed0;}.cls-14{font-size:72px;font-family:Bangers-Regular, Bangers;}.cls-15{stroke-width:0.63px;}</style></defs><rect class="cls-1" x="-4.43" width="1928.86" height="1080"/><g id="logo-extended"><g id="Book3"><ellipse class="cls-2" cx="1499.02" cy="639.6" rx="5.52" ry="8.56" transform="translate(593.22 1994.46) rotate(-79.34)"/><rect class="cls-3" x="1499.62" y="432.09" width="140.41" height="218.52" rx="12" transform="translate(49.65 -126.84) rotate(4.7)"/><rect class="cls-4" x="1497.23" y="429.16" width="135.39" height="219.93" rx="12" transform="translate(49.45 -126.45) rotate(4.7)"/><rect class="cls-5" x="1537.15" y="474.99" width="60.27" height="81.04" transform="translate(47.52 -126.72) rotate(4.7)"/></g><g id="Book2"><ellipse class="cls-6" cx="206.28" cy="666.88" rx="9.34" ry="6.09" transform="translate(-50.49 17.77) rotate(-4.39)"/><path class="cls-7" d="M343.75,647.07,205.1,673.33a6.1,6.1,0,0,1-7.06-4.85L154.37,443.34a6,6,0,0,1,4.74-7.09L297.76,410a6.09,6.09,0,0,1,7.05,4.85L348.48,640A6,6,0,0,1,343.75,647.07Z"/><path class="cls-8" d="M335.39,647.41,202.13,672.65a6.08,6.08,0,0,1-7.06-4.85l-44-226.67a6,6,0,0,1,4.74-7.09L289.1,408.8a6.1,6.1,0,0,1,7.06,4.85l44,226.67A6,6,0,0,1,335.39,647.41Z"/></g><g id="Book2-2" data-name="Book2"><ellipse class="cls-2" cx="1246.9" cy="806.36" rx="7.39" ry="4.82" transform="translate(-186.8 419.73) rotate(-17.8)"/></g><g id="like_ig" data-name="like ig" class="cls-9"><path class="cls-10" d="M335.27,365.67a4.31,4.31,0,0,1-2.9-1.1l-43.78-39.79a4.3,4.3,0,0,1-1.39-3,4.54,4.54,0,0,1,1.19-3.26l58.73-64.59a4.58,4.58,0,0,1,3.39-1.51,4.34,4.34,0,0,1,2.91,1.11l43.77,39.79a4.27,4.27,0,0,1,1.4,3.05,4.58,4.58,0,0,1-1.19,3.26l-19,20.93,9,28.89-29.62-6.17-19,20.94A4.63,4.63,0,0,1,335.27,365.67Z"/><path d="M350.51,254.87a1.77,1.77,0,0,1,1.22.46l43.78,39.79a1.8,1.8,0,0,1,.58,1.29,2.08,2.08,0,0,1-.54,1.48l-18.08,19.88-1.92,2.12.84,2.73,7.29,23.47-24.07-5-2.79-.58-1.93,2.12-18.07,19.88a2.12,2.12,0,0,1-1.55.68,1.83,1.83,0,0,1-1.22-.45l-43.78-39.79a1.92,1.92,0,0,1-.58-1.29,2.13,2.13,0,0,1,.55-1.49L349,255.56a2.07,2.07,0,0,1,1.54-.69m0-5a7.07,7.07,0,0,0-5.24,2.33l-58.73,64.59a7,7,0,0,0,.37,9.84l43.78,39.79a6.81,6.81,0,0,0,4.58,1.75,7.09,7.09,0,0,0,5.25-2.32L358.59,346,391,352.72l-9.8-31.58,18.08-19.88a7,7,0,0,0-.37-9.84L355.1,251.63a6.79,6.79,0,0,0-4.59-1.76Z"/><path class="cls-11" d="M360,324.6s3.76-22.79.6-32.72l-.72-2.21a14.1,14.1,0,0,0-3.57-5.12,14.62,14.62,0,0,0-20.64,1.21,14.84,14.84,0,0,0-3.45,13.63A14.81,14.81,0,0,0,319,304.11a14.62,14.62,0,0,0,.75,20.66,14.29,14.29,0,0,0,5.44,3.07l2.27.5c10.19,2.2,32.52-3.71,32.52-3.71Z"/></g><g id="logo"><g id="brainNEW"><ellipse class="cls-12" cx="954.47" cy="428.82" rx="329.61" ry="143.22" transform="translate(-11.71 27.07) rotate(-1.61)"/><path class="cls-12" d="M443.81,411.48c-8.27,2.6-90.38,29.36-103.75,83.71C327,548.4,386.42,601.09,446,607.32c33.68,3.52,53.73-9.23,82.89-.32,35.94,11,22,35.38,51.12,49,50.14,23.52,129.07-31.2,251.46-19.2,60.87,6,50.27,20.37,106.76,23.24,99.83,5.07,149-39.11,218.22-22.31,38.11,9.26,43.45,27.57,77,26.11,39.74-1.73,70.65-29.11,75.73-33.62,0,0,15.36-13.61,22-29.72,21-51.45-59.32-106.66-66.14-111.23"/><path class="cls-12" d="M1315.1,638.38c8.52,2.48,51.58,14.25,96.36-.59,38.65-12.8,73-43.57,64.42-65.58s-55.15-23.37-55.37-41c-.16-12.81,24.57-14.36,38.23-33,18.7-25.49-2.44-57.05-23.59-88.61-18-26.85-31.45-46.95-58.68-51.49-26-4.34-43.86,9-57.18,1.61-14.66-8.11,3.27-26.31-4.51-53-8.49-29.16-43-52.65-77-61.6-21.4-5.64-20,.43-78.37-2.05-64.5-2.73-87.3-11-120.51-.85a115.22,115.22,0,0,0-35.64,18"/><path class="cls-12" d="M1074.75,327.05c-4.11-9.75-25.45-56.28-95-76.08-81.38-23.18-197.5-.86-266.89,60"/><path class="cls-12" d="M695.57,285.24C617.18,265.31,527.7,282,484.38,321.48c-34.31,31.3-35.47,73.09-3.61,107.14"/><path class="cls-12" d="M458,454.26c-38.35-80.16,5-167.14,88.36-199.93,96.23-37.87,229.91,2.76,272.73,97.22"/><path class="cls-12" d="M1104.8,334.28c9.08-1.43,87.65-13,149.71,18,53.44,26.7,72.53,74,46.43,117.84"/><path class="cls-12" d="M745.69,534.24c11.61-7,75.36-44,171.21-43.2,121.9,1,185.91,62.35,190.9,67.32"/><path class="cls-12" d="M379.89,539.48c2.94-2.51,26.72-22.61,63.87-43.38,30.76-17.2,58.4-28,70.3-27.43"/><path class="cls-12" d="M664.2,602.15c-30.23,12.84-69,16.06-91.73,9.6-12.71-3.61-17.9-9.54-20.09-13.45"/><path class="cls-12" d="M904.14,626.71c8.23-3.88,25.19-10.81,49.36-13.51a176.43,176.43,0,0,1,63.12,4.28"/><path class="cls-12" d="M1231.28,487.11c1.89,1.33,22.82,16.56,19.26,38-3.31,19.93-26.42,36.77-55.77,38.26"/><path class="cls-12" d="M1265.41,563.59c11.31,7.39,31,22.41,39.42,44.75a60,60,0,0,1,2.51,34.49"/><path class="cls-12" d="M625.5,456.49c-55.46-2.24-96.7-32.57-99.62-65.07-4.25-47.43,75.48-73.4,81.21-75.2,68-21.31,130.65,11.11,138.19,15.16"/></g></g><g id="like_ig-2" data-name="like ig" class="cls-9"><path class="cls-10" d="M1370.32,228.56a4.59,4.59,0,0,1-2.56-.78l-23.52-15.73L1317,225.19l1.73-30.2-23.52-15.73a4.47,4.47,0,0,1-1.33-6.18l32.88-49.18a4.37,4.37,0,0,1,3.65-1.91,4.56,4.56,0,0,1,2.55.78l72.57,48.53a4.47,4.47,0,0,1,1.33,6.17L1374,226.65a4.36,4.36,0,0,1-3.65,1.91Z"/><path d="M1330.4,124.49a2.12,2.12,0,0,1,1.16.36l72.57,48.53a2,2,0,0,1,.64,2.7l-32.88,49.18a1.86,1.86,0,0,1-1.57.8,2.12,2.12,0,0,1-1.17-.35l-22.33-14.94-2.38-1.59-2.57,1.24-22.14,10.67,1.4-24.54.17-2.85-2.38-1.59-22.34-14.93a2,2,0,0,1-.63-2.71l32.87-49.18a1.89,1.89,0,0,1,1.58-.8m0-5a6.86,6.86,0,0,0-5.73,3l-32.88,49.19a7,7,0,0,0,2,9.63l22.33,14.94-1.88,33L1344,214.93l22.33,14.93a7.11,7.11,0,0,0,4,1.2,6.87,6.87,0,0,0,5.73-3l32.87-49.18a7,7,0,0,0-2-9.64l-72.57-48.53a7.08,7.08,0,0,0-3.94-1.2Z"/><path class="cls-11" d="M1337.48,194.49s23.09.35,32.45-4.25l2.08-1a14.15,14.15,0,0,0,4.54-4.29,14.63,14.63,0,0,0-4.25-20.23,14.83,14.83,0,0,0-14-1.4,14.83,14.83,0,0,0-6.64-12.39,14.6,14.6,0,0,0-20.31,3.8,14.16,14.16,0,0,0-2.23,5.83l-.16,2.32c-.67,10.4,8.48,31.62,8.48,31.62Z"/></g><g id="like_ig-3" data-name="like ig" class="cls-9"><path class="cls-10" d="M1164.75,184.27a4.55,4.55,0,0,1-2.32-.63L1138,169.36l-26.41,14.75-.09-30.25-24.43-14.29a4.47,4.47,0,0,1-1.7-6.08l29.86-51.07a4.39,4.39,0,0,1,3.81-2.13,4.55,4.55,0,0,1,2.32.63L1196.72,125a4.47,4.47,0,0,1,1.7,6.08l-29.86,51.07a4.39,4.39,0,0,1-3.81,2.13Z"/><path d="M1119.05,82.79a2,2,0,0,1,1.06.29l75.35,44.07a2,2,0,0,1,.8,2.66l-29.86,51.07a1.86,1.86,0,0,1-1.65.9,2.05,2.05,0,0,1-1-.29l-23.2-13.57-2.46-1.44-2.5,1.39-21.45,12-.08-24.58v-2.86l-2.47-1.44-23.19-13.57a2,2,0,0,1-.8-2.66l29.86-51.07a1.87,1.87,0,0,1,1.65-.89m0-5a6.88,6.88,0,0,0-6,3.37l-29.85,51.07a7,7,0,0,0,2.59,9.5L1109,155.29l.1,33.07L1138,172.24l23.19,13.56a7.1,7.1,0,0,0,3.58,1,6.89,6.89,0,0,0,6-3.38l29.86-51.07a7,7,0,0,0-2.59-9.5l-75.36-44.07a7.06,7.06,0,0,0-3.58-1Z"/><path class="cls-11" d="M1130.2,152.23s23.08-1,32.14-6.19l2-1.16a14,14,0,0,0,4.27-4.55,14.62,14.62,0,0,0-5.46-19.94,14.8,14.8,0,0,0-14-.55,14.85,14.85,0,0,0-7.37-12,14.61,14.61,0,0,0-20,5,14.24,14.24,0,0,0-1.88,6l0,2.33c0,10.42,10.37,31,10.37,31Z"/></g><g id="like_ig-4" data-name="like ig" class="cls-9"><path class="cls-10" d="M914.81,154.28l-28.3.32a4.5,4.5,0,0,1-4.58-4.35l-.66-59.15a4.3,4.3,0,0,1,1.28-3.1,4.56,4.56,0,0,1,3.2-1.34l87.3-1A4.49,4.49,0,0,1,977.63,90l.66,59.15a4.34,4.34,0,0,1-1.28,3.1,4.59,4.59,0,0,1-3.2,1.35l-28.3.31-15.06,26.23Z"/><path d="M973.1,88.2a2,2,0,0,1,2,1.87l.66,59.15a1.87,1.87,0,0,1-.55,1.31,2.14,2.14,0,0,1-1.46.61l-26.87.29-2.86,0-1.42,2.48L930.4,175.25l-12.71-21-1.48-2.44-2.86,0-26.89.3a2,2,0,0,1-2-1.87l-.66-59.16a1.82,1.82,0,0,1,.55-1.3,2.08,2.08,0,0,1,1.46-.61l87.29-1h0m0-5H973l-87.3,1a7,7,0,0,0-7,7l.66,59.15a7,7,0,0,0,7,6.82h.08l26.87-.3,17.1,28.31L947,156.43l26.86-.29a7,7,0,0,0,7-7L980.13,90a7,7,0,0,0-7-6.81Z"/><path class="cls-11" d="M930,143.27s19.25-12.75,24.37-21.83l1.13-2a13.91,13.91,0,0,0,1.32-6.1A14.62,14.62,0,0,0,941.9,99a14.85,14.85,0,0,0-12.33,6.75,14.85,14.85,0,0,0-12.48-6.47,14.61,14.61,0,0,0-14.61,14.61,14.06,14.06,0,0,0,1.45,6.07l1.18,2c5.32,9,24.86,21.29,24.86,21.29Z"/></g><g id="like_ig-5" data-name="like ig" class="cls-9"><path class="cls-10" d="M699.64,173.77l-26.26,10.54a4.61,4.61,0,0,1-1.72.33,4.41,4.41,0,0,1-4.13-2.72L645.5,127a4.29,4.29,0,0,1,.08-3.35,4.56,4.56,0,0,1,2.49-2.41l81-32.5a4.56,4.56,0,0,1,1.71-.33,4.4,4.4,0,0,1,4.13,2.72l22,54.91a4.33,4.33,0,0,1-.07,3.35,4.58,4.58,0,0,1-2.5,2.41l-26.26,10.53-4.54,29.91Z"/><path d="M730.81,90.92a1.94,1.94,0,0,1,1.81,1.16l22,54.9a1.82,1.82,0,0,1,0,1.41,2.12,2.12,0,0,1-1.14,1.1l-24.94,10-2.65,1.06-.43,2.83-3.69,24.3-19.46-15L700,170.92,697.38,172l-24.93,10a2,2,0,0,1-.79.16,1.94,1.94,0,0,1-1.81-1.16l-22-54.9a1.81,1.81,0,0,1,0-1.41,2.05,2.05,0,0,1,1.13-1.1l81-32.49a1.91,1.91,0,0,1,.78-.16m0-5a7.2,7.2,0,0,0-2.64.51l-81,32.5a7,7,0,0,0-4,9l22,54.91a7,7,0,0,0,6.45,4.29,7.29,7.29,0,0,0,2.65-.51l24.93-10,26.19,20.2,5-32.69,24.94-10a7,7,0,0,0,4-9l-22-54.91a6.93,6.93,0,0,0-6.45-4.29Z"/><path class="cls-11" d="M709.82,158s13.33-18.87,14.82-29.18l.32-2.31a14.09,14.09,0,0,0-1-6.16,14.63,14.63,0,0,0-19.1-7.92,14.86,14.86,0,0,0-9,10.76,14.82,14.82,0,0,0-14-1.52,14.6,14.6,0,0,0-8.33,18.91,14.1,14.1,0,0,0,3.55,5.14l1.83,1.44c8.2,6.43,30.88,10.85,30.88,10.85Z"/></g><g id="like_ig-6" data-name="like ig" class="cls-9"><path class="cls-10" d="M465.6,223.19a4.35,4.35,0,0,1-3.75-2l-31.14-50.29a4.3,4.3,0,0,1-.51-3.31,4.57,4.57,0,0,1,2.05-2.81l74.23-45.94a4.62,4.62,0,0,1,2.42-.69,4.37,4.37,0,0,1,3.75,2l31.14,50.29a4.36,4.36,0,0,1,.5,3.32,4.57,4.57,0,0,1-2,2.8l-24.07,14.89.67,30.24-26.77-14.08L468,222.5A4.47,4.47,0,0,1,465.6,223.19Z"/><path d="M508.9,120.61a1.88,1.88,0,0,1,1.62.85l31.14,50.3a1.83,1.83,0,0,1,.2,1.4,2,2,0,0,1-.93,1.28l-22.85,14.14-2.43,1.5.07,2.86.54,24.57-21.75-11.45L492,204.73l-2.43,1.51L466.7,220.38a2.06,2.06,0,0,1-1.1.31,1.87,1.87,0,0,1-1.62-.85l-31.15-50.3a1.83,1.83,0,0,1-.2-1.4,2.09,2.09,0,0,1,.93-1.27l74.24-45.95a2,2,0,0,1,1.1-.31m0-5a7.1,7.1,0,0,0-3.74,1.06l-74.23,45.94a7,7,0,0,0-2.35,9.56l31.14,50.3a6.88,6.88,0,0,0,5.88,3.22,7.07,7.07,0,0,0,3.73-1.06l22.85-14.14,29.26,15.39-.72-33,22.84-14.14a7,7,0,0,0,2.35-9.56l-31.14-50.3a6.88,6.88,0,0,0-5.87-3.22Z"/><path class="cls-11" d="M499.4,190.33S509.28,169.46,509,159l-.08-2.32a14.14,14.14,0,0,0-2-5.91,14.61,14.61,0,0,0-20.17-4.51,14.83,14.83,0,0,0-7.07,12.15,14.83,14.83,0,0,0-14,.9,14.62,14.62,0,0,0-5,20.07,14.08,14.08,0,0,0,4.38,4.44l2.05,1.11c9.19,4.92,32.28,5.38,32.28,5.38Z"/></g><g id="like_ig-7" data-name="like ig" class="cls-9"><path class="cls-10" d="M1484.87,353.19a4.55,4.55,0,0,1-3.61-1.77l-17.4-22.32-30,3.92L1445,304.89l-17.4-22.32a4.47,4.47,0,0,1,.68-6.28l46.64-36.38a4.26,4.26,0,0,1,2.64-.9,4.57,4.57,0,0,1,3.61,1.77l53.68,68.85a4.47,4.47,0,0,1-.68,6.27l-46.64,36.39a4.26,4.26,0,0,1-2.64.9Z"/><path d="M1477.54,241.51a2.08,2.08,0,0,1,1.64.81l53.68,68.85a2,2,0,0,1-.25,2.76L1486,350.32a1.82,1.82,0,0,1-1.1.37,2.07,2.07,0,0,1-1.64-.81l-16.52-21.19-1.76-2.26-2.83.38L1437.75,330l9-22.86,1-2.65-1.76-2.26L1429.55,281a2,2,0,0,1,.24-2.76l46.65-36.39a1.8,1.8,0,0,1,1.1-.37m0-5a6.8,6.8,0,0,0-4.18,1.43l-46.64,36.38a7,7,0,0,0-1.11,9.79l16.52,21.19L1430,336.05l32.78-4.29L1479.28,353a7.1,7.1,0,0,0,5.59,2.74,6.75,6.75,0,0,0,4.17-1.43l46.65-36.38a7,7,0,0,0,1.11-9.79l-53.68-68.84a7.08,7.08,0,0,0-5.58-2.74Z"/><path class="cls-11" d="M1463,310.3s21.82,7.58,32.14,6.15l2.3-.33a14.11,14.11,0,0,0,5.66-2.65,14.63,14.63,0,0,0,2.31-20.54,14.82,14.82,0,0,0-12.84-5.72,14.87,14.87,0,0,0-2.42-13.85,14.62,14.62,0,0,0-20.48-2.76,14.07,14.07,0,0,0-3.95,4.84l-.88,2.15c-3.9,9.67-1.87,32.68-1.87,32.68Z"/></g></g><path class="cls-13" d="M553.11,499.39q-5.21.32-10.48.94c-3.52.41-7,1-10.32,1.63a70.5,70.5,0,0,0-9.12,2.42q.9-7,2.11-15.58t2.79-17.75q1.57-9.18,3.16-18.53t3.24-17.91q3.76-20.4,8-41.58l26.38-3.58q-4.07,18.06-7.84,35.19-1.65,7.32-3.31,15.19t-3.17,15.34q-1.5,7.47-2.71,14.48t-2,12.46q3.76-.32,8.06-.39t7.62-.08q.15,3,.45,5.84c.2,1.92.43,3.66.68,5.22s.45,2.93.6,4.12.28,2,.38,2.42c-.81,0-1.58,0-2.34-.08s-1.53-.08-2.34-.08C559.87,499.08,556.58,499.19,553.11,499.39Z"/><path class="cls-13" d="M568.11,504.22,587.86,393.5l47.63-4.21c-.7,2.29-1.3,4.62-1.81,7-.5,2-1,4-1.43,6.15s-.83,4-1.13,5.69c-1,.1-2.44.18-4.29.23l-6,.16q-3.17.08-6.41.07h-5.65l-5.28,27.88c3.12-.21,6-.36,8.75-.47q3.32-.15,6.78-.15c2.31,0,4-.06,5.13-.16-.41,2.91-.78,5.76-1.13,8.57s-.78,5.65-1.28,8.56c-1,.1-2.64.18-4.9.23s-4.55.14-6.86.24c-2.62.1-5.48.21-8.6.31l-5.12,28.65,22-3.58-1.51,17.75Z"/><path class="cls-13" d="M627.2,505.47q2-21.81,3.62-42.83.75-8.72,1.43-18.37t1.21-19.08q.52-9.42.83-18.22t.45-16.12q3.62,0,7.76-.15c2.76-.11,5.28-.21,7.54-.32s5-.31,8.21-.62q-1.65,18.08-2.86,29.67t-1.88,18.84q-.69,7.25-1.21,13.94t-1.13,12.46q-.6,5.76-1.06,9.81h2.72l16.88-82.85q4.08-.15,8.29-.47c2.51-.2,5.15-.36,7.92-.46s5.3-.32,7.61-.63q-2.12,6.85-4.3,15.11l-4.52,17.13q-2.34,8.88-4.52,18.06t-4.3,17.76q-4.83,20.08-9.65,41.26Z"/><path class="cls-13" d="M676.65,504.22,696.39,393.5,744,389.29c-.7,2.29-1.31,4.62-1.81,7-.5,2-1,4-1.43,6.15s-.83,4-1.13,5.69c-1,.1-2.44.18-4.3.23l-6,.16q-3.17.08-6.41.07h-5.65l-5.28,27.88c3.12-.21,6-.36,8.74-.47,2.21-.1,4.48-.15,6.79-.15s4-.06,5.12-.16c-.4,2.91-.78,5.76-1.13,8.57s-.78,5.65-1.28,8.56c-1,.1-2.64.18-4.9.23s-4.55.14-6.86.24c-2.61.1-5.47.21-8.59.31l-5.12,28.65,22-3.58-1.51,17.75Z"/><path class="cls-13" d="M758.58,499.39q-5.21.32-10.48.94c-3.52.41-7,1-10.33,1.63a70.93,70.93,0,0,0-9.12,2.42q.92-7,2.11-15.58t2.79-17.75q1.59-9.18,3.17-18.53T740,434.61q3.76-20.4,8-41.58l26.38-3.58q-4.07,18.06-7.84,35.19-1.66,7.32-3.32,15.19T760,455.17q-1.51,7.47-2.72,14.48t-2,12.46q3.78-.32,8.07-.39t7.61-.08q.15,3,.46,5.84c.2,1.92.42,3.66.67,5.22s.46,2.93.61,4.12.27,2,.37,2.42c-.8,0-1.58,0-2.33-.08s-1.54-.08-2.34-.08C765.33,499.08,762,499.19,758.58,499.39Z"/><path class="cls-13" d="M858.07,485.45A59.62,59.62,0,0,1,848.72,496a35.51,35.51,0,0,1-9.87,6.31,25.57,25.57,0,0,1-9.65,2,17,17,0,0,1-8.52-2.18,19.89,19.89,0,0,1-6.71-6.55,37,37,0,0,1-4.59-10.74,57.22,57.22,0,0,1-1.74-15,108.58,108.58,0,0,1,3.92-28.89,96.17,96.17,0,0,1,11-25.61,62.93,62.93,0,0,1,16.8-18.3,36.22,36.22,0,0,1,21.49-6.93,16.09,16.09,0,0,1,6.93,1.56,16.94,16.94,0,0,1,5.73,4.36,21,21,0,0,1,3.84,6.85,26.82,26.82,0,0,1,1.43,9v2a15.49,15.49,0,0,1-.15,2.1l-19.74,5.45q-1.81-3.88-4.22-3.89t-5.06,2.88a40.26,40.26,0,0,0-5.2,7.47,107.63,107.63,0,0,0-5,10.28Q837,444,835.23,449.72t-2.94,11a41.52,41.52,0,0,0-1.13,8.49c0,3.32.42,5.66,1.28,7a3.86,3.86,0,0,0,3.39,2,7.33,7.33,0,0,0,3.77-1.32,17.13,17.13,0,0,0,3.92-3.43,29.84,29.84,0,0,0,3.32-4.75,19.69,19.69,0,0,0,2.11-5.29l17.18,7.16A79.31,79.31,0,0,1,858.07,485.45Z"/><path class="cls-13" d="M944.44,443.88a106.69,106.69,0,0,1-7,20.71,85,85,0,0,1-10.17,16.82A80.88,80.88,0,0,1,915.12,494,51.63,51.63,0,0,1,902.31,502,31.84,31.84,0,0,1,890,504.69a20.7,20.7,0,0,1-9.05-1.95,20,20,0,0,1-7.08-5.76,28.23,28.23,0,0,1-4.75-9.81,52.21,52.21,0,0,1-1.73-14.41,85.92,85.92,0,0,1,2.11-18.37,132.71,132.71,0,0,1,5.73-19.16,106.61,106.61,0,0,1,8.89-18.06A90.66,90.66,0,0,1,895.68,402a54.67,54.67,0,0,1,13.56-10.52,31.49,31.49,0,0,1,15.08-3.89,19.3,19.3,0,0,1,18.16,10.36A34.84,34.84,0,0,1,946,408.29a64.22,64.22,0,0,1,1.05,11.53A105.48,105.48,0,0,1,944.44,443.88Zm-54,28.42a10.94,10.94,0,0,0,1.66,3.27A9.88,9.88,0,0,0,894.7,478a6.11,6.11,0,0,0,3.39,1,17.36,17.36,0,0,0,12.06-4.83,39.5,39.5,0,0,0,8.74-11.83,69.85,69.85,0,0,0,5.35-14.95,63,63,0,0,0,1.89-14.48,39.59,39.59,0,0,0-.23-4,17.12,17.12,0,0,0-.9-4.05,8,8,0,0,0-2.11-3.19,5.48,5.48,0,0,0-3.85-1.33,16.81,16.81,0,0,0-8.89,2.49,27.92,27.92,0,0,0-7.31,6.62,47.35,47.35,0,0,0-5.66,9.35A93.94,93.94,0,0,0,893,449.33a64.08,64.08,0,0,0-2.49,10.51,62.57,62.57,0,0,0-.75,8.87A11.74,11.74,0,0,0,890.4,472.3Z"/><path class="cls-13" d="M931.41,503.13q6.63-20.72,12.66-40.64,2.56-8.42,5.28-17.6t5.42-18.22q2.72-9,5.05-17.44T964,393.65a125.54,125.54,0,0,0,15.67-.93q7.4-.93,16-1.71c-.3,2.28-.62,4.85-1,7.71s-.75,5.84-1.2,8.95-.93,6.33-1.43,9.65-1.11,7.58-1.81,12.77-1.66,11.68-2.87,19.47h2q4.38-11.83,7.24-19.7T1001.2,417q1.81-5,3.7-9.73t3.61-9c1.16-2.86,2.24-5.37,3.25-7.55q3.76-.31,7.08-.78t6.63-1l6.71-1.09q3.39-.54,7.46-1.32-1.5,9-2.86,18.53t-2.41,18.92q-1.06,9.44-2,18.61T1030.6,460q-1.81,19.32-3.17,37.69l-26.23,4.83c0-.52.08-1.92.23-4.21s.35-5.08.6-8.41.6-7,1.06-11.05l1.35-12.15c.46-4.05.93-8,1.44-11.76s1-7,1.5-9.73H1006q-2.12,6.54-4.68,13.78t-5.2,14.72q-2.64,7.47-5.2,14.64T986.43,502q-5.28.15-9,.39l-8.74.54,4.82-57.77H971.2q-.3,2-1.5,6.77l-2.79,10.9q-1.59,6.17-3.4,12.77T960.12,488q-1.57,5.69-2.64,9.34c-.7,2.44-1.1,3.81-1.2,4.13Z"/><path class="cls-13" d="M1028.79,504.22q4.51-21,8.59-41.11,1.66-8.42,3.47-17.75t3.47-18.38q1.65-9,3.16-17.44t2.56-15.42c2.92-.93,5.78-1.74,8.6-2.41s5.7-1.27,8.66-1.79a48.66,48.66,0,0,1,8.37-.78,25,25,0,0,1,11.38,2.33,20.42,20.42,0,0,1,7.46,6.31,25.36,25.36,0,0,1,4.08,9.27,51.34,51.34,0,0,1,1.2,11.36,46.73,46.73,0,0,1-3.09,16.82,51.07,51.07,0,0,1-8.29,14.41,41.79,41.79,0,0,1-11.91,10,28.28,28.28,0,0,1-13.94,3.74h-1.66q-1.22,5.29-2.26,11.52t-1.81,11.53q-1.07,6.22-2,12.45Zm38.74-76.77q-1.66,9.18-3.62,19.62a13.11,13.11,0,0,0,5-2.88,25.13,25.13,0,0,0,4.9-5.92,32.86,32.86,0,0,0,3.62-8.49,37,37,0,0,0,1.36-10.12q0-5.76-2.49-8.72a7.16,7.16,0,0,0-5.5-3Q1069.19,418.26,1067.53,427.45Z"/><path class="cls-13" d="M1118.11,499.39q-5.2.32-10.48.94c-3.52.41-7,1-10.33,1.63a70.93,70.93,0,0,0-9.12,2.42q.91-7,2.11-15.58t2.79-17.75q1.59-9.18,3.17-18.53t3.24-17.91q3.77-20.4,8-41.58l26.38-3.58q-4.06,18.06-7.84,35.19-1.66,7.32-3.32,15.19t-3.16,15.34q-1.51,7.47-2.72,14.48t-2,12.46q3.78-.32,8.07-.39t7.61-.08q.15,3,.46,5.84c.2,1.92.42,3.66.67,5.22s.46,2.93.61,4.12.27,2,.37,2.42c-.8,0-1.58,0-2.33-.08s-1.54-.08-2.34-.08C1124.86,499.08,1121.57,499.19,1118.11,499.39Z"/><path class="cls-13" d="M1133.1,504.22l19.75-110.72,47.64-4.21c-.71,2.29-1.31,4.62-1.81,7-.5,2-1,4-1.43,6.15s-.83,4-1.13,5.69c-1,.1-2.44.18-4.3.23l-6,.16q-3.16.08-6.41.07h-5.65l-5.28,27.88c3.11-.21,6-.36,8.74-.47q3.32-.15,6.79-.15c2.31,0,4-.06,5.12-.16-.4,2.91-.78,5.76-1.13,8.57s-.78,5.65-1.28,8.56c-1,.1-2.64.18-4.9.23s-4.55.14-6.86.24c-2.61.1-5.48.21-8.59.31l-5.13,28.65,22-3.58-1.5,17.75Z"/><path class="cls-13" d="M1196.87,504.22q3.47-17.13,6.63-33.79,1.37-7,2.72-14.64t2.63-15q1.29-7.39,2.26-14.33c.66-4.61,1.23-8.85,1.74-12.69a40,40,0,0,0-7-.31,20.25,20.25,0,0,1-7-.93q.15-2.49.15-5.76t.15-6.55q.15-3.57.3-7.63c2.61.21,5.23.37,7.84.47s5.22.16,7.84.16q7.68,0,14.85-.39t13.26-.94q6.1-.54,12-1.32l-1.66,8.41q-.75,3.58-1.43,7.32t-1.28,6.38a41.92,41.92,0,0,1-6.71,1.33q-3.39.39-6.71,1-1.05,5.29-2.26,11.76c-.81,4.31-1.58,8.77-2.34,13.39s-1.48,9.32-2.18,14.09-1.41,9.35-2.11,13.71q-2.41,15.4-4.53,31.92Z"/><path class="cls-13" d="M1239.08,504.22l19.75-110.72,47.63-4.21c-.7,2.29-1.3,4.62-1.81,7-.5,2-1,4-1.43,6.15s-.83,4-1.13,5.69c-1,.1-2.44.18-4.29.23l-6,.16q-3.16.08-6.41.07h-5.65l-5.28,27.88c3.12-.21,6-.36,8.75-.47q3.32-.15,6.78-.15c2.31,0,4-.06,5.13-.16-.41,2.91-.78,5.76-1.13,8.57s-.78,5.65-1.28,8.56c-1,.1-2.64.18-4.9.23s-4.55.14-6.86.24c-2.62.1-5.48.21-8.6.31l-5.12,28.65,22-3.58-1.51,17.75Z"/><path class="cls-13" d="M240.81,558.39l-5,1.93c-.18-2.16-.35-4.28-.52-6.38q-.26-2.73-.57-5.46c-.21-1.82-.38-3.38-.52-4.68l-8.32,1.71-1,14.56c-1.36.48-3,1-4.85,1.64l-5.22,1.72-5.87,2q1.22-13.52,2.4-26.61.47-5.49,1-11.47t1-11.93q.53-5.92,1-11.41t.73-10q6.4-1.81,13-3.87t12.77-4.52c.23,2.08.54,4.66.95,7.73s.87,6.42,1.41,10,1.12,7.38,1.72,11.3,1.21,7.8,1.79,11.6q2.23,13.29,4.71,28.24-2.78,1.07-5.58,1.94C244.35,557,242.66,557.68,240.81,558.39Zm-14.58-22.92q.39-.08,1.38-.33l2.08-.53,2-.52a7.47,7.47,0,0,0,1.31-.42c-.08-.38-.16-1-.26-2s-.21-2-.36-3.22-.3-2.51-.46-3.94-.32-2.83-.46-4.19q-.63-5-1.21-10.72l-1.14-8.44-1.41.39-.51,8.68Z"/><path class="cls-13" d="M260.25,544.33c0-1.26,0-2.61.07-4.05s.05-2.82,0-4.15,0-2.65,0-4l-7.65,1.57c-.23-1.74-.42-3.4-.57-5s-.31-3.18-.45-4.84-.27-3.25-.38-4.76l1.05-.22c.7-.14,1.5-.32,2.38-.54s1.77-.44,2.65-.69,1.75-.53,2.62-.84q-.11-2-.12-4c0-1.06-.05-2.25-.08-3.57s-.06-2.61-.05-3.88l5.75-1.58q2.83-.78,5.6-1.85c0,1.34-.1,2.75-.13,4.21s-.08,2.81-.17,4c0,1.53,0,3,0,4.28.88-.24,1.78-.53,2.71-.85s1.61-.57,2.43-.8l2.26-.66c0,1.47-.06,2.87-.09,4.2s0,2.65,0,3.95,0,2.6.05,3.92.09,2.74.13,4.26c-.64.13-1.39.27-2.25.41s-1.69.3-2.45.46c-1,.19-1.92.36-2.89.49a38.92,38.92,0,0,1,.4,3.91c.1,1.11.2,2.32.3,3.62s.15,2.6.14,3.86Z"/><path class="cls-13" d="M1560.73,540.57l-3.93.11q.6-2.31,1.2-4.56c.33-1.31.64-2.62,1-3.94s.56-2.44.79-3.38l-6.21-.85-4.27,9.88c-1.06,0-2.32,0-3.77-.05l-4-.09-4.58,0q4.17-9.1,8.21-17.92l3.5-7.73,3.65-8c1.22-2.67,2.38-5.24,3.5-7.7s2.1-4.73,3-6.79q4.9.31,10,.51t10,0c-.36,1.51-.77,3.38-1.25,5.61s-1,4.68-1.48,7.32-1,5.4-1.58,8.28-1.07,5.72-1.6,8.51q-1.71,9.78-3.67,20.79c-1.45,0-2.91,0-4.35,0C1563.53,540.49,1562.19,540.53,1560.73,540.57Zm-4.5-19.52,1,.11,1.58.14c.54.06,1.06.1,1.54.14a5.3,5.3,0,0,0,1,0c0-.28.14-.76.31-1.44s.34-1.46.54-2.33.41-1.82.65-2.85.47-2.05.7-3c.53-2.4,1.12-5,1.8-7.75l1.28-6.14-1.08-.08-2.48,5.91Z"/><path class="cls-13" d="M1577.7,535.56c.32-.87.66-1.81,1-2.8s.73-1.94,1-2.87l1-2.77-5.71-.79c.27-1.27.55-2.47.82-3.59s.57-2.28.88-3.48.61-2.32.91-3.4l.78.11,1.79.21c.67.07,1.34.12,2,.17s1.35.06,2,.06c.27-.93.57-1.86.89-2.78.25-.75.52-1.58.81-2.51s.61-1.83.92-2.71l4.39.32q2.16.15,4.35.09c-.37.92-.74,1.88-1.12,2.89s-.75,1.94-1.11,2.76c-.39,1.06-.74,2-1.06,3,.67,0,1.37.07,2.09.07s1.26,0,1.89,0l1.73.09c-.38,1-.75,2-1.09,2.91s-.68,1.83-1,2.73-.63,1.81-.93,2.74-.61,1.93-1,3l-1.68-.27c-.64-.11-1.24-.21-1.81-.29s-1.42-.22-2.13-.36a28,28,0,0,1-.68,2.81c-.21.8-.43,1.66-.68,2.6s-.54,1.84-.85,2.71Z"/><path class="cls-13" d="M756.14,731.85a27.82,27.82,0,0,1-4.47,4.9,17.22,17.22,0,0,1-4.71,2.92,12.63,12.63,0,0,1-4.61.93,8.25,8.25,0,0,1-4.07-1,9.34,9.34,0,0,1-3.2-3,16.91,16.91,0,0,1-2.2-5,25.8,25.8,0,0,1-.83-6.91,48.65,48.65,0,0,1,1.88-13.36,43.76,43.76,0,0,1,5.25-11.84,29.61,29.61,0,0,1,8-8.46,17.64,17.64,0,0,1,10.26-3.2,7.93,7.93,0,0,1,3.31.72,8.14,8.14,0,0,1,2.74,2,9.81,9.81,0,0,1,1.83,3.17,12,12,0,0,1,.69,4.18v.9a8.36,8.36,0,0,1-.07,1l-9.44,2.52c-.57-1.2-1.25-1.8-2-1.8a3.45,3.45,0,0,0-2.41,1.33,18.11,18.11,0,0,0-2.49,3.46,45.68,45.68,0,0,0-2.37,4.75,54.14,54.14,0,0,0-2,5.29c-.58,1.78-1,3.47-1.4,5.08a18.68,18.68,0,0,0-.54,3.92,6.21,6.21,0,0,0,.61,3.24,1.87,1.87,0,0,0,1.62.94,3.59,3.59,0,0,0,1.8-.62,8.06,8.06,0,0,0,1.87-1.58,14.22,14.22,0,0,0,1.58-2.2,8.72,8.72,0,0,0,1-2.44L760,725A36.36,36.36,0,0,1,756.14,731.85Z"/><path class="cls-13" d="M797.39,712.63a48.63,48.63,0,0,1-3.34,9.58,39.56,39.56,0,0,1-4.87,7.77,37.16,37.16,0,0,1-5.79,5.83,25.07,25.07,0,0,1-6.12,3.68,15.63,15.63,0,0,1-5.9,1.26,10.12,10.12,0,0,1-4.32-.9,9.44,9.44,0,0,1-3.39-2.67,12.91,12.91,0,0,1-2.27-4.53,23.58,23.58,0,0,1-.82-6.66,38.74,38.74,0,0,1,1-8.5,61.9,61.9,0,0,1,2.74-8.86,48.93,48.93,0,0,1,4.25-8.35,42.36,42.36,0,0,1,5.54-7,26.18,26.18,0,0,1,6.48-4.86,15.4,15.4,0,0,1,7.2-1.8,10,10,0,0,1,5.36,1.33,9.48,9.48,0,0,1,3.32,3.46,15.89,15.89,0,0,1,1.69,4.79,29.05,29.05,0,0,1,.5,5.33A47.29,47.29,0,0,1,797.39,712.63Zm-25.81,13.14a5,5,0,0,0,.79,1.51,4.87,4.87,0,0,0,1.26,1.12,3.07,3.07,0,0,0,1.62.47,8.44,8.44,0,0,0,5.76-2.24,18.4,18.4,0,0,0,4.18-5.47,32.41,32.41,0,0,0,2.56-6.91,28.31,28.31,0,0,0,.89-6.7,18.09,18.09,0,0,0-.1-1.87,7.86,7.86,0,0,0-.43-1.87,3.8,3.8,0,0,0-1-1.48,2.7,2.7,0,0,0-1.84-.61,8.26,8.26,0,0,0-4.25,1.15,13.22,13.22,0,0,0-3.49,3.06,22.24,22.24,0,0,0-2.7,4.32,41.84,41.84,0,0,0-2,4.9,29.62,29.62,0,0,0-1.19,4.86,27.88,27.88,0,0,0-.36,4.1A5.33,5.33,0,0,0,771.58,725.77Z"/><path class="cls-13" d="M794.26,740.82q2-10.16,3.89-19.8c.48-2.69,1-5.51,1.55-8.46s1.06-5.86,1.54-8.71.93-5.62,1.34-8.28.73-5.1,1-7.31l4.32-.29c1.25-.1,2.52-.18,3.81-.25s2.45-.16,3.46-.25q.93,5.53,1.66,10.58l.75,4.5c.27,1.56.52,3.06.76,4.5s.48,2.82.72,4.14.48,2.48.72,3.49c.19-1,.41-2.17.65-3.49s.5-2.71.79-4.18.59-3,.9-4.5l.9-4.46q1.08-5,2.23-10.51l8.78-1.08q-2.44,10.8-4.32,20.45c-.57,2.78-1.14,5.59-1.69,8.42s-1.07,5.57-1.55,8.21-.88,5.07-1.22,7.31-.6,4.11-.79,5.65a16.37,16.37,0,0,0-1.69.32l-3.39.76q-1.9.43-3.81.9c-1.28.31-2.22.56-2.85.75q-.5-5.82-1.08-11.08c-.14-1.49-.31-3-.5-4.61s-.37-3.1-.54-4.54-.34-2.79-.51-4.07-.32-2.34-.46-3.2c-.15.86-.34,1.92-.58,3.17s-.48,2.58-.72,4-.48,2.88-.72,4.4-.5,3-.79,4.42q-.94,5.12-2,10.66Z"/><path class="cls-13" d="M862.73,725.81a32.84,32.84,0,0,1-5.72,9.1,22.92,22.92,0,0,1-7.2,5.48,17.47,17.47,0,0,1-7.31,1.8,11.63,11.63,0,0,1-5.08-1.16,11.16,11.16,0,0,1-4.17-3.49,17.59,17.59,0,0,1-2.77-5.87,30,30,0,0,1-1-8.28,45.09,45.09,0,0,1,2.66-16.2,38,38,0,0,1,6.73-11.52,27.81,27.81,0,0,1,8.72-6.84,20.2,20.2,0,0,1,8.67-2.23,11.63,11.63,0,0,1,5,1,9.81,9.81,0,0,1,3.49,2.7,10.7,10.7,0,0,1,2,4,18.23,18.23,0,0,1,.61,4.79l-9.86,1.87a9.48,9.48,0,0,0-1.73-4.1,3.21,3.21,0,0,0-2.45-1.23q-1.8,0-4,2.56a28.93,28.93,0,0,0-4,6.59,54,54,0,0,0-3.17,8.85,42,42,0,0,0-1.44,9.51c0,3,.44,5.1,1.33,6.37a4,4,0,0,0,3.42,1.91,7.07,7.07,0,0,0,3-.72,8.83,8.83,0,0,0,2.77-2.06,12,12,0,0,0,2-3.09,9.67,9.67,0,0,0,.9-3.85l-7.7,1.15,1.37-7.13,6.62-.86q2.74-.36,5.8-.87c2-.33,3.82-.65,5.36-.93A38.15,38.15,0,0,1,862.73,725.81Z"/><path class="cls-13" d="M862.66,740.53q2-9.57,3.74-18.72c.44-2.59.91-5.29,1.44-8.1s1-5.59,1.48-8.35.89-5.43,1.3-8,.73-4.91,1-7a50.63,50.63,0,0,1,8.85-1.91,73.44,73.44,0,0,1,9.44-.61,14.18,14.18,0,0,1,4.64.64,6.48,6.48,0,0,1,4.36,4.61,13.76,13.76,0,0,1,.43,3.53,16.47,16.47,0,0,1-1,5.65,23.59,23.59,0,0,1-2.7,5.26,26.68,26.68,0,0,1-3.89,4.53A20.6,20.6,0,0,1,887,715.4q1.29,2.88,2.77,6.3c1,2.28,1.91,4.45,2.77,6.52q1.44,3.6,3,7.2l-11.16,3.89q-1.44-5-2.59-9.36c-.34-1.2-.67-2.44-1-3.71s-.65-2.47-.93-3.6-.53-2.13-.72-3a15.13,15.13,0,0,1-.36-2l-.94.29q-.43,2.31-1,5.62c-.41,2.21-.79,4.34-1.12,6.41q-.64,3.66-1.3,7.56Zm16.92-31.25a10,10,0,0,0,3.35-1.15,23.66,23.66,0,0,0,3.78-2.41,21.21,21.21,0,0,0,3.09-2.92,4.35,4.35,0,0,0,1.3-2.66,1.65,1.65,0,0,0-.5-1.26,3.46,3.46,0,0,0-1.41-.72,9.74,9.74,0,0,0-2-.33c-.72,0-1.46-.07-2.23-.07-.53,0-1.07,0-1.62,0l-1.48,0Z"/><path class="cls-13" d="M916.87,739.67l-3.88.64q.28-2.37.57-4.68c.15-1.34.28-2.68.4-4s.23-2.49.32-3.45H908l-2.88,10.36c-1.06.15-2.31.3-3.75.47l-4,.47c-1.53.19-3.05.38-4.53.58q2.88-9.59,5.68-18.87l2.42-8.13q1.26-4.26,2.52-8.46t2.41-8.1c.77-2.6,1.44-5,2-7.13,3.27-.24,6.59-.53,10-.87s6.68-.79,9.9-1.36c-.15,1.53-.3,3.44-.47,5.72s-.33,4.76-.47,7.45-.29,5.5-.43,8.43-.29,5.8-.43,8.64q-.36,9.93-.8,21.09c-1.44.24-2.88.43-4.32.58ZM909.75,721l1,0,1.58-.07,1.55-.07a6.42,6.42,0,0,0,1-.11c0-.29,0-.78.11-1.48s.14-1.49.21-2.37.16-1.86.26-2.92.19-2.09.28-3.1q.3-3.66.72-7.92l.44-6.26-1.08.07-1.66,6.19Z"/><path class="cls-13" d="M929.33,740.53q1.65-7.92,3.17-15.62.64-3.24,1.3-6.77t1.25-6.95q.62-3.42,1.09-6.62t.82-5.87a19.64,19.64,0,0,0-3.35-.15,9.78,9.78,0,0,1-3.34-.43c0-.77.07-1.65.07-2.66s0-2,.07-3,.1-2.28.14-3.52q1.88.14,3.75.21c1.25,0,2.49.07,3.74.07,2.45,0,4.81-.06,7.1-.18s4.39-.26,6.33-.43,3.85-.37,5.72-.61l-.79,3.89c-.24,1.1-.47,2.23-.68,3.38s-.42,2.14-.61,3a20.9,20.9,0,0,1-3.21.62c-1.08.12-2.15.27-3.2.46q-.51,2.46-1.08,5.44c-.39,2-.76,4.06-1.12,6.19s-.71,4.31-1,6.52-.67,4.32-1,6.33q-1.16,7.14-2.16,14.76Z"/><path class="cls-13" d="M979.26,730a17.63,17.63,0,0,1-4.17,5.65,18.74,18.74,0,0,1-6.19,3.68,22.41,22.41,0,0,1-7.67,1.29,12,12,0,0,1-5.76-1.55,18.24,18.24,0,0,1-5.55-4.93l5.33-10.44a8,8,0,0,0,1.51,1.91,11.27,11.27,0,0,0,2.27,1.69,16.86,16.86,0,0,0,2.52,1.19,6.67,6.67,0,0,0,2.27.47,6.14,6.14,0,0,0,1.8-.29,6,6,0,0,0,1.73-.86,4.84,4.84,0,0,0,1.26-1.34,3.28,3.28,0,0,0,.47-1.76,5.22,5.22,0,0,0-1.12-3.2,16.29,16.29,0,0,0-2.77-2.81q-1.66-1.33-3.6-2.7A32.5,32.5,0,0,1,958,713.1a16.37,16.37,0,0,1-2.77-3.39,7.76,7.76,0,0,1-1.15-4.17,12.07,12.07,0,0,1,2.23-7,22.08,22.08,0,0,1,5.58-5.58,29.39,29.39,0,0,1,7.31-3.7,22.73,22.73,0,0,1,7.49-1.37,13.67,13.67,0,0,1,3.67.47,7.75,7.75,0,0,1,3,1.51,7.47,7.47,0,0,1,2,2.63,9,9,0,0,1,.76,4,11.38,11.38,0,0,1-.18,2c-.12.67-.23,1.39-.32,2.16l-10.44,3c.09-.39.18-.77.25-1.16a6.3,6.3,0,0,0,.1-1.15,5.16,5.16,0,0,0-.75-3.13,2.37,2.37,0,0,0-2-1,3.1,3.1,0,0,0-1.4.43,9.14,9.14,0,0,0-1.66,1.12,6.25,6.25,0,0,0-1.4,1.62,3.7,3.7,0,0,0-.58,2,4.31,4.31,0,0,0,1,2.88,12.44,12.44,0,0,0,2.41,2.16c1,.67,2,1.36,3.14,2a14,14,0,0,1,3.13,2.7,14.24,14.24,0,0,1,2.41,4.14,17.45,17.45,0,0,1,1,6.3A16.77,16.77,0,0,1,979.26,730Z"/><path class="cls-13" d="M994.53,737.43a7.21,7.21,0,0,1-1.77,2.42,8.57,8.57,0,0,1-2.88,1.65,11.77,11.77,0,0,1-4,.61,6.35,6.35,0,0,1-2.73-.57,5.31,5.31,0,0,1-2-1.55,7.65,7.65,0,0,1-1.19-2.2,7.22,7.22,0,0,1-.43-2.44,8,8,0,0,1,.43-2.63,6.16,6.16,0,0,1,1.33-2.23,7.33,7.33,0,0,1,2.23-1.62,7.18,7.18,0,0,1,3.21-.65q4.17,0,6.26,2a6.07,6.07,0,0,1,2.09,4.5A6.75,6.75,0,0,1,994.53,737.43Zm-4.29-13.89-4.17.29q2.22-8.87,4.35-17.64t4.43-17.64c.91-.15,2-.29,3.13-.44s2.37-.31,3.57-.5,2.36-.36,3.49-.5,2.07-.29,2.84-.44q-3.89,9.08-7.09,18.26t-6.37,18.46C993,723.39,991.63,723.44,990.24,723.54Z"/><path class="cls-13" d="M1013.46,737.43a7.31,7.31,0,0,1-1.76,2.42,8.57,8.57,0,0,1-2.88,1.65,11.81,11.81,0,0,1-4,.61,6.43,6.43,0,0,1-2.74-.57,5.31,5.31,0,0,1-2-1.55,7.9,7.9,0,0,1-1.19-2.2,7.47,7.47,0,0,1-.43-2.44,8.24,8.24,0,0,1,.43-2.63,6.16,6.16,0,0,1,1.33-2.23,7.37,7.37,0,0,1,2.24-1.62,7.11,7.11,0,0,1,3.2-.65q4.17,0,6.26,2a6,6,0,0,1,2.09,4.5A6.59,6.59,0,0,1,1013.46,737.43Zm-4.28-13.89-4.18.29q2.24-8.87,4.36-17.64t4.42-17.64c.92-.15,2-.29,3.14-.44s2.36-.31,3.56-.5,2.36-.36,3.49-.5,2.08-.29,2.85-.44q-3.9,9.08-7.1,18.26t-6.37,18.46Q1011.27,723.39,1009.18,723.54Z"/><path class="cls-13" d="M1032.4,737.43a7.21,7.21,0,0,1-1.77,2.42,8.57,8.57,0,0,1-2.88,1.65,11.77,11.77,0,0,1-4,.61,6.35,6.35,0,0,1-2.73-.57,5.31,5.31,0,0,1-2-1.55,7.65,7.65,0,0,1-1.19-2.2,7.22,7.22,0,0,1-.43-2.44,8,8,0,0,1,.43-2.63,6.16,6.16,0,0,1,1.33-2.23,7.33,7.33,0,0,1,2.23-1.62,7.18,7.18,0,0,1,3.21-.65q4.17,0,6.26,2a6.07,6.07,0,0,1,2.09,4.5A6.75,6.75,0,0,1,1032.4,737.43Zm-4.29-13.89-4.17.29q2.22-8.87,4.35-17.64t4.43-17.64c.91-.15,2-.29,3.13-.44s2.37-.31,3.57-.5,2.36-.36,3.49-.5,2.07-.29,2.84-.44q-3.88,9.08-7.09,18.26t-6.37,18.46C1030.9,723.39,1029.5,723.44,1028.11,723.54Z"/><path class="cls-13" d="M1051.33,737.43a7.31,7.31,0,0,1-1.76,2.42,8.57,8.57,0,0,1-2.88,1.65,11.81,11.81,0,0,1-4,.61,6.43,6.43,0,0,1-2.74-.57,5.31,5.31,0,0,1-2-1.55,7.9,7.9,0,0,1-1.19-2.2,7.47,7.47,0,0,1-.43-2.44,8.24,8.24,0,0,1,.43-2.63,6.16,6.16,0,0,1,1.33-2.23,7.37,7.37,0,0,1,2.24-1.62,7.11,7.11,0,0,1,3.2-.65q4.17,0,6.26,2a6,6,0,0,1,2.09,4.5A6.59,6.59,0,0,1,1051.33,737.43Zm-4.28-13.89-4.18.29q2.24-8.87,4.36-17.64t4.42-17.64c.92-.15,2-.29,3.14-.44s2.36-.31,3.56-.5,2.36-.36,3.49-.5,2.08-.29,2.85-.44q-3.89,9.08-7.09,18.26t-6.38,18.46Q1049.13,723.39,1047.05,723.54Z"/><path class="cls-13" d="M734.79,825.78l3.31-14.47c0-2.07,0-4.31-.11-6.74s-.18-4.86-.32-7.3-.29-4.82-.43-7.1-.27-4.29-.36-6-.24-3.69-.43-5.8l11.73-4.46v12.45c0,1.25,0,2.47,0,3.67s0,2.33,0,3.39V796c.62-1.63,1.38-3.64,2.27-6s1.71-4.72,2.48-7q1.36-4,2.81-8.35l11.16,2.52q-3.11,6.2-6.05,12.31c-.81,1.78-1.68,3.61-2.59,5.51s-1.83,3.79-2.74,5.69l-2.66,5.5c-.86,1.78-1.66,3.44-2.38,5q-.36,1.88-.9,4.11c-.36,1.48-.71,2.9-1,4.24-.43,1.59-.89,3.17-1.37,4.76Z"/><path class="cls-13" d="M794.44,799a48.64,48.64,0,0,1-3.35,9.58,39.07,39.07,0,0,1-4.86,7.77,37.59,37.59,0,0,1-5.79,5.83,25.07,25.07,0,0,1-6.12,3.68,15.68,15.68,0,0,1-5.91,1.26,10.19,10.19,0,0,1-4.32-.9,9.5,9.5,0,0,1-3.38-2.67,12.91,12.91,0,0,1-2.27-4.53,23.55,23.55,0,0,1-.83-6.66,38.78,38.78,0,0,1,1-8.5,60.65,60.65,0,0,1,2.74-8.86,48.89,48.89,0,0,1,4.24-8.35,41.89,41.89,0,0,1,5.55-7,26.18,26.18,0,0,1,6.48-4.86,15.37,15.37,0,0,1,7.2-1.8,10,10,0,0,1,5.36,1.33,9.56,9.56,0,0,1,3.32,3.46,15.89,15.89,0,0,1,1.69,4.79,29.05,29.05,0,0,1,.5,5.33A47.29,47.29,0,0,1,794.44,799Zm-25.81,13.14a5,5,0,0,0,.79,1.51,4.87,4.87,0,0,0,1.26,1.12,3,3,0,0,0,1.62.47,8.44,8.44,0,0,0,5.76-2.24,18.4,18.4,0,0,0,4.18-5.47,31.86,31.86,0,0,0,2.55-6.91,28.36,28.36,0,0,0,.9-6.7,18.09,18.09,0,0,0-.1-1.87,7.87,7.87,0,0,0-.44-1.87,3.6,3.6,0,0,0-1-1.48,2.66,2.66,0,0,0-1.83-.61,8.26,8.26,0,0,0-4.25,1.15,13.06,13.06,0,0,0-3.49,3.06,22.24,22.24,0,0,0-2.7,4.32,41.84,41.84,0,0,0-2,4.9,29.62,29.62,0,0,0-1.19,4.86,27.88,27.88,0,0,0-.36,4.1A5.33,5.33,0,0,0,768.63,812.17Z"/><path class="cls-13" d="M818,819.8a17.69,17.69,0,0,1-4.32,4.75,17.12,17.12,0,0,1-5.29,2.74,18.83,18.83,0,0,1-5.61.86,11.31,11.31,0,0,1-3.39-.54,9.51,9.51,0,0,1-3.09-1.62,8.68,8.68,0,0,1-2.27-2.73,8,8,0,0,1-.9-3.89v-.58a2.22,2.22,0,0,1,.07-.57q.29-3,.94-7.13c.43-2.78.88-5.69,1.36-8.71s1-6.06,1.59-9.11,1.09-5.82,1.55-8.32.85-4.57,1.18-6.22.56-2.68.65-3.06l3.6-.36c1.39-.15,2.69-.27,3.89-.36l4.39-.44q-1.87,8.72-3.31,15.77c-.43,2-.85,4-1.26,6.05s-.79,3.86-1.15,5.54-.67,3.14-.94,4.36-.48,2.22-.65,3-.36,1.74-.57,2.91a17.66,17.66,0,0,0-.33,3.21,3.1,3.1,0,0,0,.58,1.91,1.74,1.74,0,0,0,1.44.75,2.49,2.49,0,0,0,2-1,9.06,9.06,0,0,0,1.33-2.34,14.73,14.73,0,0,0,.79-2.77c.17-.94.32-1.67.47-2.2.29-1.39.61-2.94,1-4.64s.72-3.48,1.08-5.33.72-3.73,1.08-5.65.71-3.79,1-5.62q1.23-6.33,2.38-13.1l10.94-.72c-.48,2.49-.91,4.78-1.29,6.84s-.81,4.41-1.26,7-1,5.39-1.55,8.25-1.14,5.66-1.69,8.42-1.09,5.29-1.62,7.6A23.07,23.07,0,0,1,818,819.8Z"/><path class="cls-13" d="M857.62,826.07l-3.89.64c.19-1.58.38-3.14.58-4.68.14-1.34.27-2.68.39-4s.23-2.49.33-3.45h-6.27l-2.88,10.36c-1,.15-2.3.3-3.74.47l-4,.47-4.54.58q2.88-9.58,5.69-18.87l2.41-8.13q1.26-4.26,2.52-8.46c.84-2.81,1.65-5.51,2.41-8.1s1.44-5,2-7.13c3.26-.24,6.59-.53,10-.87s6.68-.79,9.9-1.36q-.21,2.29-.47,5.72c-.17,2.28-.32,4.76-.47,7.45s-.28,5.5-.43,8.43-.28,5.8-.43,8.64q-.36,9.93-.79,21.09c-1.44.24-2.88.43-4.32.58Zm-7.13-18.72,1,0,1.58-.07,1.55-.07a6.58,6.58,0,0,0,1-.11c0-.29,0-.78.1-1.48s.15-1.49.22-2.37.15-1.86.25-2.92.19-2.09.29-3.1q.29-3.66.72-7.92l.43-6.26-1.08.07L855,789.27Z"/><path class="cls-13" d="M866.55,826.93q1.94-9.57,3.74-18.72.65-3.88,1.44-8.1t1.48-8.35c.45-2.76.89-5.43,1.29-8s.73-4.91,1-7a50.75,50.75,0,0,1,8.86-1.91,73.4,73.4,0,0,1,9.43-.61,14.24,14.24,0,0,1,4.65.64,6.86,6.86,0,0,1,2.88,1.84,7,7,0,0,1,1.47,2.77,13.34,13.34,0,0,1,.43,3.53,16.46,16.46,0,0,1-1,5.65,24.46,24.46,0,0,1-2.7,5.26,27.14,27.14,0,0,1-3.89,4.53,20.87,20.87,0,0,1-4.72,3.35c.87,1.92,1.79,4,2.78,6.3s1.9,4.45,2.77,6.52q1.44,3.6,3,7.2l-11.16,3.89c-1-3.32-1.83-6.44-2.59-9.36-.34-1.2-.68-2.44-1-3.71s-.65-2.47-.94-3.6-.53-2.13-.72-3a19.32,19.32,0,0,1-.36-2l-.93.29q-.43,2.31-1,5.62c-.4,2.21-.78,4.34-1.11,6.41-.43,2.44-.87,5-1.3,7.56Zm16.92-31.25a10,10,0,0,0,3.34-1.15,23.75,23.75,0,0,0,3.79-2.41,21.74,21.74,0,0,0,3.09-2.92,4.41,4.41,0,0,0,1.3-2.66,1.62,1.62,0,0,0-.51-1.26,3.36,3.36,0,0,0-1.4-.72,9.74,9.74,0,0,0-2-.33c-.72,0-1.47-.07-2.23-.07-.53,0-1.07,0-1.62,0l-1.48,0Z"/><path class="cls-13" d="M898.8,826.93l9.43-51.19,22.76-2q-.51,1.59-.87,3.24c-.24.92-.47,1.87-.68,2.85s-.4,1.86-.54,2.63c-.48,0-1.17.08-2,.1l-2.85.08q-1.51,0-3.06,0h-2.7l-2.52,12.89c1.49-.1,2.88-.17,4.18-.22,1.05,0,2.13-.07,3.24-.07s1.92,0,2.45-.07q-.3,2-.54,4c-.17,1.3-.38,2.62-.62,4-.48.05-1.26.08-2.34.11s-2.17.06-3.27.11l-4.11.14-2.44,13.25,10.51-1.66-.72,8.21Z"/><path class="cls-13" d="M968.14,814.26a16.45,16.45,0,0,1-3.32,4.57,22.56,22.56,0,0,1-4.85,3.6,35.15,35.15,0,0,1-5.84,2.59,39.6,39.6,0,0,1-6.26,1.59,37.12,37.12,0,0,1-6.16.54,26.87,26.87,0,0,1-5-.44,235.89,235.89,0,0,0,5.51-25.38q2.06-12.78,3.93-25.74,3.74-.78,7.77-1.4a55.43,55.43,0,0,1,8.35-.61,18.11,18.11,0,0,1,3.82.43,10.2,10.2,0,0,1,3.67,1.58,9.52,9.52,0,0,1,2.77,3,9.1,9.1,0,0,1,1.12,4.75,14.3,14.3,0,0,1-.9,5.11,18.55,18.55,0,0,1-2.3,4.32,16.51,16.51,0,0,1-3.21,3.35,14.21,14.21,0,0,1-3.67,2.12,10,10,0,0,1,1.94,1.44,13.17,13.17,0,0,1,1.88,2.2,11.34,11.34,0,0,1,1.4,3,13,13,0,0,1,.54,3.89A12.45,12.45,0,0,1,968.14,814.26Zm-15.81-9.9c-.17.89-.32,1.74-.47,2.55s-.3,1.67-.46,2.56-.35,1.93-.54,3.13a29.67,29.67,0,0,0,3.09-.5,14.2,14.2,0,0,0,3.31-1.12,7.91,7.91,0,0,0,2.67-2,4.54,4.54,0,0,0,1.08-3.06,3.33,3.33,0,0,0-.69-2.16,5.51,5.51,0,0,0-1.72-1.44,8,8,0,0,0-2.27-.83,11.38,11.38,0,0,0-2.31-.25h-.61a2.11,2.11,0,0,0-.54.07Q952.58,803,952.33,804.36Zm3.46-18.61c-.12.72-.25,1.47-.4,2.26s-.3,1.58-.46,2.34-.31,1.44-.4,2a26.69,26.69,0,0,0,3.17-.79,21.84,21.84,0,0,0,2.84-1.12,8.13,8.13,0,0,0,2-1.33,2.17,2.17,0,0,0,.75-1.58,2.45,2.45,0,0,0-.65-1.77,4.74,4.74,0,0,0-1.69-1.11,9.39,9.39,0,0,0-2.16-.62,13.82,13.82,0,0,0-2-.18h-.72C956,784.4,955.91,785,955.79,785.75Z"/><path class="cls-13" d="M967.92,826.93q2-9.57,3.74-18.72.66-3.88,1.44-8.1t1.48-8.35c.46-2.76.89-5.43,1.3-8s.73-4.91,1-7a50.63,50.63,0,0,1,8.85-1.91,73.44,73.44,0,0,1,9.44-.61,14.18,14.18,0,0,1,4.64.64,6.48,6.48,0,0,1,4.36,4.61,13.76,13.76,0,0,1,.43,3.53,16.47,16.47,0,0,1-1,5.65,23.59,23.59,0,0,1-2.7,5.26,26.68,26.68,0,0,1-3.89,4.53,20.6,20.6,0,0,1-4.71,3.35q1.29,2.88,2.77,6.3c1,2.28,1.91,4.45,2.77,6.52q1.44,3.6,3,7.2l-11.16,3.89q-1.44-5-2.59-9.36c-.34-1.2-.67-2.44-1-3.71s-.65-2.47-.93-3.6-.53-2.13-.72-3a15.13,15.13,0,0,1-.36-2l-.94.29q-.43,2.31-1,5.62c-.41,2.21-.78,4.34-1.12,6.41q-.64,3.66-1.3,7.56Zm16.92-31.25a10,10,0,0,0,3.35-1.15,23.66,23.66,0,0,0,3.78-2.41,21.21,21.21,0,0,0,3.09-2.92,4.35,4.35,0,0,0,1.3-2.66,1.65,1.65,0,0,0-.5-1.26,3.46,3.46,0,0,0-1.41-.72,9.74,9.74,0,0,0-2-.33c-.72,0-1.46-.07-2.23-.07-.53,0-1.07,0-1.62,0l-1.48,0Z"/><path class="cls-13" d="M1022.14,826.07l-3.89.64q.29-2.37.57-4.68c.15-1.34.28-2.68.4-4s.23-2.49.32-3.45h-6.26l-2.88,10.36c-1.06.15-2.3.3-3.75.47l-4,.47-4.53.58q2.88-9.58,5.68-18.87l2.42-8.13q1.26-4.26,2.52-8.46t2.41-8.1c.77-2.6,1.44-5,2-7.13q4.89-.36,10-.87c3.38-.33,6.68-.79,9.9-1.36-.15,1.53-.3,3.44-.47,5.72s-.32,4.76-.47,7.45-.29,5.5-.43,8.43-.29,5.8-.43,8.64q-.36,9.93-.79,21.09c-1.45.24-2.89.43-4.32.58ZM1015,807.35l1,0,1.59-.07,1.54-.07a6.42,6.42,0,0,0,1-.11c0-.29,0-.78.11-1.48s.14-1.49.21-2.37.16-1.86.26-2.92.19-2.09.28-3.1q.3-3.66.72-7.92l.44-6.26-1.08.07-1.66,6.19Z"/><path class="cls-13" d="M1039.63,825.6c-1.25.12-2.54.26-3.89.43s-2.55.32-3.63.47a12.82,12.82,0,0,0-1.77.29c.58-2.07,1.15-4.36,1.73-6.88s1.16-5.16,1.76-7.92,1.18-5.55,1.73-8.39,1.09-5.57,1.62-8.21q1.8-9.21,3.53-18.93l11.23-1.8q-1.87,9.65-3.74,18.93-.79,4-1.62,8.21t-1.59,8.43q-.75,4.17-1.51,8.1c-.5,2.61-1,5-1.33,7.09Q1041.51,825.42,1039.63,825.6Z"/><path class="cls-13" d="M1045.61,827.22q2-10.15,3.89-19.8c.47-2.69,1-5.51,1.54-8.46s1.07-5.86,1.55-8.71.92-5.62,1.33-8.28.73-5.1,1-7.31l4.33-.29c1.24-.1,2.51-.18,3.81-.25s2.45-.16,3.46-.25q.93,5.53,1.65,10.58c.24,1.44.5,2.94.76,4.5s.51,3.06.76,4.5.47,2.82.72,4.14.47,2.48.72,3.49c.19-1,.4-2.17.64-3.49s.51-2.71.8-4.18.58-3,.89-4.5.62-3,.91-4.46q1.07-5,2.23-10.51l8.78-1.08q-2.44,10.8-4.32,20.45c-.57,2.78-1.14,5.59-1.69,8.42s-1.07,5.57-1.55,8.21-.89,5.07-1.22,7.31-.6,4.11-.8,5.65c-.14,0-.7.11-1.69.32l-3.38.76c-1.27.29-2.55.59-3.82.9s-2.22.56-2.84.75q-.51-5.82-1.08-11.08c-.15-1.49-.31-3-.5-4.61s-.38-3.1-.54-4.54-.34-2.79-.51-4.07-.32-2.34-.47-3.2c-.14.86-.33,1.92-.57,3.17s-.48,2.58-.72,4-.48,2.88-.72,4.4-.51,3-.79,4.42q-.95,5.11-2,10.66Z"/><path class="cls-13" d="M1086.65,825.6c-1.25.12-2.55.26-3.89.43s-2.56.32-3.64.47a12.49,12.49,0,0,0-1.76.29q.86-3.1,1.73-6.88t1.76-7.92c.6-2.76,1.18-5.55,1.73-8.39s1.09-5.57,1.62-8.21q1.8-9.21,3.53-18.93l11.23-1.8q-1.87,9.65-3.75,18.93l-1.62,8.21q-.83,4.25-1.58,8.43c-.5,2.78-1,5.48-1.51,8.1s-1,5-1.33,7.09Q1088.51,825.42,1086.65,825.6Z"/><path class="cls-13" d="M1114.73,826.07l-3.89.64q.29-2.37.57-4.68c.15-1.34.28-2.68.4-4s.23-2.49.32-3.45h-6.26L1103,824.91c-1.06.15-2.3.3-3.74.47l-4,.47-4.53.58q2.88-9.58,5.69-18.87c.76-2.59,1.57-5.3,2.41-8.13s1.68-5.66,2.52-8.46,1.64-5.51,2.41-8.1,1.44-5,2-7.13q4.89-.36,10-.87c3.38-.33,6.68-.79,9.9-1.36-.15,1.53-.3,3.44-.47,5.72s-.32,4.76-.47,7.45-.29,5.5-.43,8.43-.29,5.8-.43,8.64q-.36,9.93-.79,21.09c-1.44.24-2.88.43-4.32.58Zm-7.13-18.72,1,0,1.59-.07,1.54-.07a6.42,6.42,0,0,0,1-.11c0-.29,0-.78.11-1.48s.14-1.49.22-2.37.15-1.86.25-2.92.19-2.09.29-3.1q.28-3.66.72-7.92l.43-6.26-1.08.07-1.66,6.19Z"/><path class="cls-13" d="M1149.68,818.25a27.41,27.41,0,0,1-4.46,4.9,17.12,17.12,0,0,1-4.72,2.92,12.59,12.59,0,0,1-4.61.93,8.21,8.21,0,0,1-4.06-1,9.27,9.27,0,0,1-3.21-3,16.9,16.9,0,0,1-2.19-5,25.4,25.4,0,0,1-.83-6.91,48.64,48.64,0,0,1,1.87-13.36,43.78,43.78,0,0,1,5.26-11.84,29.58,29.58,0,0,1,8-8.46,17.66,17.66,0,0,1,10.26-3.2,7.94,7.94,0,0,1,3.32.72,8.2,8.2,0,0,1,2.73,2,9.83,9.83,0,0,1,1.84,3.17,12.26,12.26,0,0,1,.68,4.18v.9a6.61,6.61,0,0,1-.07,1l-9.43,2.52c-.58-1.2-1.25-1.8-2-1.8a3.47,3.47,0,0,0-2.41,1.33,18.1,18.1,0,0,0-2.48,3.46,47.72,47.72,0,0,0-2.38,4.75q-1.15,2.63-2,5.29t-1.4,5.08a18.68,18.68,0,0,0-.54,3.92,6.21,6.21,0,0,0,.61,3.24,1.88,1.88,0,0,0,1.62.94,3.56,3.56,0,0,0,1.8-.62,7.86,7.86,0,0,0,1.87-1.58,13.62,13.62,0,0,0,1.59-2.2,9,9,0,0,0,1-2.44l8.2,3.31A35.82,35.82,0,0,1,1149.68,818.25Z"/><text class="cls-14" transform="translate(1053.14 722)"> </text><g id="brainNEW-2" data-name="brainNEW"><ellipse class="cls-15" cx="1135.67" cy="717.93" rx="16.48" ry="30.59" transform="translate(212.53 1694.14) rotate(-78.9)"/><path class="cls-15" d="M1089.93,705.23c-.81.12-8.9,1.4-11.45,7.22s1.58,12.88,6.81,14.83c3,1.11,5.09.1,7.5,1.71,3,2,1.12,4.44,3.41,6.59,4,3.69,12.44-.79,23.21,3.13,5.36,1.95,4,3.35,9.08,4.86,8.9,2.67,14.44-1.26,20.28,2.08,3.22,1.85,3.25,4,6.32,4.56,3.64.64,7.11-1.79,7.68-2.19a10.66,10.66,0,0,0,2.72-2.87c3.18-5.34-2.73-13.24-3.23-13.89"/><path class="cls-15" d="M1163.1,749.06a12.9,12.9,0,0,0,8.73,2c3.81-.62,7.68-3.36,7.45-6s-4.41-3.79-4-5.77c.3-1.44,2.58-1.09,4.27-2.9,2.32-2.47,1.19-6.46.06-10.45-1-3.39-1.68-5.94-4-7s-4.19.09-5.21-1,.94-2.89.9-6.05c0-3.46-2.59-6.82-5.44-8.54-1.8-1.09-1.83-.38-7-1.88-5.76-1.67-7.62-3.08-10.87-2.64a10,10,0,0,0-3.67,1.28"/><path class="cls-15" d="M1149.06,709a14.46,14.46,0,0,0-6.7-10.54c-6.79-4.32-17.84-4.26-25.62,1.12"/><path class="cls-15" d="M1115.81,696.35c-6.59-3.89-15.09-3.91-20-.38a9.4,9.4,0,0,0-3,12"/><path class="cls-15" d="M1090.16,710.34c-1.49-9.82,4.58-18.68,12.93-20.61,9.63-2.23,20.72,5.15,22.25,16.67"/><path class="cls-15" d="M1151.6,710.47c.86,0,8.25.38,13.1,5.17,4.17,4.13,4.73,9.84,1.28,14.22"/><path class="cls-15" d="M1114.19,725.38a26.37,26.37,0,0,1,16.55-1.25,23.92,23.92,0,0,1,15.6,11.58"/><path class="cls-15" d="M1081,718.27a38.71,38.71,0,0,1,6.85-3.53c3.2-1.29,6-1.92,7-1.6"/><path class="cls-15" d="M1105.15,731.29c-3.05.81-6.64.35-8.54-.85a3.07,3.07,0,0,1-1.48-1.93"/><path class="cls-15" d="M1126.23,739.1a12.52,12.52,0,0,1,4.8-.48,13.39,13.39,0,0,1,5.6,1.81"/><path class="cls-15" d="M1159.26,730.3a4.92,4.92,0,0,1-5.18,7.8"/><path class="cls-15" d="M1160.46,739.61a11.14,11.14,0,0,1,2.46,5.86,8.43,8.43,0,0,1-.63,3.93"/><path class="cls-15" d="M1105.25,714.11c-5-1.42-7.94-5.69-7.4-9.4.78-5.42,8.63-6.66,9.2-6.75,6.68-1,11.54,4,12.12,4.62"/></g></svg>