<svg id="Layer_1" data-name="Layer 1" xmlns="http://www.w3.org/2000/svg" viewBox="0 0 1250 700"><defs><style>.cls-1{fill:none;}.cls-1,.cls-17,.cls-2,.cls-3,.cls-4,.cls-5,.cls-6,.cls-7,.cls-8,.cls-9{stroke:#000;}.cls-1,.cls-13,.cls-17,.cls-2,.cls-3,.cls-4,.cls-5,.cls-6,.cls-7,.cls-8,.cls-9{stroke-miterlimit:10;}.cls-2{fill:#dfb7d9;}.cls-3{fill:#fbb03b;}.cls-4{fill:#d3efd1;}.cls-5{fill:#feefd8;}.cls-6{fill:#a8dfa2;}.cls-7{fill:#e6b695;}.cls-8{fill:#649e39;}.cls-9{fill:#54593f;}.cls-10{opacity:0.45;}.cls-11{fill:#fff;}.cls-12{fill:#d00034;}.cls-13,.cls-18{fill:#fed6ff;}.cls-13{stroke:#c291c2;stroke-width:3px;}.cls-14{fill:#005ed0;}.cls-15{font-size:35.9px;font-family:MyriadPro-Regular, Myriad Pro;}.cls-16{opacity:0.9;}.cls-17{fill:#e6e6e6;stroke-width:2px;}</style></defs><g id="logo"><g id="logo-extended"><g id="Book3"><ellipse class="cls-1" cx="979.42" cy="335.17" rx="5.49" ry="8.55" transform="translate(272.02 1090.93) rotate(-65.78)"/><path class="cls-2" d="M1092.13,378.54,981.74,341.76a12,12,0,0,1-7.56-15.12L1036,143.07a12,12,0,0,1,15.19-7.53l110.38,36.78a12,12,0,0,1,7.57,15.11L1107.32,371A12.05,12.05,0,0,1,1092.13,378.54Z"/><path class="cls-3" d="M1085.29,375.1,979.67,339.91a12,12,0,0,1-7.57-15.12l62.23-184.9a12.06,12.06,0,0,1,15.19-7.54l105.62,35.2a12,12,0,0,1,7.57,15.11l-62.23,184.91A12,12,0,0,1,1085.29,375.1Z"/><polygon class="cls-4" points="1103.2 241.06 1046.67 222.22 1059.63 183.7 1116.16 202.54 1103.2 241.06"/></g><g id="Book2"><ellipse class="cls-1" cx="295.06" cy="247.73" rx="7.39" ry="4.8" transform="matrix(0.98, -0.2, 0.2, 0.98, -43.75, 64.32)"/><path class="cls-5" d="M401,218.44,294.78,252.89a4.81,4.81,0,0,1-6-3.08l-57-171.52a4.75,4.75,0,0,1,3-6L341,37.82a4.83,4.83,0,0,1,6,3.09l57,171.52A4.75,4.75,0,0,1,401,218.44Z"/><path class="cls-6" d="M394.46,219.55,292.38,252.66a4.83,4.83,0,0,1-6-3.08L229,76.89a4.75,4.75,0,0,1,3-6L334.06,37.76a4.83,4.83,0,0,1,6,3.09l57.38,172.69A4.74,4.74,0,0,1,394.46,219.55Z"/><polygon class="cls-2" points="331.32 117.88 282.39 133.75 271.19 100.02 320.12 84.15 331.32 117.88"/></g><g id="Book1"><ellipse class="cls-7" cx="580.22" cy="222.27" rx="5.68" ry="3.44" transform="translate(-41.02 211.5) rotate(-19.97)"/><path class="cls-7" d="M499.46,247.17l83.05-21.93a3.56,3.56,0,0,0,2.65-4.25l-33-125.09a3.55,3.55,0,0,0-4.4-2.39l-83.05,21.94A3.57,3.57,0,0,0,462,119.7l33,125.09A3.56,3.56,0,0,0,499.46,247.17Z"/><path class="cls-7" d="M504.15,245.22,584,224.14a3.57,3.57,0,0,0,2.66-4.25L553.37,94a3.55,3.55,0,0,0-4.4-2.39l-79.83,21.09a3.56,3.56,0,0,0-2.65,4.25l33.25,125.94A3.56,3.56,0,0,0,504.15,245.22Z"/><rect class="cls-8" x="499.74" y="129.26" width="39.57" height="25.45" transform="matrix(0.97, -0.26, 0.26, 0.97, -19.03, 137.4)"/></g><g id="Book2-2" data-name="Book2"><ellipse class="cls-1" cx="781.99" cy="230.99" rx="4.8" ry="7.39" transform="translate(323.93 905.56) rotate(-72.28)"/><path class="cls-5" d="M888.61,257.68,779.19,235.34a4.79,4.79,0,0,1-3.71-5.64L811.2,52.56a4.78,4.78,0,0,1,5.6-3.75L926.22,71.15a4.79,4.79,0,0,1,3.71,5.64L894.21,253.93A4.78,4.78,0,0,1,888.61,257.68Z"/><path class="cls-9" d="M882.39,255.43,777.22,234a4.8,4.8,0,0,1-3.71-5.65L809.47,50a4.78,4.78,0,0,1,5.6-3.75L920.24,67.69A4.8,4.8,0,0,1,924,73.34L888,251.68A4.78,4.78,0,0,1,882.39,255.43Z"/><polygon class="cls-2" points="878.04 135.98 827.63 125.69 834.66 90.85 885.07 101.14 878.04 135.98"/></g><g id="like_ig" data-name="like ig" class="cls-10"><path class="cls-11" d="M108,331.94a4.36,4.36,0,0,1-3.72-2L72.47,280.31a4.22,4.22,0,0,1-.56-3.22,4.49,4.49,0,0,1,2-2.86l73.64-46.67a4.59,4.59,0,0,1,2.47-.72,4.36,4.36,0,0,1,3.71,2l31.79,49.65a4.22,4.22,0,0,1,.55,3.22,4.51,4.51,0,0,1-2,2.86L160.2,299.69l1.05,30.08L134.3,316.1l-23.86,15.13A4.7,4.7,0,0,1,108,331.94Z"/><path d="M150,229.34a1.88,1.88,0,0,1,1.61.83l31.78,49.65a1.69,1.69,0,0,1,.22,1.33,2.06,2.06,0,0,1-.91,1.29l-22.67,14.37-2.42,1.53.1,2.86.86,24.42L136.7,314.51l-2.53-1.28-2.41,1.52L109.1,329.11a2.07,2.07,0,0,1-1.14.33,1.9,1.9,0,0,1-1.61-.83L74.57,279a1.78,1.78,0,0,1-.22-1.33,2,2,0,0,1,.92-1.29l73.63-46.67a2.09,2.09,0,0,1,1.14-.33m0-5a7.16,7.16,0,0,0-3.81,1.1L72.59,272.12a6.92,6.92,0,0,0-2.23,9.54l31.78,49.65a6.87,6.87,0,0,0,5.82,3.13,7.13,7.13,0,0,0,3.82-1.1L134.44,319l29.46,14.94L162.75,301l22.66-14.36a6.93,6.93,0,0,0,2.23-9.55l-31.78-49.65a6.87,6.87,0,0,0-5.82-3.13Z"/><path class="cls-12" d="M141.4,298.82s9.62-20.9,9.18-31.26l-.11-2.31a14,14,0,0,0-2.1-5.86,14.85,14.85,0,0,0-27.14,7.95,14.9,14.9,0,0,0-14,1.08,14.51,14.51,0,0,0-4.7,20,14.09,14.09,0,0,0,4.44,4.36L109,293.9c9.25,4.78,32.35,4.94,32.35,4.94Z"/></g><g id="logo-2" data-name="logo"><g id="brainNEW"><ellipse class="cls-13" cx="672.2" cy="341.06" rx="329.61" ry="142.53" transform="translate(-4.32 8.66) rotate(-0.74)"/><path class="cls-13" d="M161.87,316c-8.31,2.45-90.82,27.83-105,81.71-13.91,52.76,44.72,106.08,104.21,113.19,33.62,4,53.86-8.36,82.88.95,35.77,11.47,21.45,35.54,50.36,49.58,49.77,24.17,129.54-29.09,251.72-15.29,60.77,6.86,50,21,106.39,24.76C752.15,577.5,802,534.28,871,552.06c38,9.78,43,28.08,76.58,27.14,39.77-1.11,71.09-27.89,76.24-32.29,0,0,15.58-13.32,22.42-29.25,21.84-50.88-57.67-107-64.42-111.69"/><path class="cls-13" d="M1029.56,555.08c8.48,2.59,51.36,15,96.36.88,38.84-12.16,73.64-42.25,65.42-64.29s-54.78-24.09-54.73-41.59c0-12.76,24.79-13.92,38.73-32.22,19.1-25.08-1.56-56.81-22.22-88.54-17.56-27-30.72-47.2-57.87-52.13-25.94-4.7-44,8.27-57.21.74-14.53-8.3,3.68-26.14-3.69-52.82-8-29.15-42.22-53.05-76.07-62.47-21.31-5.93-20,.12-78.33-3.23-64.45-3.7-87.12-12.31-120.48-2.68a115.1,115.1,0,0,0-35.91,17.38"/><path class="cls-13" d="M794,241.62c-4-9.77-24.59-56.39-93.81-77.15-81-24.3-197.46-3.86-267.78,55.67"/><path class="cls-13" d="M415.54,194.24c-78.07-21-167.79-5.82-211.72,32.86-34.78,30.62-36.59,72.19-5.26,106.55"/><path class="cls-13" d="M175.41,358.82C138.3,278.47,183,192.58,266.84,161.21c96.8-36.21,229.84,6.25,271.2,100.9"/><path class="cls-13" d="M824,249.27c9.1-1.29,87.85-11.62,149.42,20.19,53,27.39,71.38,74.69,44.61,118"/><path class="cls-13" d="M461.83,442.79c11.71-6.78,76-42.65,171.85-40.39,121.87,2.89,184.92,64.88,189.84,69.9"/><path class="cls-13" d="M96,442.43c3-2.45,27.06-22.09,64.53-42.19,31-16.65,58.82-27,70.71-26.23"/><path class="cls-13" d="M379.3,509.12c-30.43,12.31-69.25,14.93-91.87,8.16-12.65-3.79-17.75-9.77-19.88-13.7"/><path class="cls-13" d="M618.83,537.21c8.29-3.74,25.35-10.38,49.56-12.69a176.92,176.92,0,0,1,63.05,5.22"/><path class="cls-13" d="M948.08,403.27c1.87,1.35,22.56,16.82,18.68,38.08-3.62,19.79-27,36.2-56.36,37.23"/><path class="cls-13" d="M981,479.89c11.2,7.53,30.65,22.78,38.72,45.13a59.34,59.34,0,0,1,2,34.36"/><path class="cls-13" d="M342.85,363.58c-55.42-3.06-96.19-33.87-98.61-66.26-3.51-47.26,76.6-71.89,82.36-73.59,68.36-20.18,130.46,13,137.94,17.18"/></g><g id="logo-3" data-name="logo"><path class="cls-14" d="M312.49,425.13A65.73,65.73,0,0,1,300,443.53a88,88,0,0,1-18.54,14.6,134.23,134.23,0,0,1-22.34,10.63A150.33,150.33,0,0,1,235,475.38a138.48,138.48,0,0,1-23.69,2.46,99.68,99.68,0,0,1-19.16-1.48,980.74,980.74,0,0,0,19.92-101.5Q219.36,323.8,225.9,272q14.39-3.35,29.89-6a208.1,208.1,0,0,1,32.15-2.85,68,68,0,0,1,14.72,1.53,37.43,37.43,0,0,1,25.07,18.06q4.39,7.42,4.54,18.9a58.77,58.77,0,0,1-3.2,20.44,75.57,75.57,0,0,1-8.66,17.34A64.54,64.54,0,0,1,308.24,353a55,55,0,0,1-14,8.65,37.4,37.4,0,0,1,7.56,5.65,52.35,52.35,0,0,1,7.33,8.67,45.17,45.17,0,0,1,5.56,11.85,53.26,53.26,0,0,1,2.28,15.48A50.69,50.69,0,0,1,312.49,425.13Zm-61.4-38.7q-.9,5.32-1.67,10.21c-.51,3.27-1.07,6.67-1.67,10.22s-1.24,7.73-1.92,12.52a119.08,119.08,0,0,0,11.9-2.16,55.27,55.27,0,0,0,12.71-4.62,30.85,30.85,0,0,0,10.16-8.17,18.51,18.51,0,0,0,4-12.26,13.8,13.8,0,0,0-2.74-8.58,22.19,22.19,0,0,0-6.74-5.66,30.71,30.71,0,0,0-8.78-3.19,43,43,0,0,0-8.89-.89l-2.35,0a8.43,8.43,0,0,0-2.08.32Q252,381.1,251.09,386.43ZM263.46,312q-.65,4.32-1.41,9.07c-.52,3.16-1.08,6.29-1.69,9.35s-1.08,5.76-1.42,8.06a94.83,94.83,0,0,0,12.17-3.31A80.34,80.34,0,0,0,282,330.6a30.69,30.69,0,0,0,7.7-5.41,8.76,8.76,0,0,0,2.83-6.36,10,10,0,0,0-2.59-7,18.57,18.57,0,0,0-6.57-4.37,36.48,36.48,0,0,0-8.36-2.34,48,48,0,0,0-7.64-.61l-2.77,0C264.26,306.65,263.88,309.15,263.46,312Z"/><path class="cls-14" d="M312.31,475.68q7-38.28,13.47-74.85,2.3-15.54,5.13-32.37t5.26-33.39q2.41-16.54,4.58-31.94t3.39-28a189.91,189.91,0,0,1,34-8,274.8,274.8,0,0,1,36.31-2.91q10.81-.13,17.93,2.36a25.74,25.74,0,0,1,11.19,7.18,27.82,27.82,0,0,1,5.83,11,55.14,55.14,0,0,1,1.84,14.05,67.6,67.6,0,0,1-3.59,22.59,95.94,95.94,0,0,1-10.14,21.1,106.63,106.63,0,0,1-14.74,18.28,81,81,0,0,1-18,13.59q5.13,11.42,11,25t11,25.85q5.73,14.29,11.75,28.57l-42.8,16.06q-5.81-19.74-10.47-37.2-2-7.15-4.07-14.74t-3.79-14.32q-1.76-6.72-2.93-11.88a74.22,74.22,0,0,1-1.49-8l-3.59,1.19q-1.55,9.23-3.74,22.46t-4,25.61q-2.31,14.67-4.61,30.22ZM375.9,350.22q5.27-.64,12.84-4.76a90.55,90.55,0,0,0,14.44-9.81A83.5,83.5,0,0,0,415,323.86q4.92-6.09,4.86-10.68a6.7,6.7,0,0,0-2-5,13,13,0,0,0-5.44-2.8,36.82,36.82,0,0,0-7.65-1.19c-2.78-.15-5.65-.22-8.6-.18-2,0-4.12.1-6.24.23s-4,.19-5.69.21Z"/><path class="cls-14" d="M521.15,469.56l-14.95,2.77q1-9.48,2-18.69.74-8.06,1.32-16.1t1.08-13.8l-24.14.31-10.57,41.49q-6.09.94-14.4,2c-5.54.75-10.71,1.43-15.51,2.07q-8.86,1.26-17.45,2.52,10.61-38.32,20.95-75.52l8.88-32.57q4.64-17,9.28-33.86t8.88-32.43q4.23-15.57,7.4-28.53,18.84-1.68,38.38-3.94t38.07-5.94q-.72,9.19-1.51,22.85T557.42,312q-.63,16.09-1.23,33.62T555,380.08q-.88,39.66-2,84.18-8.29,1.56-16.61,2.52Q529.45,468,521.15,469.56Zm-28.42-74.32c.74,0,2.08-.07,4-.19l6.1-.37,6-.36a22.63,22.63,0,0,0,3.88-.48c0-1.15.1-3.11.34-5.89s.48-5.94.71-9.49.5-7.42.82-11.64.63-8.34,1-12.37q.91-14.65,2.37-31.62l1.35-25-4.16.34L509,322.94Z"/><path class="cls-14" d="M591.73,466.78c-4.9.55-9.93,1.18-15.1,1.92s-9.83,1.42-14,2.05a51.39,51.39,0,0,0-6.78,1.23q2.61-12.37,5.33-27.5t5.56-31.66q2.84-16.54,5.39-33.53T577,346.48q5.36-36.83,10.68-75.67l43.18-7.73q-5.89,38.57-11.51,75.68-2.29,15.83-4.71,32.8t-4.84,33.67q-2.43,16.69-4.44,32.37t-3.8,28.34Q599.06,466,591.73,466.78Z"/><path class="cls-14" d="M612.2,473q7.24-40.59,14-79.16,2.57-16.11,5.53-33.82t5.52-34.82q2.55-17.13,4.71-33.09t3.37-29.2q8.58-.67,16.63-1.36c4.8-.45,9.7-.84,14.69-1.2s9.42-.74,13.3-1.17q3.89,22.07,6.92,42.13,1.5,8.59,3.14,17.91t3.15,17.91q1.5,8.59,3,16.48t3,13.89q1-6,2.31-14t2.84-16.7q1.56-8.77,3.24-18T720.7,301q3.9-20.14,8.06-42l33.79-4.75Q753.67,297.4,747,336q-3.12,16.71-6.09,33.69t-5.54,32.81q-2.58,15.82-4.34,29.21t-2.76,22.58a59.64,59.64,0,0,0-6.51,1.38q-5.67,1.37-13,3.18t-14.65,3.78q-7.34,2-10.92,3.15-2.25-23.24-4.73-44.17-.95-8.88-2.18-18.35t-2.31-18.07q-1.09-8.6-2.15-16.2t-2-12.75q-.76,5.18-2.06,12.66t-2.57,16q-1.27,8.49-2.55,17.55t-2.82,17.7q-3.34,20.43-7.22,42.6Z"/><path class="cls-14" d="M770.24,464.49q-7.2.81-15,1.92t-14,2a53.13,53.13,0,0,0-6.79,1.24q3.18-12.39,6.31-27.51t6.39-31.68Q750.46,394,753.44,377t5.82-32.81q6.47-36.86,12.63-75.7l43.18-7.74q-6.72,38.58-13.46,75.71-2.85,15.84-5.82,32.82t-5.67,33.68q-2.7,16.69-5.41,32.38t-4.77,28.35C778.28,463.67,775,464,770.24,464.49Z"/><path class="cls-14" d="M878.45,465l-14.94,2.78q1-9.5,2-18.7.72-8,1.32-16.1t1.07-13.8l-24.14.31L833.18,461q-6.1.94-14.41,2.06l-15.51,2.06-17.44,2.52q10.59-38.32,20.95-75.52,4.23-15.56,8.87-32.56t9.28-33.87q4.64-16.86,8.88-32.43t7.4-28.53Q860,263,879.58,260.74t38.07-5.94q-.71,9.19-1.51,22.85t-1.42,29.75q-.63,16.1-1.23,33.62t-1.23,34.48q-.87,39.64-2,84.18-8.29,1.54-16.61,2.51Q886.75,463.43,878.45,465ZM850,390.66c.74,0,2.08-.07,4-.2l6.1-.36q3.18-.18,6-.37a20.74,20.74,0,0,0,3.88-.48q0-1.72.34-5.89t.71-9.49q.35-5.31.82-11.64c.32-4.21.63-8.34.95-12.36q.93-14.67,2.37-31.63l1.35-25-4.16.34-6.06,24.78Z"/><path class="cls-14" d="M1012.74,432.08a109.69,109.69,0,0,1-17,19.75,64.88,64.88,0,0,1-18,11.86,47,47,0,0,1-17.71,4,31.19,31.19,0,0,1-15.72-3.82,36.43,36.43,0,0,1-12.5-11.91,68.64,68.64,0,0,1-8.72-19.7,105.76,105.76,0,0,1-3.54-27.53,200.18,200.18,0,0,1,6.53-53.36,178.18,178.18,0,0,1,19.64-47.5q12.76-21.13,30.5-34.14a66.55,66.55,0,0,1,39.37-13.29,29.72,29.72,0,0,1,12.79,2.71,31.23,31.23,0,0,1,10.65,7.91,39.36,39.36,0,0,1,7.24,12.54,49.89,49.89,0,0,1,2.85,16.62l0,3.59a27.34,27.34,0,0,1-.23,3.88l-36.21,10.52c-2.28-4.75-4.9-7.12-7.86-7.08s-6,1.85-9.22,5.43a73,73,0,0,0-9.4,13.91,198.27,198.27,0,0,0-8.91,19.07q-4.3,10.55-7.49,21.21T964.72,387a76.59,76.59,0,0,0-1.88,15.68c.08,6.13.91,10.43,2.52,12.89a7.1,7.1,0,0,0,6.29,3.65,13.31,13.31,0,0,0,6.9-2.53,31.61,31.61,0,0,0,7.14-6.41,55.71,55.71,0,0,0,6-8.83,35.81,35.81,0,0,0,3.75-9.82l31.8,12.81A146.28,146.28,0,0,1,1012.74,432.08Z"/></g></g></g><path class="cls-11" d="M660.72,96.94l-22.65.29a3.07,3.07,0,0,1-3.09-3l-.61-47.62a3.06,3.06,0,0,1,3-3.08l68.9-.89a3.06,3.06,0,0,1,3.08,3L710,93.26a3.06,3.06,0,0,1-3,3.08l-22.65.29-11.54,20.59Z"/><path d="M706.32,45.13a.56.56,0,0,1,.54.54l.62,47.62a.54.54,0,0,1-.16.38.52.52,0,0,1-.38.17l-21.21.28-2.89,0-1.41,2.52-8.71,15.55L663.61,96.9l-1.48-2.48-2.89,0L638,94.73a.57.57,0,0,1-.55-.54l-.61-47.62a.54.54,0,0,1,.16-.38.52.52,0,0,1,.38-.17l68.9-.89h0m0-5h-.08L637.35,41a5.56,5.56,0,0,0-5.48,5.62l.61,47.61A5.57,5.57,0,0,0,638,99.73h.07l21.21-.27,13.54,22.76,12.94-23.1L707,98.84a5.56,5.56,0,0,0,5.48-5.62l-.62-47.61a5.55,5.55,0,0,0-5.54-5.48Z"/><text/><text class="cls-15" transform="matrix(2.35, -0.03, 0.01, 1, 654.23, 82.39)">?</text><g id="like_ig-2" data-name="like ig" class="cls-16"><path class="cls-11" d="M48.61,636.1l-17.24,3.26-.34,0a1.67,1.67,0,0,1-1.66-1.3l-6.65-34.72A1.54,1.54,0,0,1,23,602.2a1.78,1.78,0,0,1,1.13-.74l51.49-9.75a1.87,1.87,0,0,1,.34,0A1.68,1.68,0,0,1,77.59,593l6.64,34.72a1.54,1.54,0,0,1-.25,1.17,1.72,1.72,0,0,1-1.13.73L65.6,632.88l-5.75,16Z"/><path d="M75.3,594.31l6.31,33-15.07,2.86-2.81.53-1,2.69L58.93,644l-7.5-8.51-1.89-2.13-2.79.53-15.09,2.85-6.32-33,50-9.46m.63-5.13a4.45,4.45,0,0,0-.81.08L23.64,599a4.18,4.18,0,0,0-3.38,4.83l6.65,34.72A4.17,4.17,0,0,0,31,641.89a4.4,4.4,0,0,0,.8-.07l15.85-3,13.09,14.85,6.7-18.6,15.85-3a4.17,4.17,0,0,0,3.37-4.83l-6.64-34.72a4.19,4.19,0,0,0-4.12-3.34Z"/><path class="cls-17" d="M56.06,629.12s10-9.53,12.09-15.41l.46-1.31a8.35,8.35,0,0,0,.13-3.73,8.77,8.77,0,0,0-10.34-6.84,8.93,8.93,0,0,0-6.57,5.27,8.91,8.91,0,0,0-8.06-2.49,8.73,8.73,0,0,0-7.09,10.13,8.6,8.6,0,0,0,1.5,3.42l.91,1.05c4.1,4.71,16.94,9.91,16.94,9.91Z"/></g><g id="like_ig-3" data-name="like ig" class="cls-16"><path class="cls-11" d="M1180.62,635.54l-17.42-2.24a1.75,1.75,0,0,1-1.17-.66,1.54,1.54,0,0,1-.32-1.16l4.53-35.05a1.67,1.67,0,0,1,1.69-1.4h.23l52,6.67a1.77,1.77,0,0,1,1.16.65,1.58,1.58,0,0,1,.34,1.17l-4.54,35.06a1.69,1.69,0,0,1-1.69,1.4h-.23l-17.41-2.24-10.45,13.39Z"/><path d="M1168.61,597.62l50.43,6.47-4.31,33.31-15.23-2-2.82-.36-1.76,2.25-7,8.94-4.47-10.41-1.13-2.62-2.83-.36-15.22-2,4.31-33.3m-.68-5.1a4.19,4.19,0,0,0-4.17,3.59l-4.53,35a4.17,4.17,0,0,0,3.65,4.62l16,2.06,7.81,18.16,12.18-15.6,16,2.06.55,0a4.18,4.18,0,0,0,4.17-3.58l4.54-35.06a4.19,4.19,0,0,0-3.66-4.62l-52-6.67a5.28,5.28,0,0,0-.55,0Z"/><path class="cls-17" d="M1189.88,631.21s12.51-6,16.31-10.9l.84-1.11a8.41,8.41,0,0,0,1.3-3.5,8.74,8.74,0,0,0-7.69-9.69,8.93,8.93,0,0,0-7.9,3,8.91,8.91,0,0,0-6.87-4.87,8.77,8.77,0,0,0-9.91,7.44,8.37,8.37,0,0,0,.36,3.71l.53,1.29c2.42,5.74,13,14.66,13,14.66Z"/></g><g class="cls-16"><path class="cls-18" d="M410.79,625.53q1.57-5.31,3.09-10.45c.36-1.43.76-2.93,1.21-4.49s.87-3.09,1.27-4.61.79-3,1.15-4.41.69-2.73,1-3.91l9.82-.43c-.69,1.8-1.36,3.68-2,5.63s-1.28,3.86-1.85,5.71l6-.43c.57-1.82,1.07-3.59,1.52-5.3a45.5,45.5,0,0,1,1.75-5.3c.93-.1,2-.19,3.09-.25l3.15-.17,3.46-.2c-.57,1.16-1.1,2.43-1.61,3.8s-1,2.8-1.48,4.28-.95,3-1.4,4.49-.84,3-1.21,4.32q-1.33,4.91-2.48,10l-9.46.69c.53-1.54,1-3,1.4-4.51.4-1.23.82-2.52,1.24-3.86s.76-2.48,1-3.43l-5.88.35c-.28,1-.61,2.11-1,3.39s-.74,2.51-1.06,3.67c-.44,1.38-.89,2.77-1.33,4.16Z"/><path class="cls-18" d="M469.9,610.55a20.6,20.6,0,0,1-2.82,5.13,22.11,22.11,0,0,1-4.09,4.17,29.18,29.18,0,0,1-4.88,3.12,25.36,25.36,0,0,1-5.15,2,19.8,19.8,0,0,1-5,.67,12.86,12.86,0,0,1-3.63-.48,8.49,8.49,0,0,1-2.85-1.43,6.49,6.49,0,0,1-1.91-2.43,8.37,8.37,0,0,1-.7-3.56,13.73,13.73,0,0,1,.85-4.55,24.58,24.58,0,0,1,5.88-9.22,27.87,27.87,0,0,1,4.67-3.76,23.75,23.75,0,0,1,5.45-2.6,19.22,19.22,0,0,1,6.06-1,12.14,12.14,0,0,1,4.51.72,7,7,0,0,1,2.79,1.85,6.83,6.83,0,0,1,1.43,2.56,10.11,10.11,0,0,1,.42,2.86A16.56,16.56,0,0,1,469.9,610.55Zm-21.72,7a2.56,2.56,0,0,0,.66.81,4.09,4.09,0,0,0,1.06.6,3.66,3.66,0,0,0,1.37.25,9.65,9.65,0,0,0,4.84-1.2,11.8,11.8,0,0,0,3.52-2.93,13.84,13.84,0,0,0,2.15-3.7,10.15,10.15,0,0,0,.76-3.58,6.19,6.19,0,0,0-.09-1,2.94,2.94,0,0,0-.37-1,2.18,2.18,0,0,0-.85-.79,3.09,3.09,0,0,0-1.54-.33,10.12,10.12,0,0,0-3.58.62,11.08,11.08,0,0,0-2.94,1.64,12.72,12.72,0,0,0-2.27,2.31,19.73,19.73,0,0,0-1.66,2.62,11,11,0,0,0-1,2.61,9.24,9.24,0,0,0-.31,2.19A1.82,1.82,0,0,0,448.18,617.59Z"/><path class="cls-18" d="M469.38,625.61,474,598.23c1.9-.05,3.69-.17,5.36-.36s3.35-.33,5-.41c0,0-.06.29-.18.79s-.28,1.16-.48,2-.43,1.72-.67,2.74-.6,2.41-1.06,4.18-1.08,4.23-1.85,7.37H481c1.05-2.37,1.92-4.3,2.61-5.81s1.24-2.72,1.66-3.66.83-1.84,1.21-2.72l1.09-2.43c.35-.74.62-1.37.82-1.89H489c.73,0,1.46,0,2.21-.08s1.45-.1,2.12-.17,1.36-.15,2.09-.25a9.3,9.3,0,0,0-.27,1.43c-.1.72-.23,1.59-.39,2.6s-.33,2.13-.49,3.36-.32,2.41-.48,3.58-.32,2.28-.46,3.34-.27,2-.39,2.7H494l5.75-16.59c1.38-.12,2.73-.24,4.06-.34l3.64-.31c1.25-.1,2.36-.22,3.33-.35-.6,1.08-1.21,2.28-1.81,3.61s-1.24,2.72-1.88,4.18-1.27,2.95-1.85,4.44-1.16,2.93-1.73,4.32q-1.94,4.93-3.76,10.14l-13.69,1.46,2.67-14.88H488l-6,14Z"/><path class="cls-18" d="M540.68,619.85a11.18,11.18,0,0,1-3.52,3,18.79,18.79,0,0,1-5.21,2,28.73,28.73,0,0,1-6.45.69,15,15,0,0,1-4.85-.82,15.49,15.49,0,0,1-4.67-2.65l4.49-5.59a5,5,0,0,0,1.27,1,10.56,10.56,0,0,0,1.91.91,19,19,0,0,0,2.12.64,8.8,8.8,0,0,0,1.91.25,7.49,7.49,0,0,0,1.52-.16,6.14,6.14,0,0,0,1.45-.46,3.44,3.44,0,0,0,1.06-.71,1.33,1.33,0,0,0,.39-1,2.23,2.23,0,0,0-.94-1.71,12.2,12.2,0,0,0-2.33-1.51q-1.4-.7-3-1.44a29.91,29.91,0,0,1-3-1.55,10.85,10.85,0,0,1-2.33-1.81,3.12,3.12,0,0,1-1-2.23,5,5,0,0,1,1.88-3.74,16.94,16.94,0,0,1,4.69-3,31.88,31.88,0,0,1,6.15-2,29.41,29.41,0,0,1,6.31-.73,17.91,17.91,0,0,1,3.09.25,8.51,8.51,0,0,1,2.51.81,4.85,4.85,0,0,1,1.7,1.41,3.45,3.45,0,0,1,.64,2.12,4,4,0,0,1-.16,1.08c-.1.36-.19.74-.27,1.15l-8.79,1.62a5,5,0,0,0,.22-.61,2.21,2.21,0,0,0,.09-.62,2,2,0,0,0-.64-1.68,2.53,2.53,0,0,0-1.67-.52,4,4,0,0,0-1.18.23,10.41,10.41,0,0,0-1.39.6,4.25,4.25,0,0,0-1.18.87,1.5,1.5,0,0,0-.49,1.08,1.88,1.88,0,0,0,.82,1.54,10.56,10.56,0,0,0,2,1.16c.81.36,1.69.72,2.64,1.1a11.57,11.57,0,0,1,2.63,1.44,7.58,7.58,0,0,1,2,2.22,6.3,6.3,0,0,1,.82,3.37A6.41,6.41,0,0,1,540.68,619.85Z"/><path class="cls-18" d="M539.37,625.23q2.67-5.13,5.09-10.07,1-2.08,2.13-4.36c.72-1.51,1.45-3,2.18-4.51s1.4-2.93,2-4.32,1.18-2.67,1.66-3.85q3.35,0,6.31-.23t6.42-.43c-.12.57-.25,1.2-.39,1.91s-.31,1.45-.49,2.22-.37,1.57-.57,2.39-.45,1.88-.73,3.16-.67,2.89-1.15,4.82h.79q1.76-2.93,2.9-4.88c.77-1.29,1.4-2.35,1.88-3.18s1-1.62,1.49-2.41,1-1.53,1.45-2.23.9-1.34,1.3-1.87c1-.06,2-.12,2.85-.2s1.78-.16,2.67-.25l2.7-.27,3-.33c-.4,1.5-.78,3-1.15,4.59s-.68,3.13-1,4.69-.55,3.09-.81,4.61-.5,2.95-.7,4.31q-.74,4.79-1.27,9.34l-10.55,1.19c0-.13,0-.47.09-1s.14-1.26.25-2.08.24-1.74.42-2.74.36-2,.55-3,.37-2,.57-2.91.4-1.74.61-2.41h-.55c-.56,1.08-1.19,2.22-1.88,3.41s-1.38,2.41-2.09,3.65-1.4,2.44-2.09,3.62-1.29,2.32-1.82,3.4q-2.12,0-3.63.09l-3.52.14,1.94-14.31h-.91a13.58,13.58,0,0,1-.6,1.68c-.33.78-.7,1.68-1.12,2.7s-.88,2.07-1.37,3.16-.94,2.11-1.36,3.05-.78,1.71-1.06,2.31-.45.94-.49,1Z"/><path class="cls-18" d="M597.67,625l-3.27.35c.16-.85.32-1.68.48-2.51s.24-1.44.34-2.16.19-1.33.27-1.85h-5.27l-2.43,5.56-3.15.25-3.39.25-3.82.31q2.43-5.13,4.79-10.11c.64-1.38,1.32-2.84,2-4.35s1.41-3,2.12-4.53l2-4.34c.65-1.39,1.21-2.66,1.7-3.82q4.11-.2,8.39-.46c2.85-.18,5.62-.43,8.33-.74-.12.83-.25,1.85-.39,3.07s-.27,2.55-.4,4-.24,2.94-.36,4.51-.24,3.11-.36,4.63c-.21,3.55-.43,7.31-.67,11.3-1.21.13-2.42.23-3.64.31Zm-6-10,.88,0,1.33,0,1.31,0a6.1,6.1,0,0,0,.84-.06,6.56,6.56,0,0,1,.1-.79c.06-.37.12-.79.18-1.27s.13-1,.21-1.56.16-1.12.24-1.66c.16-1.31.37-2.72.61-4.24l.36-3.36-.91,0-1.39,3.32Z"/><path class="cls-18" d="M605.18,625.5q1.65-5.13,3.16-10c.36-1.39.76-2.83,1.21-4.34s.86-3,1.24-4.47.75-2.91,1.09-4.28.62-2.63.82-3.76a65.74,65.74,0,0,1,7.45-1c2.67-.22,5.31-.33,7.94-.33a18.34,18.34,0,0,1,3.91.35,6.59,6.59,0,0,1,2.42,1,3.63,3.63,0,0,1,1.25,1.48A4.82,4.82,0,0,1,636,602a6,6,0,0,1-.85,3,12,12,0,0,1-2.27,2.82,19.84,19.84,0,0,1-3.27,2.43,20.06,20.06,0,0,1-4,1.79c.72,1,1.5,2.15,2.33,3.37s1.61,2.39,2.33,3.49c.81,1.29,1.64,2.57,2.49,3.86l-9.39,2.08c-.81-1.64-1.54-3.19-2.19-4.63q-.42-.88-.84-1.83c-.29-.63-.55-1.23-.79-1.79s-.45-1.07-.61-1.52a6,6,0,0,1-.3-1.1l-.79.15c-.24.82-.53,1.79-.88,2.89s-.65,2.18-.94,3.2L615,623.88Zm14.25-16.74a12,12,0,0,0,2.81-.62,24.16,24.16,0,0,0,3.19-1.29,17.68,17.68,0,0,0,2.6-1.56c.73-.54,1.09-1,1.09-1.43a.76.76,0,0,0-.42-.67,3.62,3.62,0,0,0-1.18-.39,13.44,13.44,0,0,0-1.67-.17c-.61,0-1.23,0-1.88,0l-1.36,0-1.25,0Z"/><path class="cls-18" d="M637.3,625.5q1.4-4.25,2.67-8.37c.36-1.16.72-2.37,1.09-3.63s.72-2.5,1.06-3.72.64-2.4.91-3.54.49-2.2.69-3.15a26.23,26.23,0,0,0-2.81-.07,13.32,13.32,0,0,1-2.82-.24c0-.41.06-.88.06-1.42s0-1.08.06-1.62.08-1.22.12-1.89c1,0,2.1.09,3.15.11s2.1,0,3.15,0q3.09,0,6-.09t5.34-.24c1.63-.08,3.24-.19,4.81-.32l-.66,2.08c-.21.59-.4,1.19-.58,1.81s-.35,1.15-.51,1.58a24.27,24.27,0,0,1-2.7.33c-.91.06-1.81.15-2.7.25-.28.87-.58,1.85-.91,2.91s-.63,2.17-.94,3.32-.59,2.31-.87,3.49-.57,2.31-.85,3.39c-.65,2.55-1.26,5.18-1.82,7.91Z"/><path class="cls-18" d="M684.57,625l-3.27.35c.16-.85.32-1.68.48-2.51s.23-1.44.33-2.16.2-1.33.28-1.85h-5.28l-2.42,5.56-3.15.25-3.39.25-3.82.31q2.42-5.13,4.79-10.11c.64-1.38,1.32-2.84,2-4.35s1.41-3,2.12-4.53,1.38-3,2-4.34,1.21-2.66,1.69-3.82q4.13-.2,8.4-.46t8.33-.74c-.12.83-.25,1.85-.4,3.07s-.27,2.55-.39,4-.24,2.94-.36,4.51-.25,3.11-.37,4.63c-.2,3.55-.42,7.31-.66,11.3-1.21.13-2.43.23-3.64.31Zm-6-10,.88,0,1.33,0,1.3,0a6.15,6.15,0,0,0,.85-.06,6,6,0,0,1,.09-.79c.06-.37.12-.79.18-1.27s.14-1,.22-1.56.16-1.12.24-1.66c.16-1.31.36-2.72.61-4.24l.36-3.36-.91,0-1.39,3.32Z"/><path class="cls-18" d="M692.08,625.5q1.63-5.13,3.15-10c.37-1.39.77-2.83,1.22-4.34s.85-3,1.24-4.47.74-2.91,1.09-4.28.61-2.63.82-3.76a65.43,65.43,0,0,1,7.45-1c2.67-.22,5.31-.33,7.94-.33a18.4,18.4,0,0,1,3.91.35,6.66,6.66,0,0,1,2.42,1,3.53,3.53,0,0,1,1.24,1.48,4.65,4.65,0,0,1,.37,1.89,6.1,6.1,0,0,1-.85,3,12.5,12.5,0,0,1-2.27,2.82,19.75,19.75,0,0,1-7.25,4.22c.73,1,1.51,2.15,2.34,3.37s1.6,2.39,2.33,3.49c.81,1.29,1.64,2.57,2.49,3.86l-9.4,2.08c-.81-1.64-1.53-3.19-2.18-4.63-.28-.59-.57-1.2-.85-1.83l-.79-1.79c-.24-.57-.44-1.07-.6-1.52a6,6,0,0,1-.3-1.1l-.79.15c-.24.82-.54,1.79-.88,2.89s-.66,2.18-.94,3.2c-.36,1.21-.73,2.43-1.09,3.67Zm14.24-16.74a12,12,0,0,0,2.82-.62,23.49,23.49,0,0,0,3.18-1.29,17.3,17.3,0,0,0,2.61-1.56c.72-.54,1.09-1,1.09-1.43a.75.75,0,0,0-.43-.67,3.46,3.46,0,0,0-1.18-.39,13.27,13.27,0,0,0-1.66-.17c-.61,0-1.24,0-1.88,0l-1.37,0-1.24,0Z"/><path class="cls-18" d="M719.23,625.5l7.94-27.42,19.15-1a13.78,13.78,0,0,0-.73,1.73c-.2.49-.39,1-.58,1.53s-.33,1-.45,1.4c-.4,0-1,0-1.73.06l-2.39,0-2.58,0h-2.27l-2.12,6.9c1.25-.05,2.42-.09,3.52-.11.88,0,1.79,0,2.72,0s1.62,0,2.06,0c-.16.72-.31,1.43-.45,2.12s-.32,1.4-.52,2.12c-.4,0-1.06.05-2,.06l-2.75.06-3.46.07-2.06,7.1,8.85-.89-.61,4.4Z"/><path class="cls-18" d="M755.89,624.88l2.79-7.75c0-1.11,0-2.31-.09-3.61s-.15-2.6-.28-3.91-.24-2.58-.36-3.8-.22-2.3-.3-3.24-.2-2-.37-3.1l9.88-2.39v6.67c0,.67,0,1.32,0,2s0,1.25,0,1.82V609c.53-.87,1.16-2,1.91-3.24s1.44-2.53,2.09-3.74q1.15-2.12,2.36-4.47l9.4,1.35q-2.61,3.31-5.09,6.59c-.69,1-1.42,1.94-2.18,2.95l-2.31,3.05c-.77,1-1.51,2-2.24,2.95s-1.39,1.84-2,2.66c-.2.67-.45,1.4-.76,2.2s-.59,1.56-.88,2.27-.74,1.7-1.15,2.55Z"/><path class="cls-18" d="M807.37,610.55a20.6,20.6,0,0,1-2.82,5.13,22.11,22.11,0,0,1-4.09,4.17,29.18,29.18,0,0,1-4.88,3.12,25.36,25.36,0,0,1-5.15,2,19.8,19.8,0,0,1-5,.67,12.86,12.86,0,0,1-3.63-.48A8.49,8.49,0,0,1,779,623.7a6.49,6.49,0,0,1-1.91-2.43,8.22,8.22,0,0,1-.7-3.56,13.73,13.73,0,0,1,.85-4.55,24.58,24.58,0,0,1,5.88-9.22,28.21,28.21,0,0,1,4.66-3.76,24,24,0,0,1,5.46-2.6,19.22,19.22,0,0,1,6.06-1,12.14,12.14,0,0,1,4.51.72,7.13,7.13,0,0,1,2.79,1.85,6.83,6.83,0,0,1,1.43,2.56,10.11,10.11,0,0,1,.42,2.86A16.56,16.56,0,0,1,807.37,610.55Zm-21.73,7a2.74,2.74,0,0,0,.67.81,4.09,4.09,0,0,0,1.06.6,3.66,3.66,0,0,0,1.37.25,9.65,9.65,0,0,0,4.84-1.2,11.8,11.8,0,0,0,3.52-2.93,13.84,13.84,0,0,0,2.15-3.7,10.15,10.15,0,0,0,.76-3.58,5.31,5.31,0,0,0-.1-1,2.92,2.92,0,0,0-.36-1,2.18,2.18,0,0,0-.85-.79,3.09,3.09,0,0,0-1.54-.33,10.08,10.08,0,0,0-3.58.62,11.08,11.08,0,0,0-2.94,1.64,12.4,12.4,0,0,0-2.27,2.31,19.82,19.82,0,0,0-1.67,2.62,11.91,11.91,0,0,0-1,2.61,9.72,9.72,0,0,0-.3,2.19A1.92,1.92,0,0,0,785.64,617.59Z"/><path class="cls-18" d="M827.19,621.68a13.13,13.13,0,0,1-3.64,2.54,18.53,18.53,0,0,1-4.46,1.47,24.35,24.35,0,0,1-4.72.46,14.07,14.07,0,0,1-2.85-.29,10,10,0,0,1-2.61-.87,6,6,0,0,1-1.9-1.46,3.09,3.09,0,0,1-.76-2.08v-.31a.85.85,0,0,1,.06-.31c.16-1.05.42-2.33.79-3.82s.74-3,1.15-4.66.85-3.25,1.33-4.88.92-3.12,1.3-4.45.72-2.45,1-3.34.47-1.43.55-1.64l3-.19c1.17-.08,2.26-.14,3.27-.19l3.7-.24q-1.57,4.67-2.79,8.45c-.36,1.08-.72,2.16-1.06,3.24s-.67,2.07-1,3-.57,1.67-.79,2.33l-.54,1.6c-.15.41-.31.93-.49,1.56a6.29,6.29,0,0,0-.27,1.72,1.28,1.28,0,0,0,.48,1,1.85,1.85,0,0,0,1.22.4,2.64,2.64,0,0,0,1.69-.52,4.47,4.47,0,0,0,1.12-1.25,5.56,5.56,0,0,0,.67-1.48,9.51,9.51,0,0,1,.39-1.18l.82-2.49c.31-.91.61-1.86.91-2.85s.61-2,.91-3,.6-2,.88-3c.69-2.26,1.35-4.6,2-7l9.21-.39c-.4,1.34-.77,2.56-1.09,3.66s-.68,2.37-1.06,3.78-.82,2.89-1.3,4.42-1,3-1.43,4.51-.92,2.83-1.36,4.07A10.86,10.86,0,0,1,827.19,621.68Z"/><path class="cls-18" d="M848.24,623.53a5.26,5.26,0,0,1-1.63,1.41,10.29,10.29,0,0,1-2.7,1,15.33,15.33,0,0,1-3.61.38,5.58,5.58,0,0,1-3.57-.94,2.83,2.83,0,0,1-1.15-2.26,3,3,0,0,1,.42-1.48,4.29,4.29,0,0,1,1.3-1.37,7.79,7.79,0,0,1,2.15-1,10,10,0,0,1,2.91-.39,9.8,9.8,0,0,1,4.88.93,2.58,2.58,0,0,1,1.55,2.12A2.66,2.66,0,0,1,848.24,623.53Zm-9.45-7.17a7.2,7.2,0,0,1,.94-3.7,11.74,11.74,0,0,1,2.33-2.88,20.47,20.47,0,0,1,3-2.23c1.07-.66,2.07-1.25,3-1.78s1.7-1,2.3-1.42.91-.85.91-1.26q0-.23-.48-.63a2.36,2.36,0,0,0-1.52-.41,8.61,8.61,0,0,0-2.82.6c-1.11.4-2.23.86-3.36,1.39s-2.3,1.13-3.51,1.83l-3.21-4.74a28.22,28.22,0,0,1,7-2.8,30.92,30.92,0,0,1,7.88-1,25.2,25.2,0,0,1,3.67.25,11.14,11.14,0,0,1,3,.85A5.87,5.87,0,0,1,860,600a3.48,3.48,0,0,1,.79,2.29,5.35,5.35,0,0,1-1,3.22,10.27,10.27,0,0,1-2.4,2.34,22.18,22.18,0,0,1-3.21,1.85c-1.19.56-2.33,1.14-3.42,1.73a19.38,19.38,0,0,0-3,2,5.9,5.9,0,0,0-1.88,2.54l-3.58.24Z"/></g></g></svg>