<svg id="Layer_1" data-name="Layer 1" xmlns="http://www.w3.org/2000/svg" viewBox="0 0 950 300"><defs><style>.cls-1{fill:#febfff;stroke:#c291c2;stroke-miterlimit:10;stroke-width:1.55px;}.cls-2{fill:#005ed0;}</style></defs><g id="music"><g id="game_over_logo"><g id="logo"><g id="logo-2" data-name="logo"><g id="brainNEW"><ellipse class="cls-1" cx="500.38" cy="133.57" rx="253.78" ry="49.87" transform="translate(-1.41 5.39) rotate(-0.62)"/><path class="cls-1" d="M107.09,127.54c-6.36.9-69.6,10.22-79.9,29.14-10.07,18.52,35.71,36.86,81.6,39,25.94,1.23,41.38-3.21,63.84-.11,27.68,3.82,16.94,12.32,39.37,17.07,38.61,8.19,99.4-10.86,193.66-6.68,46.88,2.07,38.72,7.09,82.22,8.09,76.88,1.76,114.76-13.62,168.06-7.77,29.35,3.22,33.47,9.6,59.3,9.09a171.16,171.16,0,0,0,58.32-11.7s11.84-4.74,16.92-10.35c16.21-17.91-45.69-37.13-50.94-38.72"/><path class="cls-1" d="M778.12,206.53c6.56.86,39.72,5,74.21-.21,29.76-4.46,56.2-15.17,49.61-22.83s-42.47-8.14-42.64-14.26c-.12-4.46,18.92-5,29.44-11.47,14.41-8.88-1.88-19.86-18.16-30.85-13.85-9.35-24.23-16.35-45.19-17.93-20-1.5-33.79,3.13-44,.57-11.3-2.83,2.51-9.16-3.48-18.46-6.54-10.15-33.14-18.33-59.33-21.44-16.48-2-15.42.15-60.35-.71-49.67-1-67.23-3.85-92.81-.3a146.66,146.66,0,0,0-27.44,6.27"/><path class="cls-1" d="M593,98.15c-3.16-3.4-19.6-19.6-73.15-26.49-62.67-8.07-152.1-.3-205.55,20.9"/><path class="cls-1" d="M301,83.59c-60.38-6.94-129.28-1.14-162.65,12.62-26.42,10.89-27.31,25.44-2.78,37.29"/><path class="cls-1" d="M118,142.43c-29.53-27.91,3.88-58.19,68.05-69.6,74.11-13.18,177.06,1,210.05,33.84"/><path class="cls-1" d="M616.15,100.66c7-.5,67.51-4.53,115.31,6.27,41.15,9.29,55.85,25.74,35.75,41"/><path class="cls-1" d="M339.59,170.27c8.94-2.43,58-15.32,131.85-15,93.88.36,143.18,21.71,147,23.44"/><path class="cls-1" d="M57.87,172.09c2.26-.87,20.57-7.86,49.19-15.1,23.69-6,45-9.74,54.14-9.54"/><path class="cls-1" d="M276.83,193.91c-23.28,4.47-53.15,5.59-70.65,3.34-9.78-1.25-13.78-3.32-15.47-4.68"/><path class="cls-1" d="M461.62,202.46a241.63,241.63,0,0,1,38-4.7,295.9,295.9,0,0,1,48.62,1.49"/><path class="cls-1" d="M713.56,153.86c1.46.47,17.58,5.77,14.84,13.22-2.55,6.94-20.35,12.81-42.95,13.32"/><path class="cls-1" d="M739.85,180.49c8.71,2.57,23.88,7.8,30.36,15.58,4,4.85,3.36,9.07,1.93,12"/><path class="cls-1" d="M247,143.2c-42.72-.77-74.48-11.33-76.73-22.65C167,104,228.43,95,232.84,94.38c52.41-7.43,100.63,3.86,106.44,5.27"/></g></g></g></g><g id="soundoff"><path class="cls-2" d="M184.91,113.76a1,1,0,0,0-1.3.2L171.67,127H166c-1.35,0-2.46,1.51-2.46,3.36V143.8c0,1.86,1.11,3.36,2.46,3.36h5.71l11.94,13.06a1,1,0,0,0,.77.37,1,1,0,0,0,.53-.17,1.79,1.79,0,0,0,.7-1.51V115.27A1.8,1.8,0,0,0,184.91,113.76Z"/><path class="cls-2" d="M189.47,125.22a1,1,0,0,0-1.74,0,2.15,2.15,0,0,0,0,2.38,17,17,0,0,1,0,19,2.13,2.13,0,0,0,0,2.37,1.07,1.07,0,0,0,.87.5,1.09,1.09,0,0,0,.87-.49,21.35,21.35,0,0,0,0-23.73Z"/><path class="cls-2" d="M194.93,120.49a1,1,0,0,0-1.74,0,2.15,2.15,0,0,0,0,2.37,25.5,25.5,0,0,1,0,28.43,2.17,2.17,0,0,0,0,2.38,1.12,1.12,0,0,0,.88.5,1.1,1.1,0,0,0,.86-.49,29.76,29.76,0,0,0,0-33.2Z"/></g><g id="soundoff-2" data-name="soundoff"><path class="cls-2" d="M764.24,157.72,720.6,114.08a1.68,1.68,0,0,0-2.37,0,1.67,1.67,0,0,0,0,2.37L728.79,127h-1a3.4,3.4,0,0,0-3.35,3.36V143.8a3.37,3.37,0,0,0,3.35,3.36h7.79l16.35,13.06a1.67,1.67,0,0,0,1,.37,2,2,0,0,0,.74-.17,1.68,1.68,0,0,0,.94-1.51v-6l7.21,7.21a1.65,1.65,0,0,0,1.18.49,1.68,1.68,0,0,0,1.19-2.87Z"/><path class="cls-2" d="M756.81,117.1a1.69,1.69,0,0,0-.95-1.53,1.66,1.66,0,0,0-1.8.21l-15,12,17.79,17.78Z"/></g><path class="cls-2" d="M339.51,179.11q5.12-15.42,9.74-30.26,2-6.25,4.06-13.09t4.17-13.56q2.08-6.72,3.88-13t3.19-11.59a99.91,99.91,0,0,0,12.05-.69q5.68-.69,12.29-1.28-.34,2.56-.75,5.74c-.28,2.13-.58,4.35-.93,6.67s-.72,4.71-1.1,7.18-.85,5.64-1.39,9.51-1.28,8.69-2.21,14.48H384q3.36-8.8,5.57-14.66t3.59-9.56c.92-2.47,1.87-4.89,2.84-7.24s1.89-4.6,2.78-6.73,1.72-4,2.49-5.62c1.93-.15,3.75-.35,5.45-.58s3.4-.48,5.1-.75l5.16-.81c1.73-.27,3.65-.6,5.73-1-.77,4.49-1.5,9.08-2.2,13.8s-1.31,9.4-1.85,14.08-1.07,9.29-1.57,13.85-.94,8.88-1.33,13q-1.39,14.37-2.44,28.05l-20.16,3.59c0-.38.06-1.43.17-3.13s.27-3.78.47-6.26.46-5.21.81-8.23.69-6,1-9,.71-5.93,1.1-8.75.77-5.23,1.16-7.24h-1c-1.09,3.24-2.28,6.66-3.6,10.26s-2.64,7.24-4,10.95-2.68,7.34-4,10.89-2.48,7-3.48,10.2q-4.06.12-6.95.29l-6.73.41,3.71-43h-1.74q-.23,1.5-1.16,5t-2.14,8.11c-.81,3.06-1.68,6.22-2.61,9.51s-1.79,6.34-2.61,9.15-1.48,5.14-2,7l-.93,3.07Z"/><path class="cls-2" d="M458.37,168.44a29,29,0,0,1-6.95,7.65,27.71,27.71,0,0,1-8.52,4.41,30.83,30.83,0,0,1-9,1.39,18.22,18.22,0,0,1-5.45-.87,15.3,15.3,0,0,1-5-2.61,14.07,14.07,0,0,1-3.65-4.4,12.89,12.89,0,0,1-1.45-6.26v-.93a4.22,4.22,0,0,1,.11-.93q.46-4.75,1.51-11.47t2.2-14q1.16-7.29,2.55-14.66t2.49-13.39c.74-4,1.38-7.36,1.92-10s.88-4.31,1-4.93c1.62-.15,3.55-.35,5.79-.58s4.33-.42,6.26-.58l7.07-.69q-3,14-5.33,25.38c-.69,3.25-1.37,6.49-2,9.74s-1.27,6.22-1.85,8.92-1.08,5-1.51,7-.77,3.58-1,4.81-.58,2.81-.93,4.7a28.51,28.51,0,0,0-.52,5.16,4.92,4.92,0,0,0,.93,3.07,2.81,2.81,0,0,0,2.32,1.21,4,4,0,0,0,3.24-1.56,14.09,14.09,0,0,0,2.15-3.77,23,23,0,0,0,1.27-4.46c.27-1.51.52-2.68.75-3.53.47-2.24,1-4.74,1.57-7.48s1.16-5.6,1.74-8.58,1.16-6,1.74-9.1,1.14-6.1,1.68-9q2-10.18,3.82-21.09l17.62-1.16q-1.15,6-2.09,11t-2,11.36q-1.09,6.38-2.49,13.27T465.56,145q-1.33,6.67-2.61,12.23A37.38,37.38,0,0,1,458.37,168.44Z"/><path class="cls-2" d="M512.15,162.94a28.5,28.5,0,0,1-6.72,9.09,29.89,29.89,0,0,1-10,5.92A35.84,35.84,0,0,1,483.12,180a19.47,19.47,0,0,1-9.28-2.49,29.42,29.42,0,0,1-8.92-7.94l8.58-16.81a12.87,12.87,0,0,0,2.43,3.08,18.35,18.35,0,0,0,3.65,2.72,27.5,27.5,0,0,0,4.06,1.91,10.46,10.46,0,0,0,3.65.76,9.86,9.86,0,0,0,2.9-.47A9.42,9.42,0,0,0,493,159.4a7.75,7.75,0,0,0,2-2.14,5.3,5.3,0,0,0,.75-2.84,8.35,8.35,0,0,0-1.8-5.16,26,26,0,0,0-4.46-4.52q-2.67-2.15-5.79-4.35a52.7,52.7,0,0,1-5.74-4.63,26.14,26.14,0,0,1-4.46-5.45,12.54,12.54,0,0,1-1.86-6.72,19.44,19.44,0,0,1,3.6-11.25,35.48,35.48,0,0,1,9-9,47.52,47.52,0,0,1,11.76-6A37.19,37.19,0,0,1,508,95.19a22.68,22.68,0,0,1,5.91.75,12.8,12.8,0,0,1,4.81,2.44,12.25,12.25,0,0,1,3.24,4.23,14.77,14.77,0,0,1,1.22,6.37,18.7,18.7,0,0,1-.29,3.25c-.19,1.08-.37,2.24-.52,3.48l-16.81,4.86c.16-.61.29-1.23.41-1.85a10.64,10.64,0,0,0,.17-1.86c0-2.31-.4-4-1.22-5a3.84,3.84,0,0,0-3.18-1.56,5.11,5.11,0,0,0-2.26.69,16.05,16.05,0,0,0-2.67,1.8,10.5,10.5,0,0,0-2.26,2.61,6,6,0,0,0-.93,3.24,7,7,0,0,0,1.57,4.64,19.76,19.76,0,0,0,3.88,3.48q2.33,1.62,5,3.3a22,22,0,0,1,5.05,4.35,22.7,22.7,0,0,1,3.88,6.66,28.21,28.21,0,0,1,1.56,10.14A27.24,27.24,0,0,1,512.15,162.94Z"/><path class="cls-2" d="M528.72,177.77c-2,.2-4.15.43-6.31.7l-5.86.75a24.67,24.67,0,0,0-2.84.46q1.17-5,2.38-11.06t2.49-12.75q1.27-6.68,2.44-13.51t2.2-13.21q2.43-14.84,4.87-30.48l18.08-2.9q-2.67,15.54-5.22,30.48-1,6.38-2.14,13.22T536.61,153q-1.11,6.72-2,13t-1.74,11.41C532.14,177.48,530.77,177.58,528.72,177.77Z"/><path class="cls-2" d="M579.84,166a44.67,44.67,0,0,1-7.19,7.88,27.42,27.42,0,0,1-7.59,4.7,20.25,20.25,0,0,1-7.42,1.5,13.42,13.42,0,0,1-6.55-1.62,14.85,14.85,0,0,1-5.15-4.87,27.25,27.25,0,0,1-3.54-8,41.28,41.28,0,0,1-1.33-11.12,78.22,78.22,0,0,1,3-21.5,70.75,70.75,0,0,1,8.46-19.07,47.55,47.55,0,0,1,12.92-13.62A28.53,28.53,0,0,1,582,95.07a12.76,12.76,0,0,1,5.33,1.16,13.24,13.24,0,0,1,4.41,3.25,15.69,15.69,0,0,1,2.95,5.1,19.34,19.34,0,0,1,1.1,6.72v1.45a12.32,12.32,0,0,1-.11,1.57l-15.19,4.05c-.92-1.93-2-2.9-3.24-2.9s-2.53.72-3.88,2.15a29.07,29.07,0,0,0-4,5.56,77.81,77.81,0,0,0-3.83,7.65q-1.85,4.23-3.24,8.52T560,147.52a30.3,30.3,0,0,0-.87,6.32q0,3.71,1,5.21a3,3,0,0,0,2.61,1.51,5.73,5.73,0,0,0,2.9-1,13.16,13.16,0,0,0,3-2.54,22.1,22.1,0,0,0,2.55-3.54,14.64,14.64,0,0,0,1.63-3.94L586,154.88A58.78,58.78,0,0,1,579.84,166Z"/></g></svg>