<svg id="Layer_1" data-name="Layer 1" xmlns="http://www.w3.org/2000/svg" width="100" height="100" viewBox="0 0 100 100">
  <defs>
    <style>
      .cls-1 {
        fill: #fff;
      }

      .cls-2 {
        font-size: 36.07px;
        font-family: MyriadPro-Regular, Myriad Pro;
      }
    </style>
  </defs>
  <g>
    <g>
      <path class="cls-1" d="M34.7,72.21H12.05A3.07,3.07,0,0,1,9,69.13V21.29a3.07,3.07,0,0,1,3.05-3.08H81a3.07,3.07,0,0,1,3,3.08V69.13a3.07,3.07,0,0,1-3,3.08H58.3L46.5,92.74Z"/>
      <path d="M81,20.71a.58.58,0,0,1,.55.58V69.13a.58.58,0,0,1-.55.58H56.85l-1.44,2.51L46.5,87.72l-8.91-15.5-1.44-2.51H12.05a.58.58,0,0,1-.55-.58V21.29a.58.58,0,0,1,.55-.58H81m0-5H12.05A5.58,5.58,0,0,0,6.5,21.29V69.13a5.58,5.58,0,0,0,5.55,5.58H33.26l13.24,23,13.24-23H81a5.58,5.58,0,0,0,5.55-5.58V21.29A5.58,5.58,0,0,0,81,15.71Z"/>
    </g>
    <text class="cls-2" transform="translate(28.39 57.44) scale(2.34 1)">?</text>
  </g>
</svg>
