<svg id="Layer_1" data-name="Layer 1" xmlns="http://www.w3.org/2000/svg" viewBox="0 0 90 90"><defs><style>.cls-1{fill:#fbb03b;}.cls-2{fill:#005ed0;}</style></defs><g id="settingBtn"><path class="cls-1" d="M80.24,39l-5.77-1.25a31.76,31.76,0,0,0-1.85-4.48l3.19-5a2.25,2.25,0,0,0-.3-2.8l-9-9a2.25,2.25,0,0,0-2.8-.3l-5,3.19a31.76,31.76,0,0,0-4.48-1.85L53,11.76A2.24,2.24,0,0,0,50.85,10H38.15A2.24,2.24,0,0,0,36,11.76l-1.25,5.77a31.76,31.76,0,0,0-4.48,1.85l-5-3.19a2.25,2.25,0,0,0-2.8.3l-9,9a2.25,2.25,0,0,0-.3,2.8l3.19,5a31.76,31.76,0,0,0-1.85,4.48L8.76,39A2.24,2.24,0,0,0,7,41.15v12.7A2.24,2.24,0,0,0,8.76,56l5.77,1.25a31.76,31.76,0,0,0,1.85,4.48l-3.19,5a2.25,2.25,0,0,0,.3,2.8l9,9a2.25,2.25,0,0,0,2.8.3l5-3.19a31.76,31.76,0,0,0,4.48,1.85L36,83.24A2.24,2.24,0,0,0,38.15,85h12.7A2.24,2.24,0,0,0,53,83.24l1.25-5.77a31.76,31.76,0,0,0,4.48-1.85l5,3.19a2.25,2.25,0,0,0,2.8-.3l9-9a2.25,2.25,0,0,0,.3-2.8l-3.19-5a31.76,31.76,0,0,0,1.85-4.48L80.24,56A2.24,2.24,0,0,0,82,53.85V41.15A2.24,2.24,0,0,0,80.24,39Z"/><circle class="cls-2" cx="44.62" cy="47.38" r="15.8"/></g></svg>