<svg id="Layer_1" data-name="Layer 1" xmlns="http://www.w3.org/2000/svg" xmlns:xlink="http://www.w3.org/1999/xlink" viewBox="0 0 990 940"><defs><style>.cls-1{fill:url(#linear-gradient);}.cls-2{fill:#005ed0;}.cls-3{fill:none;stroke:#005ed0;stroke-miterlimit:10;stroke-width:5px;}</style><linearGradient id="linear-gradient" x1="8.75" y1="470" x2="968.75" y2="470" gradientUnits="userSpaceOnUse"><stop offset="0" stop-color="#fff"/><stop offset="0" stop-color="#00006a"/><stop offset="0" stop-color="#000b0f"/><stop offset="0" stop-color="#000d00"/><stop offset="0.1" stop-color="#000d00"/><stop offset="0.44" stop-color="#000734"/><stop offset="1"/><stop offset="1" stop-color="#0055b8"/></linearGradient></defs><rect class="cls-1" x="8.75" y="10.5" width="960" height="919"/><path class="cls-2" d="M231,164.73a43.1,43.1,0,0,1-11.86,13.05,56.39,56.39,0,0,1-17.57,8.48,76.62,76.62,0,0,1-21.77,3,40.56,40.56,0,0,1-16.35-3.57,50,50,0,0,1-15.73-11.39l15.12-24.11a19.27,19.27,0,0,0,4.29,4.4,32.58,32.58,0,0,0,6.44,3.91,53.72,53.72,0,0,0,7.15,2.74,22.19,22.19,0,0,0,6.44,1.09,21.24,21.24,0,0,0,5.11-.67,18.1,18.1,0,0,0,4.9-2,12.25,12.25,0,0,0,3.58-3.07,6.59,6.59,0,0,0,1.33-4.08,10.67,10.67,0,0,0-3.17-7.39,42,42,0,0,0-7.87-6.49q-4.69-3.08-10.22-6.24a91.65,91.65,0,0,1-10.11-6.65,40.18,40.18,0,0,1-7.87-7.81,15.61,15.61,0,0,1-3.27-9.65q0-8.64,6.33-16.13a58.4,58.4,0,0,1,15.84-12.88,92.63,92.63,0,0,1,20.75-8.57,78.79,78.79,0,0,1,21.25-3.15,48.35,48.35,0,0,1,10.42,1.08,24.44,24.44,0,0,1,8.49,3.49,18.63,18.63,0,0,1,5.72,6.07,17.82,17.82,0,0,1,2.14,9.14A21.67,21.67,0,0,1,250,92c-.34,1.55-.65,3.22-.92,5l-29.63,7c.27-.89.51-1.77.71-2.66a11.5,11.5,0,0,0,.31-2.66c0-3.33-.71-5.74-2.15-7.23a7.4,7.4,0,0,0-5.62-2.25,10.46,10.46,0,0,0-4,1,27,27,0,0,0-4.7,2.58,16.38,16.38,0,0,0-4,3.74,7.55,7.55,0,0,0-1.63,4.65,8.89,8.89,0,0,0,2.76,6.66,34.33,34.33,0,0,0,6.84,5q4.09,2.34,8.89,4.74a37.82,37.82,0,0,1,8.89,6.24,31.63,31.63,0,0,1,6.85,9.56q2.76,5.73,2.76,14.55A33.1,33.1,0,0,1,231,164.73Z"/><path class="cls-2" d="M234.34,189.09,261.11,70.86l64.58-4.49a71.06,71.06,0,0,0-2.45,7.48c-.69,2.11-1.33,4.3-1.94,6.57s-1.13,4.3-1.54,6.07c-1.36.11-3.3.2-5.82.25l-8.07.17c-2.87,0-5.76.08-8.69.08h-7.66l-7.16,29.76q6.34-.33,11.86-.49c3-.11,6.06-.17,9.19-.17s5.45-.06,6.95-.17q-.81,4.67-1.53,9.15t-1.74,9.14q-2,.18-6.64.25t-9.3.25c-3.54.11-7.43.23-11.65.33l-6.95,30.6,29.84-3.82-2,19Z"/><path class="cls-2" d="M320.78,189.09q4.7-18.3,9-36.09,1.83-7.49,3.67-15.63t3.58-16q1.74-7.9,3.07-15.3t2.35-13.55a68.4,68.4,0,0,0-9.51-.34,34.24,34.24,0,0,1-9.5-1q.19-2.67.2-6.15t.21-7c.13-2.55.27-5.26.41-8.15,3.54.23,7.08.39,10.62.5s7.09.17,10.63.17q10.42,0,20.13-.42t18-1q8.26-.59,16.24-1.42l-2.24,9c-.69,2.55-1.33,5.15-1.95,7.82s-1.19,4.93-1.73,6.81a71.45,71.45,0,0,1-9.1,1.42c-3.06.27-6.1.64-9.09,1.08q-1.44,5.66-3.07,12.55t-3.16,14.3q-1.54,7.41-3,15.05t-2.86,14.63q-3.27,16.47-6.13,34.09Z"/><path class="cls-2" d="M394.76,189.09q4.71-18.3,9-36.09,1.83-7.49,3.68-15.63t3.57-16q1.74-7.9,3.07-15.3t2.35-13.55a68.4,68.4,0,0,0-9.51-.34,34.24,34.24,0,0,1-9.5-1q.21-2.67.21-6.15c0-2.33.06-4.66.2-7,.13-2.55.27-5.26.41-8.15,3.54.23,7.08.39,10.63.5s7.08.17,10.62.17q10.42,0,20.13-.42t18-1q8.28-.59,16.25-1.42l-2.25,9c-.69,2.55-1.33,5.15-1.94,7.82s-1.2,4.93-1.74,6.81a71.45,71.45,0,0,1-9.1,1.42c-3.06.27-6.09.64-9.09,1.08q-1.42,5.66-3.07,12.55t-3.16,14.3q-1.54,7.41-3,15.05t-2.86,14.63q-3.27,16.47-6.13,34.09Z"/><path class="cls-2" d="M474.47,186q-5.31.42-11,1l-10.32,1.08a47.75,47.75,0,0,0-5,.66q2.44-7.14,4.9-15.88t5-18.29q2.55-9.56,4.9-19.37t4.6-19q5.12-21.29,10-43.74l31.88-4.15q-5.32,22.27-10.63,43.73-2.25,9.15-4.6,19t-4.49,19.46q-2.15,9.65-4.3,18.71t-3.78,16.37C480.4,185.59,478,185.73,474.47,186Z"/><path class="cls-2" d="M491.43,189.75q5.73-23.44,11-45.73,2-9.3,4.39-19.53t4.4-20.12q2-9.9,3.78-19.13t2.76-16.87q6.33-.33,12.26-.67,5.31-.33,10.83-.58t9.81-.58q2.65,12.81,4.7,24.44,1,5,2.15,10.39t2.14,10.4q1,5,2,9.56c.68,3,1.36,5.73,2,8.06.54-2.33,1.16-5,1.84-8.06s1.43-6.26,2.25-9.65,1.66-6.84,2.55-10.39,1.74-7,2.56-10.31Q576,79.34,579.31,66.7l24.93-2.49Q597.3,89.16,592,111.43q-2.44,9.64-4.8,19.46t-4.39,19q-2.06,9.15-3.48,16.88t-2.25,13.05q-.62,0-4.8.75c-2.79.5-6,1.08-9.6,1.75s-7.23,1.36-10.84,2.08-6.3,1.3-8.07,1.74q-1.43-13.47-3.06-25.6-.62-5.16-1.44-10.65c-.54-3.65-1-7.15-1.53-10.47s-1-6.46-1.43-9.4-.92-5.4-1.33-7.4q-.62,3-1.63,7.32t-2.05,9.23q-1,4.9-2,10.14T527,159.49q-2.65,11.81-5.72,24.61Z"/><path class="cls-2" d="M685.79,155.08a76.4,76.4,0,0,1-16.25,21,65.77,65.77,0,0,1-20.44,12.63,58.44,58.44,0,0,1-20.74,4.16A39.5,39.5,0,0,1,614,190.25a31.39,31.39,0,0,1-11.85-8.06,38.21,38.21,0,0,1-7.87-13.56,57.64,57.64,0,0,1-2.86-19.12q0-21.45,7.56-37.41A85.38,85.38,0,0,1,618,85.49,78.68,78.68,0,0,1,642.77,69.7q13.17-5.16,24.62-5.16a39.44,39.44,0,0,1,14.21,2.33,27.91,27.91,0,0,1,9.91,6.24,23.21,23.21,0,0,1,5.62,9.14,35.14,35.14,0,0,1,1.74,11.06l-28,4.32Q669,91,666,88.15a10,10,0,0,0-7-2.82q-5.1,0-11.24,5.9a67.41,67.41,0,0,0-11.44,15.22,111,111,0,0,0-9,20.45,79,79,0,0,0-4.09,21.95q0,10.31,3.78,14.71a12.2,12.2,0,0,0,9.71,4.41,23.89,23.89,0,0,0,8.48-1.66,25.33,25.33,0,0,0,7.87-4.74,28.79,28.79,0,0,0,5.82-7.15,19.18,19.18,0,0,0,2.56-8.9l-21.87,2.66,3.88-16.46q9.6-1,18.8-2,7.77-.83,16.45-2T694,125.57Q692.54,142.52,685.79,155.08Z"/><path class="cls-2" d="M769.48,164.73a43.1,43.1,0,0,1-11.86,13.05,56.39,56.39,0,0,1-17.57,8.48,76.62,76.62,0,0,1-21.77,3,40.56,40.56,0,0,1-16.35-3.57,50,50,0,0,1-15.73-11.39l15.12-24.11a19.27,19.27,0,0,0,4.29,4.4,32.58,32.58,0,0,0,6.44,3.91,53.72,53.72,0,0,0,7.15,2.74,22.19,22.19,0,0,0,6.44,1.09,21.24,21.24,0,0,0,5.11-.67,18.1,18.1,0,0,0,4.9-2,12.25,12.25,0,0,0,3.58-3.07,6.59,6.59,0,0,0,1.33-4.08,10.67,10.67,0,0,0-3.17-7.39,42,42,0,0,0-7.87-6.49q-4.69-3.08-10.22-6.24a91.65,91.65,0,0,1-10.11-6.65,40.18,40.18,0,0,1-7.87-7.81,15.61,15.61,0,0,1-3.27-9.65q0-8.64,6.33-16.13a58.4,58.4,0,0,1,15.84-12.88A92.63,92.63,0,0,1,741,70.69a78.79,78.79,0,0,1,21.25-3.15,48.35,48.35,0,0,1,10.42,1.08,24.31,24.31,0,0,1,8.48,3.49,18.56,18.56,0,0,1,5.73,6.07A17.82,17.82,0,0,1,789,87.32a21.67,21.67,0,0,1-.51,4.66c-.34,1.55-.65,3.22-.92,5l-29.63,7c.27-.89.51-1.77.71-2.66a11.5,11.5,0,0,0,.31-2.66c0-3.33-.71-5.74-2.15-7.23a7.4,7.4,0,0,0-5.62-2.25,10.46,10.46,0,0,0-4,1,27,27,0,0,0-4.7,2.58,16.38,16.38,0,0,0-4,3.74,7.55,7.55,0,0,0-1.63,4.65,8.89,8.89,0,0,0,2.76,6.66,34.33,34.33,0,0,0,6.84,5q4.1,2.34,8.89,4.74a37.82,37.82,0,0,1,8.89,6.24,31.63,31.63,0,0,1,6.85,9.56q2.76,5.73,2.76,14.55A33.1,33.1,0,0,1,769.48,164.73Z"/><path class="cls-3" d="M287.87,300.37a16.61,16.61,0,0,1-3.31,4.57,22.38,22.38,0,0,1-4.86,3.6,35.89,35.89,0,0,1-5.83,2.59,39.42,39.42,0,0,1-6.27,1.58,37,37,0,0,1-6.15.54,26.82,26.82,0,0,1-5-.43A240.82,240.82,0,0,0,262,287.44q2.06-12.78,3.92-25.74c2.5-.53,5.09-1,7.78-1.4a55.24,55.24,0,0,1,8.35-.61,18.18,18.18,0,0,1,3.82.43,10.11,10.11,0,0,1,3.67,1.58,9.75,9.75,0,0,1,2.77,3,9.17,9.17,0,0,1,1.12,4.75,14.3,14.3,0,0,1-.9,5.11,19,19,0,0,1-2.31,4.32,16.2,16.2,0,0,1-3.2,3.35,14.68,14.68,0,0,1-3.67,2.12,10,10,0,0,1,1.94,1.44,13.13,13.13,0,0,1,1.87,2.2,10.9,10.9,0,0,1,1.41,3,13,13,0,0,1,.54,3.88A12.33,12.33,0,0,1,287.87,300.37Zm-15.8-9.9c-.17.88-.33,1.74-.47,2.55s-.3,1.67-.47,2.56-.35,1.93-.54,3.13c.91-.1,2-.26,3.1-.5a14.85,14.85,0,0,0,3.31-1.12,8,8,0,0,0,2.66-2,4.54,4.54,0,0,0,1.08-3.06,3.36,3.36,0,0,0-.68-2.16,5.84,5.84,0,0,0-1.73-1.44,7.78,7.78,0,0,0-2.27-.82,11.26,11.26,0,0,0-2.3-.26h-.61a2.14,2.14,0,0,0-.54.08C272.41,288.56,272.24,289.58,272.07,290.47Zm3.45-18.62c-.12.72-.25,1.48-.39,2.27s-.3,1.57-.47,2.34-.3,1.44-.4,2a26.21,26.21,0,0,0,3.17-.79,21.45,21.45,0,0,0,2.85-1.12,7.87,7.87,0,0,0,2-1.33,2.15,2.15,0,0,0,.76-1.59,2.47,2.47,0,0,0-.65-1.76,4.85,4.85,0,0,0-1.69-1.12,10.22,10.22,0,0,0-2.16-.61,12.72,12.72,0,0,0-2-.18h-.72C275.75,270.51,275.64,271.13,275.52,271.85Z"/><path class="cls-3" d="M287.94,313l9.43-51.19,22.76-2q-.51,1.59-.87,3.24c-.24.91-.47,1.86-.68,2.85s-.4,1.86-.54,2.62c-.48.05-1.17.09-2.05.11l-2.85.07c-1,0-2,0-3.06,0h-2.7l-2.52,12.89c1.49-.1,2.88-.17,4.18-.22,1-.05,2.13-.07,3.24-.07s1.92,0,2.45-.07c-.19,1.34-.38,2.66-.54,4s-.38,2.61-.61,4c-.49.05-1.26.08-2.34.11s-2.18.06-3.28.1l-4.1.15-2.45,13.25,10.51-1.66-.72,8.21Z"/><path class="cls-3" d="M314.87,313.25l5.47-51.12a46.06,46.06,0,0,0,6.37-.68,58.68,58.68,0,0,1,6-.76c0,.05-.08.54-.22,1.48l-.58,3.67c-.24,1.51-.5,3.22-.79,5.11s-.71,4.5-1.26,7.82-1.28,7.89-2.19,13.75h1.08q1.86-6.63,3.09-10.84t2-6.84c.51-1.75,1-3.44,1.44-5.07s.89-3.15,1.3-4.54.73-2.57,1-3.53h.65a25.85,25.85,0,0,0,2.62-.14c.89-.1,1.73-.21,2.53-.33s1.61-.27,2.48-.46a24.33,24.33,0,0,0-.33,2.66c-.12,1.34-.27,3-.46,4.86s-.39,4-.58,6.26-.38,4.52-.57,6.7-.38,4.26-.54,6.23-.33,3.65-.47,5h1.29l6.84-31c1.63-.24,3.24-.46,4.83-.65l4.32-.58c1.48-.19,2.8-.4,4-.64-.72,2-1.44,4.26-2.16,6.73s-1.47,5.07-2.23,7.81-1.51,5.5-2.2,8.28-1.38,5.47-2,8.06q-2.31,9.23-4.47,18.94l-16.27,2.74,3.17-27.8H337l-7.12,26.14Z"/><path class="cls-3" d="M377.73,312.17l-3.89.65q.29-2.37.57-4.68c.15-1.34.28-2.69.4-4s.23-2.5.32-3.46h-6.26L366,311c-1.06.15-2.3.3-3.74.47l-4,.47-4.53.57q2.88-9.57,5.69-18.86c.76-2.59,1.57-5.3,2.41-8.14s1.68-5.65,2.52-8.46,1.64-5.5,2.41-8.1,1.44-5,2-7.12q4.89-.36,10-.87t9.9-1.37c-.15,1.54-.3,3.45-.47,5.73s-.32,4.76-.47,7.45-.29,5.5-.43,8.42-.29,5.81-.43,8.64q-.36,9.94-.79,21.1c-1.44.24-2.88.43-4.32.58Zm-7.13-18.72,1,0,1.59-.07,1.54-.08a6.78,6.78,0,0,0,1-.1c0-.29,0-.78.11-1.48s.14-1.49.22-2.38.15-1.86.25-2.91.19-2.09.29-3.1q.28-3.68.72-7.92l.43-6.26-1.08.07-1.66,6.19Z"/><path class="cls-3" d="M386.65,313q2-9.59,3.75-18.72.64-3.88,1.44-8.1t1.47-8.35q.69-4.14,1.3-8t1-7a50.76,50.76,0,0,1,8.86-1.9,73.43,73.43,0,0,1,9.43-.62,14.15,14.15,0,0,1,4.64.65,6.64,6.64,0,0,1,2.88,1.84,6.82,6.82,0,0,1,1.48,2.77,13.34,13.34,0,0,1,.43,3.53,16.24,16.24,0,0,1-1,5.65,23.59,23.59,0,0,1-2.7,5.26,27,27,0,0,1-3.88,4.53,20.87,20.87,0,0,1-4.72,3.35c.86,1.92,1.79,4,2.77,6.3s1.91,4.45,2.77,6.52q1.44,3.6,3,7.2l-11.16,3.88q-1.44-4.6-2.6-8.64c-.33-1.1-.67-2.24-1-3.42s-.65-2.29-.94-3.34-.53-2-.72-2.85a16.91,16.91,0,0,1-.36-2.05l-.94.29q-.42,2.29-1,5.4t-1.12,6q-.64,3.39-1.29,6.84Zm16.92-31.25a10.15,10.15,0,0,0,3.35-1.15,23.66,23.66,0,0,0,3.78-2.41,21.83,21.83,0,0,0,3.1-2.92,4.41,4.41,0,0,0,1.29-2.66,1.61,1.61,0,0,0-.5-1.26,3.19,3.19,0,0,0-1.4-.72,9.74,9.74,0,0,0-2-.33c-.72,0-1.47-.07-2.24-.07-.52,0-1.06,0-1.62,0l-1.47,0Z"/><path class="cls-3" d="M418.91,313l9.43-51.19,22.75-2c-.33,1.06-.62,2.14-.86,3.24-.24.91-.47,1.86-.68,2.85s-.4,1.86-.54,2.62c-.48.05-1.17.09-2.06.11l-2.84.07c-1,0-2,0-3.06,0h-2.7l-2.52,12.89c1.49-.1,2.88-.17,4.18-.22,1.05-.05,2.13-.07,3.24-.07s1.91,0,2.44-.07q-.29,2-.54,4c-.16,1.29-.37,2.61-.61,4-.48.05-1.26.08-2.34.11s-2.17.06-3.27.1l-4.11.15-2.45,13.25,10.52-1.66-.72,8.21Z"/><path class="cls-3" d="M488.24,300.37a16.41,16.41,0,0,1-3.31,4.57,22.38,22.38,0,0,1-4.86,3.6,35.89,35.89,0,0,1-5.83,2.59,39.57,39.57,0,0,1-6.26,1.58,37.12,37.12,0,0,1-6.16.54,26.82,26.82,0,0,1-5-.43,238.33,238.33,0,0,0,5.51-25.38q2.06-12.78,3.92-25.74c2.5-.53,5.09-1,7.78-1.4a55.34,55.34,0,0,1,8.35-.61,18.18,18.18,0,0,1,3.82.43,10.11,10.11,0,0,1,3.67,1.58,9.64,9.64,0,0,1,2.77,3,9.17,9.17,0,0,1,1.12,4.75,14.3,14.3,0,0,1-.9,5.11,18.6,18.6,0,0,1-2.31,4.32,16.2,16.2,0,0,1-3.2,3.35,14.68,14.68,0,0,1-3.67,2.12,10,10,0,0,1,1.94,1.44,13.13,13.13,0,0,1,1.87,2.2,10.9,10.9,0,0,1,1.41,3,13,13,0,0,1,.54,3.88A12.33,12.33,0,0,1,488.24,300.37Zm-15.8-9.9c-.17.88-.32,1.74-.47,2.55s-.3,1.67-.47,2.56-.34,1.93-.54,3.13c.91-.1,2-.26,3.1-.5a14.68,14.68,0,0,0,3.31-1.12,7.93,7.93,0,0,0,2.67-2,4.54,4.54,0,0,0,1.08-3.06,3.37,3.37,0,0,0-.69-2.16,5.84,5.84,0,0,0-1.73-1.44,7.82,7.82,0,0,0-2.26-.82,11.43,11.43,0,0,0-2.31-.26h-.61a2.14,2.14,0,0,0-.54.08Q472.7,289.14,472.44,290.47Zm3.46-18.62c-.12.72-.26,1.48-.4,2.27s-.3,1.57-.47,2.34-.3,1.44-.39,2a26.06,26.06,0,0,0,3.16-.79,21.45,21.45,0,0,0,2.85-1.12,7.87,7.87,0,0,0,2-1.33,2.15,2.15,0,0,0,.76-1.59,2.47,2.47,0,0,0-.65-1.76,4.75,4.75,0,0,0-1.69-1.12,10.22,10.22,0,0,0-2.16-.61,12.62,12.62,0,0,0-2-.18h-.72C476.12,270.51,476,271.13,475.9,271.85Z"/><path class="cls-3" d="M488,313q1.94-9.59,3.74-18.72.64-3.88,1.44-8.1t1.48-8.35c.45-2.76.89-5.43,1.29-8s.73-4.9,1-7a50.76,50.76,0,0,1,8.86-1.9,73.43,73.43,0,0,1,9.43-.62,14.22,14.22,0,0,1,4.65.65,6.77,6.77,0,0,1,2.88,1.84,6.92,6.92,0,0,1,1.47,2.77,13.34,13.34,0,0,1,.43,3.53,16.46,16.46,0,0,1-1,5.65A24.46,24.46,0,0,1,521,280a27.54,27.54,0,0,1-3.89,4.53,20.87,20.87,0,0,1-4.72,3.35c.87,1.92,1.79,4,2.78,6.3s1.9,4.45,2.77,6.52q1.44,3.6,3,7.2l-11.16,3.88c-1-3.07-1.83-5.95-2.59-8.64-.34-1.1-.68-2.24-1-3.42s-.65-2.29-.94-3.34-.53-2-.72-2.85a16.91,16.91,0,0,1-.36-2.05l-.93.29q-.43,2.29-1,5.4c-.4,2.06-.78,4.05-1.11,6-.43,2.26-.87,4.54-1.3,6.84ZM505,281.79a10.18,10.18,0,0,0,3.34-1.15,23.75,23.75,0,0,0,3.79-2.41,21.74,21.74,0,0,0,3.09-2.92,4.38,4.38,0,0,0,1.3-2.66,1.62,1.62,0,0,0-.51-1.26,3.14,3.14,0,0,0-1.4-.72,9.74,9.74,0,0,0-2-.33c-.72,0-1.47-.07-2.23-.07-.53,0-1.07,0-1.62,0l-1.48,0Z"/><path class="cls-3" d="M542.24,312.17l-3.88.65q.28-2.37.57-4.68c.15-1.34.28-2.69.4-4s.22-2.5.32-3.46h-6.26L530.51,311c-1.06.15-2.31.3-3.75.47l-4,.47-4.53.57q2.87-9.57,5.68-18.86,1.15-3.89,2.41-8.14t2.53-8.46c.83-2.8,1.64-5.5,2.41-8.1s1.44-5,2-7.12q4.9-.36,10-.87t9.91-1.37q-.23,2.31-.47,5.73t-.47,7.45c-.14,2.69-.29,5.5-.43,8.42s-.29,5.81-.43,8.64q-.37,9.94-.8,21.1c-1.44.24-2.88.43-4.32.58Zm-7.12-18.72,1,0,1.58-.07,1.55-.08a6.78,6.78,0,0,0,1-.1,14.22,14.22,0,0,1,.11-1.48c.07-.7.14-1.49.21-2.38s.16-1.86.25-2.91.2-2.09.29-3.1q.29-3.68.72-7.92l.44-6.26-1.08.07-1.66,6.19Z"/><path class="cls-3" d="M560.57,311.71c-1.28.12-2.58.26-3.93.43s-2.55.32-3.63.47a16.37,16.37,0,0,0-1.77.28q.72-3.09,1.48-6.87t1.55-7.92c.52-2.76,1-5.56,1.51-8.39s.93-5.57,1.37-8.21q1.51-9.21,3-18.93l11.23-1.8-3.24,18.93q-.64,4-1.33,8.21c-.46,2.83-.91,5.64-1.37,8.42s-.87,5.49-1.26,8.1-.74,5-1.08,7.1Q562.48,311.53,560.57,311.71Z"/><path class="cls-3" d="M565.79,313.33q2.16-10.38,4.1-20.09.72-4.19,1.55-8.64t1.55-8.82c.47-2.91.91-5.69,1.29-8.35s.67-5.08.87-7.24c.62.05,1.15.07,1.58.07h1.51l2.45,0c1,0,1.92-.06,2.88-.11l3.1-.15q1,5,1.8,9.72.78,4.11,1.62,8.43t1.47,7.34c.19-1,.41-2.07.65-3.35s.5-2.6.79-4,.57-2.8.83-4.21.54-2.82.83-4.22q1-4.68,2.09-9.64l8.78-1.08q-2.44,11-4.32,20.88-.87,4.25-1.69,8.6c-.55,2.9-1.07,5.69-1.55,8.35s-.89,5.14-1.22,7.42-.6,4.19-.8,5.72a15.44,15.44,0,0,0-1.69.33l-3.38.75-3.82.87a20.82,20.82,0,0,0-2.84.79q-.44-5.76-.94-10.95c-.14-1.48-.3-3-.47-4.57s-.35-3.06-.54-4.5-.38-2.78-.57-4-.39-2.33-.58-3.24c-.14.91-.33,2-.57,3.17s-.48,2.47-.72,3.81-.48,2.75-.72,4.22-.51,2.86-.8,4.21q-.93,4.81-2,10.08Z"/><path class="cls-3" d="M607.65,311.71c-1.27.12-2.58.26-3.92.43s-2.56.32-3.64.47a15.9,15.9,0,0,0-1.76.28q.72-3.09,1.48-6.87c.5-2.52,1-5.16,1.54-7.92s1-5.56,1.52-8.39.93-5.57,1.36-8.21q1.51-9.21,3-18.93l11.23-1.8q-1.66,9.64-3.24,18.93c-.43,2.64-.88,5.38-1.33,8.21s-.92,5.64-1.37,8.42-.88,5.49-1.26,8.1-.75,5-1.08,7.1C609.78,311.53,608.92,311.59,607.65,311.71Z"/><path class="cls-3" d="M635.05,312.17l-3.89.65c.19-1.58.38-3.14.58-4.68.14-1.34.27-2.69.39-4s.23-2.5.33-3.46h-6.27L623.31,311c-1,.15-2.3.3-3.74.47l-4,.47-4.54.57q2.88-9.57,5.69-18.86,1.15-3.89,2.41-8.14t2.52-8.46c.84-2.8,1.65-5.5,2.41-8.1s1.44-5,2-7.12c3.26-.24,6.59-.53,10-.87s6.68-.79,9.9-1.37q-.21,2.31-.47,5.73c-.16,2.28-.32,4.76-.46,7.45s-.29,5.5-.44,8.42-.28,5.81-.43,8.64q-.36,9.94-.79,21.1c-1.44.24-2.88.43-4.32.58Zm-7.13-18.72,1.05,0,1.58-.07,1.55-.08a6.94,6.94,0,0,0,1-.1c0-.29,0-.78.1-1.48s.15-1.49.22-2.38.15-1.86.25-2.91.19-2.09.29-3.1q.28-3.68.72-7.92l.43-6.26-1.08.07-1.65,6.19Z"/><path class="cls-3" d="M670.58,304.36a27.79,27.79,0,0,1-4.46,4.9,16.84,16.84,0,0,1-4.72,2.91,12.41,12.41,0,0,1-4.61.94,8.29,8.29,0,0,1-4.06-1,9.27,9.27,0,0,1-3.21-3,17,17,0,0,1-2.19-5,25.4,25.4,0,0,1-.83-6.91,48.59,48.59,0,0,1,1.87-13.36A44.07,44.07,0,0,1,653.62,272a29.49,29.49,0,0,1,8-8.46,17.67,17.67,0,0,1,10.26-3.21,7.94,7.94,0,0,1,3.32.72,8.23,8.23,0,0,1,2.73,2,9.73,9.73,0,0,1,1.84,3.17,12.24,12.24,0,0,1,.68,4.17v.9a6.65,6.65,0,0,1-.07,1L671,274.81c-.58-1.2-1.25-1.8-2-1.8a3.47,3.47,0,0,0-2.41,1.33,18.32,18.32,0,0,0-2.48,3.45,47.94,47.94,0,0,0-2.38,4.76q-1.16,2.63-2,5.29c-.57,1.77-1,3.47-1.4,5.07a18.85,18.85,0,0,0-.54,3.93,6.26,6.26,0,0,0,.61,3.24A1.87,1.87,0,0,0,660,301a3.53,3.53,0,0,0,1.8-.61,8.1,8.1,0,0,0,1.87-1.58,13.62,13.62,0,0,0,1.59-2.2,9,9,0,0,0,1-2.45l8.2,3.32A35.82,35.82,0,0,1,670.58,304.36Z"/><path class="cls-3" d="M671.05,321q.57-2.88,1.22-5.87t1.23-5.76c.38-1.85.73-3.56,1-5.15s.54-3,.68-4.17l1.84,0c.84,0,1.48,0,1.91,0h2.63c1.08,0,2.16,0,3.24-.07l3.42-.15c-.39,1.78-.9,3.88-1.55,6.3s-1.33,4.84-2.05,7.24-1.49,4.92-2.31,7.56Z"/><path class="cls-3" d="M149.78,398.29l3.31-14.48c0-2.06,0-4.3-.11-6.73s-.18-4.86-.32-7.31-.29-4.81-.43-7.09-.27-4.29-.36-6.05-.24-3.68-.43-5.79l11.73-4.47v12.46c0,1.25,0,2.47,0,3.67s0,2.33,0,3.39v2.66q.93-2.44,2.27-6.05c.89-2.4,1.71-4.72,2.48-7,.91-2.64,1.85-5.43,2.81-8.35l11.16,2.52q-3.09,6.19-6,12.31c-.81,1.77-1.68,3.61-2.59,5.51s-1.82,3.79-2.74,5.68-1.8,3.74-2.66,5.51-1.66,3.43-2.38,5c-.24,1.25-.54,2.62-.9,4.1s-.7,2.91-1,4.25q-.65,2.39-1.37,4.75Z"/><path class="cls-3" d="M210.94,371.54a48.31,48.31,0,0,1-3.34,9.57,39.79,39.79,0,0,1-4.86,7.78,38.08,38.08,0,0,1-5.8,5.83,25,25,0,0,1-6.12,3.67,15.63,15.63,0,0,1-5.9,1.26,10.12,10.12,0,0,1-4.32-.9,9.41,9.41,0,0,1-3.39-2.66,13,13,0,0,1-2.27-4.54,23.48,23.48,0,0,1-.82-6.66,38.66,38.66,0,0,1,1-8.49,61.9,61.9,0,0,1,2.74-8.86,48.57,48.57,0,0,1,4.25-8.35,42.36,42.36,0,0,1,5.54-7,26.18,26.18,0,0,1,6.48-4.86,15.4,15.4,0,0,1,7.2-1.8,9.94,9.94,0,0,1,5.37,1.33A9.54,9.54,0,0,1,210,350.3a15.8,15.8,0,0,1,1.69,4.79,28.18,28.18,0,0,1,.5,5.32A47.32,47.32,0,0,1,210.94,371.54Zm-25.81,13.14a5.16,5.16,0,0,0,.79,1.51,5.06,5.06,0,0,0,1.26,1.12,3.06,3.06,0,0,0,1.62.46,8.43,8.43,0,0,0,5.76-2.23,18.53,18.53,0,0,0,4.18-5.47,31.88,31.88,0,0,0,2.56-6.91,28.36,28.36,0,0,0,.9-6.7,18.25,18.25,0,0,0-.11-1.87,7.75,7.75,0,0,0-.43-1.87,3.8,3.8,0,0,0-1-1.48,2.65,2.65,0,0,0-1.84-.61,8.19,8.19,0,0,0-4.25,1.15,13.22,13.22,0,0,0-3.49,3.06,21.65,21.65,0,0,0-2.7,4.32,41.84,41.84,0,0,0-2,4.9,29.14,29.14,0,0,0-1.19,4.86,27.88,27.88,0,0,0-.36,4.1A5.33,5.33,0,0,0,185.13,384.68Z"/><path class="cls-3" d="M234.49,392.31a18.18,18.18,0,0,1-4.32,4.75,17.23,17.23,0,0,1-5.29,2.74,19.28,19.28,0,0,1-5.62.86,11.29,11.29,0,0,1-3.38-.54,9.46,9.46,0,0,1-3.1-1.62,8.82,8.82,0,0,1-2.27-2.73,8,8,0,0,1-.9-3.89v-.58a2.78,2.78,0,0,1,.07-.57c.19-2,.51-4.35.94-7.13s.89-5.69,1.37-8.71,1-6.06,1.58-9.11,1.09-5.82,1.55-8.32.85-4.57,1.19-6.23.55-2.67.65-3.06l3.6-.36c1.39-.14,2.68-.26,3.88-.36l4.4-.43q-1.87,8.72-3.32,15.77c-.43,2-.85,4-1.26,6s-.79,3.86-1.15,5.54-.67,3.13-.93,4.36-.48,2.22-.65,3-.36,1.74-.58,2.91a18.51,18.51,0,0,0-.32,3.21,3.06,3.06,0,0,0,.57,1.9,1.75,1.75,0,0,0,1.44.76,2.49,2.49,0,0,0,2-1A8.78,8.78,0,0,0,226,387.2a14,14,0,0,0,.79-2.77c.17-.94.33-1.67.47-2.2.29-1.39.61-2.94,1-4.64s.72-3.48,1.08-5.33.72-3.73,1.08-5.65.71-3.79,1.05-5.62c.81-4.22,1.61-8.59,2.37-13.1l10.95-.72q-.72,3.74-1.3,6.84t-1.26,7.05q-.67,4-1.55,8.25c-.57,2.85-1.14,5.66-1.69,8.42s-1.09,5.29-1.62,7.6A23.32,23.32,0,0,1,234.49,392.31Z"/><path class="cls-3" d="M237.83,399.44q1.95-9.58,3.75-18.72.64-3.89,1.44-8.1t1.47-8.35q.69-4.14,1.3-8t1-7a50.76,50.76,0,0,1,8.86-1.9,73.43,73.43,0,0,1,9.43-.62,14.26,14.26,0,0,1,4.65.65,6.77,6.77,0,0,1,2.88,1.84,6.92,6.92,0,0,1,1.47,2.77,13.34,13.34,0,0,1,.43,3.53,16.24,16.24,0,0,1-1,5.65,23.59,23.59,0,0,1-2.7,5.26,27,27,0,0,1-3.88,4.53,20.87,20.87,0,0,1-4.72,3.35q1.31,2.88,2.77,6.3t2.77,6.52q1.44,3.6,3,7.2l-11.16,3.88q-1.44-4.6-2.6-8.64c-.33-1.1-.67-2.24-1-3.42s-.65-2.29-.94-3.34-.53-2-.72-2.85a16.91,16.91,0,0,1-.36-2l-.94.29c-.28,1.54-.63,3.33-1,5.4s-.78,4-1.12,6q-.64,3.39-1.29,6.84Zm16.92-31.25A10.15,10.15,0,0,0,258.1,367a23.66,23.66,0,0,0,3.78-2.41,21.31,21.31,0,0,0,3.1-2.92,4.41,4.41,0,0,0,1.29-2.66,1.61,1.61,0,0,0-.5-1.26,3.3,3.3,0,0,0-1.4-.72,9.74,9.74,0,0,0-2-.33c-.72,0-1.47-.07-2.23-.07-.53,0-1.07,0-1.62,0l-1.48,0Z"/><path class="cls-3" d="M290,399.44q1.67-7.92,3.17-15.63.65-3.24,1.3-6.76t1.26-6.95q.6-3.42,1.08-6.63c.31-2.13.58-4.09.82-5.86a18.6,18.6,0,0,0-3.34-.15A9.81,9.81,0,0,1,291,357c0-.77.07-1.66.07-2.66s0-2,.07-3,.1-2.28.15-3.53c1.24.1,2.49.17,3.74.22s2.5.07,3.74.07q3.67,0,7.1-.18t6.33-.43c1.95-.17,3.85-.37,5.73-.61l-.8,3.89c-.24,1.1-.46,2.23-.68,3.38s-.42,2.14-.61,3a20.87,20.87,0,0,1-3.21.61c-1.08.12-2.14.28-3.2.47-.34,1.63-.7,3.45-1.08,5.44s-.76,4.05-1.12,6.19-.7,4.31-1,6.52-.67,4.32-1,6.33Q304,389.79,303,397.42Z"/><path class="cls-3" d="M319.3,398.11c-1.27.12-2.58.26-3.92.43s-2.56.32-3.64.47a15.4,15.4,0,0,0-1.76.28q.72-3.09,1.47-6.87c.51-2.52,1-5.16,1.55-7.92s1-5.56,1.51-8.39.94-5.57,1.37-8.21q1.51-9.21,3-18.93l11.23-1.8q-1.67,9.65-3.24,18.93-.66,4-1.33,8.21t-1.37,8.42q-.69,4.18-1.26,8.1c-.39,2.62-.75,5-1.08,7.1C321.42,397.93,320.57,398,319.3,398.11Z"/><path class="cls-3" d="M322,398.93q3.17-9.57,6.05-18.79c.82-2.59,1.65-5.3,2.52-8.13s1.73-5.64,2.59-8.43,1.67-5.47,2.41-8.06,1.41-5,2-7.2a63.36,63.36,0,0,0,7.49-.43c2.35-.29,4.9-.56,7.63-.8-.14,1.06-.3,2.25-.47,3.57s-.36,2.7-.57,4.14-.45,2.93-.68,4.46-.53,3.51-.87,5.91-.79,5.4-1.37,9h.94l3.46-9.11q1.36-3.65,2.23-5.94t1.76-4.5c.6-1.47,1.18-2.86,1.73-4.18s1.07-2.48,1.55-3.49c1.2-.1,2.32-.22,3.38-.36s2.11-.3,3.17-.47l3.2-.5c1.08-.17,2.27-.37,3.57-.61-.48,2.78-.94,5.64-1.37,8.56s-.82,5.85-1.15,8.75-.66,5.77-1,8.61-.58,5.52-.82,8.06q-.87,8.92-1.51,17.42l-12.53,2.24c0-.24,0-.89.11-1.95s.16-2.35.28-3.89.29-3.24.51-5.11l.64-5.61q.33-2.82.69-5.44t.72-4.5h-.65c-.67,2-1.42,4.14-2.23,6.37s-1.65,4.5-2.49,6.81-1.66,4.56-2.48,6.76-1.54,4.32-2.16,6.34q-2.52.07-4.32.18l-4.17.25,2.3-26.71H341c-.1.62-.34,1.67-.72,3.13l-1.33,5q-.76,2.85-1.62,5.91l-1.62,5.68q-.77,2.64-1.26,4.32c-.34,1.13-.53,1.77-.58,1.91Z"/><path class="cls-3" d="M369.3,399.44l9.44-51.19,22.75-1.95q-.51,1.59-.87,3.24c-.24.91-.46,1.86-.68,2.85s-.4,1.86-.54,2.62c-.48.05-1.16.09-2,.11l-2.85.07c-1,0-2,0-3.06,0h-2.7l-2.52,12.89c1.49-.1,2.88-.17,4.18-.22,1.06,0,2.14-.07,3.24-.07s1.92,0,2.45-.07q-.29,2-.54,4c-.17,1.29-.37,2.61-.61,4-.48.05-1.26.08-2.34.11s-2.18.06-3.28.1l-4.1.15-2.45,13.25,10.51-1.66-.72,8.21Z"/><path class="cls-3" d="M417,398.11c-1.27.12-2.58.26-3.92.43s-2.56.32-3.64.47a15.4,15.4,0,0,0-1.76.28q.72-3.09,1.47-6.87c.51-2.52,1-5.16,1.55-7.92s1-5.56,1.51-8.39.94-5.57,1.37-8.21q1.51-9.21,3-18.93l11.23-1.8q-1.66,9.65-3.24,18.93c-.43,2.64-.88,5.38-1.33,8.21s-.92,5.64-1.37,8.42-.88,5.49-1.26,8.1-.75,5-1.08,7.1C419.13,397.93,418.27,398,417,398.11Z"/><path class="cls-3" d="M452.21,388.89a17.62,17.62,0,0,1-4.18,5.65,18.36,18.36,0,0,1-6.19,3.67,22.1,22.1,0,0,1-7.67,1.3,12.1,12.1,0,0,1-5.76-1.55,18.21,18.21,0,0,1-5.54-4.93l5.33-10.44a8,8,0,0,0,1.51,1.91,11.27,11.27,0,0,0,2.27,1.69,16.86,16.86,0,0,0,2.52,1.19,6.62,6.62,0,0,0,2.27.47,6.25,6.25,0,0,0,1.8-.29,5.58,5.58,0,0,0,1.72-.87,4.54,4.54,0,0,0,1.26-1.33,3.2,3.2,0,0,0,.47-1.76,5.25,5.25,0,0,0-1.11-3.21,16,16,0,0,0-2.78-2.8q-1.65-1.33-3.6-2.7A36,36,0,0,1,431,372a16.37,16.37,0,0,1-2.77-3.39,7.79,7.79,0,0,1-1.15-4.17,12.07,12.07,0,0,1,2.23-7,22.08,22.08,0,0,1,5.58-5.58,29.76,29.76,0,0,1,7.31-3.71,23,23,0,0,1,7.48-1.36,14.16,14.16,0,0,1,3.68.46,7.87,7.87,0,0,1,3,1.52,7.55,7.55,0,0,1,2,2.62,9.26,9.26,0,0,1,.76,4,11.41,11.41,0,0,1-.18,2q-.18,1-.33,2.16l-10.44,3c.1-.38.18-.76.25-1.15a5.6,5.6,0,0,0,.11-1.15,5.16,5.16,0,0,0-.75-3.13,2.4,2.4,0,0,0-2-1,3.14,3.14,0,0,0-1.41.43,9.94,9.94,0,0,0-1.65,1.11,6.63,6.63,0,0,0-1.41,1.62,3.84,3.84,0,0,0-.57,2,4.31,4.31,0,0,0,1,2.88,12.44,12.44,0,0,0,2.41,2.16c1,.67,2,1.36,3.13,2.05a13.83,13.83,0,0,1,3.13,2.7,14.26,14.26,0,0,1,2.42,4.14,17.67,17.67,0,0,1,1,6.3A16.91,16.91,0,0,1,452.21,388.89Z"/><path class="cls-3" d="M497.21,388.89a17.62,17.62,0,0,1-4.18,5.65,18.36,18.36,0,0,1-6.19,3.67,22.14,22.14,0,0,1-7.67,1.3,12.1,12.1,0,0,1-5.76-1.55,18.1,18.1,0,0,1-5.54-4.93l5.33-10.44a8,8,0,0,0,1.51,1.91,11.27,11.27,0,0,0,2.27,1.69,16.86,16.86,0,0,0,2.52,1.19,6.62,6.62,0,0,0,2.27.47,6.25,6.25,0,0,0,1.8-.29,5.69,5.69,0,0,0,1.72-.87,4.54,4.54,0,0,0,1.26-1.33,3.2,3.2,0,0,0,.47-1.76,5.25,5.25,0,0,0-1.11-3.21,16,16,0,0,0-2.78-2.8q-1.65-1.33-3.6-2.7A36,36,0,0,1,476,372a16.06,16.06,0,0,1-2.77-3.39,7.8,7.8,0,0,1-1.16-4.17,12.08,12.08,0,0,1,2.24-7,21.76,21.76,0,0,1,5.58-5.58,29.87,29.87,0,0,1,7.3-3.71,23,23,0,0,1,7.49-1.36,14.16,14.16,0,0,1,3.68.46,7.87,7.87,0,0,1,3,1.52,7.55,7.55,0,0,1,2,2.62,9.26,9.26,0,0,1,.75,4,12.42,12.42,0,0,1-.17,2q-.18,1-.33,2.16l-10.44,3c.1-.38.18-.76.25-1.15a6.4,6.4,0,0,0,.11-1.15,5.09,5.09,0,0,0-.76-3.13,2.37,2.37,0,0,0-2-1,3.14,3.14,0,0,0-1.41.43,10.44,10.44,0,0,0-1.66,1.11,6.6,6.6,0,0,0-1.4,1.62,3.84,3.84,0,0,0-.57,2,4.31,4.31,0,0,0,1,2.88,12.44,12.44,0,0,0,2.41,2.16c1,.67,2,1.36,3.13,2.05a13.83,13.83,0,0,1,3.13,2.7,14.26,14.26,0,0,1,2.42,4.14,17.67,17.67,0,0,1,1,6.3A16.91,16.91,0,0,1,497.21,388.89Z"/><path class="cls-3" d="M504.3,399.44q1.65-7.92,3.17-15.63.64-3.24,1.29-6.76T510,370.1q.62-3.42,1.08-6.63c.32-2.13.59-4.09.83-5.86a18.67,18.67,0,0,0-3.35-.15,9.78,9.78,0,0,1-3.34-.43c0-.77.07-1.66.07-2.66s0-2,.07-3,.1-2.28.14-3.53c1.25.1,2.5.17,3.75.22s2.49.07,3.74.07q3.68,0,7.09-.18c2.28-.12,4.4-.26,6.34-.43s3.85-.37,5.72-.61l-.79,3.89c-.24,1.1-.47,2.23-.68,3.38s-.42,2.14-.61,3a20.87,20.87,0,0,1-3.21.61c-1.08.12-2.15.28-3.2.47-.34,1.63-.7,3.45-1.08,5.44s-.76,4.05-1.12,6.19-.71,4.31-1,6.52-.67,4.32-1,6.33q-1.15,7.13-2.16,14.76Z"/><path class="cls-3" d="M533.57,398.11c-1.27.12-2.58.26-3.93.43s-2.55.32-3.63.47a16.37,16.37,0,0,0-1.77.28c.48-2.06,1-4.35,1.48-6.87s1-5.16,1.55-7.92,1-5.56,1.51-8.39.94-5.57,1.37-8.21q1.51-9.21,3-18.93l11.23-1.8-3.24,18.93q-.64,4-1.33,8.21t-1.37,8.42q-.68,4.18-1.26,8.1c-.38,2.62-.74,5-1.08,7.1Q535.48,397.93,533.57,398.11Z"/><path class="cls-3" d="M553.58,397.21c-1.65.09-3.32.24-5,.43s-3.32.44-4.93.75a36.73,36.73,0,0,0-4.36,1.12q.44-3.24,1-7.2c.38-2.64.83-5.38,1.33-8.21s1-5.69,1.51-8.57,1-5.64,1.55-8.28q1.8-9.42,3.82-19.22l12.6-1.66q-2,8.36-3.75,16.28-.78,3.38-1.58,7t-1.51,7.09q-.72,3.45-1.3,6.69t-.93,5.76c1.2-.09,2.48-.15,3.85-.18l3.63,0c.05.91.12,1.81.22,2.7s.2,1.69.32,2.41.22,1.36.29,1.91a10.5,10.5,0,0,0,.18,1.11q-.57,0-1.11,0c-.36,0-.74,0-1.12,0C556.81,397.06,555.24,397.11,553.58,397.21Z"/><path class="cls-3" d="M575.33,397.21c-1.66.09-3.33.24-5,.43s-3.32.44-4.93.75a36.05,36.05,0,0,0-4.35,1.12c.28-2.16.62-4.56,1-7.2s.83-5.38,1.34-8.21,1-5.69,1.51-8.57,1-5.64,1.55-8.28q1.78-9.42,3.81-19.22l12.6-1.66q-1.94,8.36-3.74,16.28-.79,3.38-1.59,7T576,376.76q-.72,3.45-1.29,6.69t-.94,5.76c1.2-.09,2.48-.15,3.85-.18l3.64,0q.08,1.37.21,2.7c.1.89.21,1.69.33,2.41s.21,1.36.29,1.91a10.5,10.5,0,0,0,.18,1.11c-.39,0-.76,0-1.12,0s-.73,0-1.12,0C578.56,397.06,577,397.11,575.33,397.21Z"/><path class="cls-3" d="M602.43,399.44q1.67-7.92,3.17-15.63c.43-2.16.87-4.41,1.3-6.76s.85-4.67,1.26-6.95.77-4.49,1.08-6.63.59-4.09.83-5.86a18.71,18.71,0,0,0-3.35-.15,9.81,9.81,0,0,1-3.35-.43c0-.77.07-1.66.07-2.66s0-2,.07-3,.1-2.28.15-3.53c1.25.1,2.49.17,3.74.22s2.5.07,3.75.07c2.44,0,4.81-.06,7.09-.18s4.39-.26,6.33-.43,3.86-.37,5.73-.61l-.79,3.89c-.24,1.1-.47,2.23-.69,3.38s-.42,2.14-.61,3a20.75,20.75,0,0,1-3.2.61c-1.08.12-2.15.28-3.21.47-.33,1.63-.69,3.45-1.08,5.44s-.75,4.05-1.11,6.19-.71,4.31-1.05,6.52-.67,4.32-1,6.33q-1.14,7.13-2.16,14.76Z"/><path class="cls-3" d="M631.7,398.11c-1.27.12-2.58.26-3.92.43s-2.56.32-3.64.47a15.4,15.4,0,0,0-1.76.28q.72-3.09,1.47-6.87c.51-2.52,1-5.16,1.55-7.92s1-5.56,1.51-8.39.94-5.57,1.37-8.21q1.51-9.21,3-18.93l11.23-1.8q-1.66,9.65-3.24,18.93c-.43,2.64-.88,5.38-1.33,8.21s-.92,5.64-1.37,8.42-.88,5.49-1.26,8.1-.75,5-1.08,7.1C633.83,397.93,633,398,631.7,398.11Z"/><path class="cls-3" d="M663.45,390.76a27.41,27.41,0,0,1-4.46,4.9,16.84,16.84,0,0,1-4.72,2.91,12.41,12.41,0,0,1-4.61.94,8.32,8.32,0,0,1-4.06-1,9.27,9.27,0,0,1-3.21-3,17,17,0,0,1-2.19-5,25.8,25.8,0,0,1-.83-6.91,48.59,48.59,0,0,1,1.87-13.36,43.78,43.78,0,0,1,5.26-11.84,29.22,29.22,0,0,1,8-8.46,17.62,17.62,0,0,1,10.26-3.21,7.93,7.93,0,0,1,3.31.72,8.13,8.13,0,0,1,2.73,2,9.73,9.73,0,0,1,1.84,3.17,12.24,12.24,0,0,1,.68,4.17v.9a6.65,6.65,0,0,1-.07,1l-9.43,2.52c-.58-1.2-1.25-1.8-2-1.8a3.49,3.49,0,0,0-2.41,1.33,18.32,18.32,0,0,0-2.48,3.45,47.94,47.94,0,0,0-2.38,4.76,54.05,54.05,0,0,0-2,5.29c-.58,1.77-1,3.47-1.41,5.07a18.85,18.85,0,0,0-.54,3.93,6.24,6.24,0,0,0,.61,3.24,1.87,1.87,0,0,0,1.62.93,3.53,3.53,0,0,0,1.8-.61,8.36,8.36,0,0,0,1.88-1.58,14.22,14.22,0,0,0,1.58-2.2,8.65,8.65,0,0,0,1-2.45l8.21,3.32A36.37,36.37,0,0,1,663.45,390.76Z"/><path class="cls-3" d="M666.87,399.44q2.16-10.08,4-19.59.72-4.1,1.52-8.49c.52-2.93,1-5.83,1.47-8.71s.87-5.68,1.23-8.39.63-5.17.82-7.38c1.11.09,2.36.18,3.75.25s2.69.16,3.89.25q2.16.15,4.32.15c0,.19-.12.55-.22,1.08l-.36,1.9-.47,2.49q-.26,1.37-.54,2.73c-.38,2.12-.82,4.49-1.29,7.13l.43-.07c.48-.77,1.16-1.84,2-3.2s1.81-2.82,2.77-4.36,1.9-3,2.81-4.43,1.68-2.63,2.3-3.63c2.4-.2,4.8-.41,7.2-.65s4.8-.55,7.2-.94q-3.37,4.55-6.55,8.93c-.91,1.25-1.83,2.54-2.77,3.89l-2.77,4c-.91,1.29-1.77,2.54-2.56,3.74s-1.5,2.31-2.12,3.31q1.57,7.27,3.74,14t4.39,13.83c-1.1,0-2.23-.08-3.38-.11s-2.28,0-3.38,0c-1.4,0-2.74,0-4,0s-2.64.06-4,.11q-.64-4.68-1.4-9.83c-.51-3.43-1-6.71-1.41-9.83l-1.29,1.51q-.51,2.16-1.12,5.33c-.41,2.11-.8,4.15-1.19,6.12-.43,2.31-.88,4.68-1.36,7.13Z"/><path class="cls-3" d="M709.32,398.11c-1.28.12-2.58.26-3.93.43s-2.55.32-3.63.47a16.37,16.37,0,0,0-1.77.28q.72-3.09,1.48-6.87T703,384.5c.52-2.76,1-5.56,1.51-8.39s.93-5.57,1.37-8.21q1.5-9.21,3-18.93l11.23-1.8-3.24,18.93q-.64,4-1.33,8.21c-.46,2.83-.91,5.64-1.37,8.42s-.87,5.49-1.26,8.1-.74,5-1.08,7.1Q711.23,397.93,709.32,398.11Z"/><path class="cls-3" d="M714.54,399.73q2.16-10.38,4.1-20.09.72-4.18,1.55-8.64t1.55-8.82c.47-2.91.91-5.69,1.29-8.35s.67-5.08.87-7.24c.62.05,1.15.07,1.58.07H727l2.45,0c1,0,1.92-.06,2.88-.11l3.1-.15q1,5,1.8,9.72.78,4.11,1.62,8.43t1.47,7.34c.19-1,.41-2.07.65-3.35s.5-2.6.79-4,.57-2.8.83-4.21.54-2.82.83-4.22q1-4.68,2.09-9.64l8.78-1.08q-2.44,11-4.32,20.88-.87,4.25-1.69,8.6c-.55,2.9-1.07,5.69-1.55,8.35s-.89,5.14-1.22,7.42-.6,4.19-.8,5.72a15.44,15.44,0,0,0-1.69.33l-3.38.75-3.82.87a20.82,20.82,0,0,0-2.84.79q-.44-5.76-.94-10.95c-.14-1.48-.3-3-.47-4.57s-.35-3.06-.54-4.5-.38-2.78-.57-4-.39-2.33-.58-3.24c-.14.91-.33,2-.57,3.17s-.48,2.47-.72,3.81-.48,2.75-.72,4.22-.51,2.86-.8,4.21c-.62,3.21-1.29,6.58-2,10.08Z"/><path class="cls-3" d="M783,384.71a33.15,33.15,0,0,1-5.73,9.11,22.88,22.88,0,0,1-7.2,5.47,17.29,17.29,0,0,1-7.31,1.8,11.6,11.6,0,0,1-5.07-1.15,11.37,11.37,0,0,1-4.18-3.49,17.88,17.88,0,0,1-2.77-5.87,30.36,30.36,0,0,1-1-8.28,44.86,44.86,0,0,1,2.67-16.2,37.57,37.57,0,0,1,6.73-11.52,27.78,27.78,0,0,1,8.71-6.84,20.13,20.13,0,0,1,8.68-2.23,11.59,11.59,0,0,1,5,1,9.72,9.72,0,0,1,3.49,2.7,10.7,10.7,0,0,1,2,4,18.22,18.22,0,0,1,.62,4.79l-9.87,1.87a9.47,9.47,0,0,0-1.73-4.11,3.21,3.21,0,0,0-2.44-1.22q-1.82,0-4,2.56a29.07,29.07,0,0,0-4,6.58,55.09,55.09,0,0,0-3.17,8.86A41.92,41.92,0,0,0,761,382c0,3,.45,5.1,1.34,6.38a4,4,0,0,0,3.42,1.9,7,7,0,0,0,3-.72,8.72,8.72,0,0,0,2.78-2.05,12.41,12.41,0,0,0,2-3.09,9.85,9.85,0,0,0,.9-3.86l-7.71,1.16,1.37-7.13,6.63-.87c1.82-.24,3.75-.52,5.79-.86s3.83-.65,5.37-.94A38.53,38.53,0,0,1,783,384.71Z"/><path class="cls-3" d="M797.3,396.34a7.17,7.17,0,0,1-1.77,2.41,8.23,8.23,0,0,1-2.88,1.66,11.77,11.77,0,0,1-4,.61,6.38,6.38,0,0,1-2.73-.57,5.31,5.31,0,0,1-2-1.55,7.65,7.65,0,0,1-1.19-2.2,7.23,7.23,0,0,1-.43-2.45,8,8,0,0,1,.43-2.62,6.29,6.29,0,0,1,1.33-2.24,7.81,7.81,0,0,1,2.23-1.62,7.32,7.32,0,0,1,3.21-.64q4.17,0,6.26,2a6.07,6.07,0,0,1,2.09,4.5A6.59,6.59,0,0,1,797.3,396.34ZM793,382.45l-4.17.28q2.24-8.85,4.35-17.64t4.43-17.64c.91-.14,2-.28,3.13-.43s2.37-.31,3.57-.5,2.36-.36,3.49-.51,2.08-.28,2.84-.43q-3.89,9.07-7.09,18.25t-6.37,18.47C795.8,382.3,794.41,382.35,793,382.45Z"/><path class="cls-3" d="M816.23,396.34a7,7,0,0,1-1.76,2.41,8.42,8.42,0,0,1-2.88,1.66,11.77,11.77,0,0,1-4,.61,6.43,6.43,0,0,1-2.74-.57,5.48,5.48,0,0,1-2-1.55,7.63,7.63,0,0,1-1.18-2.2,7.24,7.24,0,0,1-.44-2.45,8,8,0,0,1,.44-2.62,6.15,6.15,0,0,1,1.33-2.24,7.68,7.68,0,0,1,2.23-1.62,7.28,7.28,0,0,1,3.2-.64q4.18,0,6.27,2a6.07,6.07,0,0,1,2.09,4.5A6.61,6.61,0,0,1,816.23,396.34ZM812,382.45l-4.18.28q2.24-8.85,4.36-17.64t4.43-17.64c.91-.14,2-.28,3.13-.43s2.36-.31,3.56-.5,2.37-.36,3.5-.51,2.07-.28,2.84-.43q-3.89,9.07-7.09,18.25t-6.37,18.47C814.73,382.3,813.34,382.35,812,382.45Z"/></svg>