<svg id="Layer_1" data-name="Layer 1" xmlns="http://www.w3.org/2000/svg" viewBox="0 0 950 300"><defs><style>.cls-1{fill:#febfff;stroke:#c291c2;stroke-miterlimit:10;stroke-width:1.55px;}.cls-2{fill:#005ed0;}</style></defs><g id="sound"><g id="game_over_logo"><g id="logo"><g id="logo-2" data-name="logo"><g id="brainNEW"><ellipse class="cls-1" cx="516.06" cy="145.66" rx="253.78" ry="49.87" transform="translate(-1.54 5.56) rotate(-0.62)"/><path class="cls-1" d="M122.77,139.63c-6.37.9-69.61,10.21-79.9,29.14-10.08,18.52,35.7,36.86,81.6,39,25.94,1.22,41.37-3.21,63.83-.11,27.69,3.82,16.95,12.32,39.37,17.07,38.62,8.19,99.41-10.86,193.67-6.68,46.87,2.07,38.71,7.09,82.22,8.09,76.88,1.76,114.75-13.62,168.06-7.77,29.34,3.22,33.46,9.6,59.3,9.09a171.42,171.42,0,0,0,58.32-11.7s11.83-4.74,16.91-10.35c16.22-17.91-45.68-37.13-50.93-38.72"/><path class="cls-1" d="M793.79,218.61c6.56.86,39.73,5,74.22-.2,29.76-4.46,56.2-15.17,49.61-22.83s-42.48-8.14-42.65-14.26c-.12-4.46,18.93-5,29.44-11.48C918.82,161,902.54,150,886.25,139c-13.85-9.35-24.22-16.35-45.19-17.93-20-1.51-33.78,3.13-44,.56-11.29-2.82,2.52-9.16-3.47-18.45C787,93,760.4,84.85,734.22,81.73c-16.48-2-15.42.15-60.36-.71-49.67-1-67.23-3.84-92.8-.29A146.81,146.81,0,0,0,553.61,87"/><path class="cls-1" d="M608.69,110.23c-3.17-3.39-19.6-19.59-73.16-26.48-62.67-8.07-152.1-.3-205.54,20.9"/><path class="cls-1" d="M316.66,95.68C256.29,88.74,187.38,94.53,154,108.29c-26.42,10.9-27.31,25.45-2.78,37.3"/><path class="cls-1" d="M133.71,154.52c-29.54-27.91,3.88-58.19,68-69.6,74.11-13.19,177.06,1,210,33.84"/><path class="cls-1" d="M631.83,112.75c7-.5,67.51-4.53,115.3,6.26,41.16,9.3,55.86,25.75,35.76,41"/><path class="cls-1" d="M355.27,182.36c8.93-2.43,58-15.32,131.85-15,93.88.36,143.18,21.71,147,23.44"/><path class="cls-1" d="M73.55,184.18c2.26-.87,20.57-7.87,49.19-15.1,23.68-6,45-9.74,54.14-9.55"/><path class="cls-1" d="M292.51,206c-23.29,4.47-53.15,5.59-70.65,3.34-9.79-1.25-13.78-3.32-15.48-4.68"/><path class="cls-1" d="M477.3,214.55a241.45,241.45,0,0,1,38-4.7,295.76,295.76,0,0,1,48.61,1.49"/><path class="cls-1" d="M729.24,166c1.46.46,17.57,5.77,14.84,13.22-2.55,6.94-20.35,12.81-43,13.32"/><path class="cls-1" d="M755.52,192.57c8.72,2.58,23.88,7.81,30.36,15.58,4,4.86,3.36,9.08,1.94,12"/><path class="cls-1" d="M262.7,155.29C220,154.51,188.22,144,186,132.64c-3.27-16.51,58.13-25.55,62.54-26.18,52.4-7.42,100.62,3.87,106.43,5.28"/></g></g></g></g><path class="cls-2" d="M359.5,171.79a27.33,27.33,0,0,1-6.44,8.71,28.66,28.66,0,0,1-9.54,5.66,34.33,34.33,0,0,1-11.81,2,18.61,18.61,0,0,1-8.88-2.38,28.23,28.23,0,0,1-8.54-7.6l8.21-16.09a12.27,12.27,0,0,0,2.33,2.94,17.53,17.53,0,0,0,3.5,2.61,25.66,25.66,0,0,0,3.88,1.83,10.16,10.16,0,0,0,3.49.72,9.68,9.68,0,0,0,2.78-.44,9.22,9.22,0,0,0,2.66-1.33,7.27,7.27,0,0,0,1.94-2.06,5,5,0,0,0,.72-2.71,8,8,0,0,0-1.72-4.94,24.87,24.87,0,0,0-4.27-4.33c-1.7-1.37-3.55-2.75-5.55-4.16a51.08,51.08,0,0,1-5.49-4.44,25.08,25.08,0,0,1-4.27-5.21,12.05,12.05,0,0,1-1.77-6.43,18.52,18.52,0,0,1,3.44-10.76,33.76,33.76,0,0,1,8.59-8.6A45.57,45.57,0,0,1,344,109.05a35.54,35.54,0,0,1,11.54-2.1,21.62,21.62,0,0,1,5.66.72,12.06,12.06,0,0,1,4.6,2.33,11.67,11.67,0,0,1,3.11,4,14.06,14.06,0,0,1,1.16,6.1,18,18,0,0,1-.27,3.1c-.19,1-.36,2.15-.5,3.33l-16.09,4.66q.22-.88.39-1.77a9.84,9.84,0,0,0,.17-1.78c0-2.22-.39-3.83-1.17-4.82a3.68,3.68,0,0,0-3.05-1.5,4.92,4.92,0,0,0-2.16.66,15.24,15.24,0,0,0-2.55,1.72,10,10,0,0,0-2.17,2.5,5.85,5.85,0,0,0-.89,3.11,6.62,6.62,0,0,0,1.5,4.43,19,19,0,0,0,3.72,3.33q2.22,1.56,4.82,3.16a21.29,21.29,0,0,1,4.83,4.16,21.81,21.81,0,0,1,3.72,6.38,26.89,26.89,0,0,1,1.49,9.71A26,26,0,0,1,359.5,171.79Z"/><path class="cls-2" d="M420.63,145.05a75.15,75.15,0,0,1-5.16,14.76,60.53,60.53,0,0,1-7.49,12,59.36,59.36,0,0,1-8.93,9,38.57,38.57,0,0,1-9.43,5.65,24,24,0,0,1-9.1,1.94,15.67,15.67,0,0,1-6.65-1.38,14.6,14.6,0,0,1-5.22-4.11,19.91,19.91,0,0,1-3.49-7,36.08,36.08,0,0,1-1.28-10.26,59.83,59.83,0,0,1,1.55-13.09,93.52,93.52,0,0,1,4.22-13.64A74.89,74.89,0,0,1,376.2,126a64.39,64.39,0,0,1,8.54-10.82,40.09,40.09,0,0,1,10-7.49,23.71,23.71,0,0,1,11.1-2.77,15.28,15.28,0,0,1,8.26,2,14.7,14.7,0,0,1,5.1,5.33,24.3,24.3,0,0,1,2.61,7.37,44,44,0,0,1,.78,8.21A73.05,73.05,0,0,1,420.63,145.05ZM380.85,165.3a8.05,8.05,0,0,0,1.22,2.33,7.4,7.4,0,0,0,1.95,1.72,4.65,4.65,0,0,0,2.49.72,13,13,0,0,0,8.88-3.44,28.24,28.24,0,0,0,6.43-8.43,48.77,48.77,0,0,0,3.94-10.65,43.9,43.9,0,0,0,1.39-10.32,27.3,27.3,0,0,0-.17-2.88,11.42,11.42,0,0,0-.67-2.89,5.72,5.72,0,0,0-1.55-2.27,4.06,4.06,0,0,0-2.83-.94,12.61,12.61,0,0,0-6.54,1.77,20.08,20.08,0,0,0-5.38,4.72,33,33,0,0,0-4.16,6.65,64.09,64.09,0,0,0-3.05,7.55,44.06,44.06,0,0,0-1.84,7.48,43.09,43.09,0,0,0-.55,6.33A8.24,8.24,0,0,0,380.85,165.3Z"/><path class="cls-2" d="M456.9,177.06a27.48,27.48,0,0,1-6.65,7.32,26.25,26.25,0,0,1-8.16,4.22,29.51,29.51,0,0,1-8.65,1.33,17.53,17.53,0,0,1-5.21-.83,14.69,14.69,0,0,1-4.77-2.5,13.32,13.32,0,0,1-3.5-4.22,12.38,12.38,0,0,1-1.39-6v-.88a3.8,3.8,0,0,1,.11-.89q.45-4.55,1.45-11t2.11-13.43q1.1-7,2.44-14t2.38-12.81q1.05-5.78,1.83-9.6c.52-2.55.85-4.12,1-4.72,1.55-.14,3.4-.33,5.55-.55s4.14-.41,6-.56l6.76-.66q-2.88,13.43-5.1,24.29-1,4.67-1.94,9.32t-1.77,8.55l-1.45,6.71c-.4,1.88-.74,3.42-1,4.6s-.55,2.68-.88,4.49a27,27,0,0,0-.5,4.94,4.66,4.66,0,0,0,.89,2.94,2.68,2.68,0,0,0,2.21,1.17,3.83,3.83,0,0,0,3.11-1.5,13.46,13.46,0,0,0,2.05-3.61,22,22,0,0,0,1.22-4.27c.26-1.44.5-2.57.72-3.38l1.5-7.16c.56-2.62,1.11-5.36,1.67-8.21s1.11-5.75,1.66-8.71,1.09-5.84,1.61-8.65q1.89-9.77,3.66-20.19l16.86-1.11q-1.11,5.77-2,10.54c-.6,3.18-1.24,6.8-2,10.87s-1.49,8.3-2.38,12.7-1.76,8.73-2.61,13-1.68,8.16-2.49,11.71A35.88,35.88,0,0,1,456.9,177.06Z"/><path class="cls-2" d="M462.28,188.49q3.11-15.65,6-30.51,1.11-6.21,2.39-13T473,131.52q1.11-6.6,2.06-12.76t1.49-11.26l6.66-.44q2.88-.23,5.88-.39c2-.11,3.77-.24,5.33-.39q1.44,8.55,2.55,16.31c.37,2.22.75,4.53,1.16,6.93s.8,4.72,1.17,6.94.74,4.34,1.11,6.37.73,3.83,1.11,5.38q.44-2.33,1-5.38t1.22-6.43q.68-3.39,1.39-6.93l1.39-6.88q1.67-7.77,3.44-16.2l13.53-1.66q-3.76,16.63-6.65,31.5-1.33,6.44-2.61,13t-2.39,12.65q-1.11,6.1-1.88,11.26t-1.22,8.71a24.37,24.37,0,0,0-2.61.5L501,183.49q-3,.67-5.88,1.39c-2,.48-3.43.87-4.39,1.17q-.76-9-1.66-17.09-.33-3.44-.78-7.1t-.83-7q-.39-3.33-.78-6.27c-.26-2-.5-3.6-.72-4.93-.22,1.33-.52,3-.88,4.88s-.74,4-1.11,6.15-.74,4.44-1.11,6.77-.78,4.61-1.22,6.82q-1.45,7.89-3.11,16.42Z"/><path class="cls-2" d="M566.67,143.5A72.38,72.38,0,0,1,562,156.37a69.42,69.42,0,0,1-7.38,12.2,55,55,0,0,1-9.93,10.21,49.09,49.09,0,0,1-12.15,7,37.07,37.07,0,0,1-14,2.67,29.46,29.46,0,0,1-3.11-.17c-1-.11-2.07-.24-3.11-.39q3-15.3,5.88-29.84,1.11-6.1,2.33-12.7t2.33-13Q524,125.92,525,120t1.72-10.65c3.18-.6,6.39-1.15,9.65-1.67a64.32,64.32,0,0,1,10-.77,24.59,24.59,0,0,1,10.15,1.88,17.71,17.71,0,0,1,6.77,5.22,21.78,21.78,0,0,1,3.83,7.76,35.57,35.57,0,0,1,1.22,9.43A49.43,49.43,0,0,1,566.67,143.5Zm-27.06-8.38q-1.33,6-2.67,12.1c-.88,4.06-1.77,8.32-2.66,12.75s-1.74,9.29-2.55,14.54a24,24,0,0,0,5.16-4.83,47.86,47.86,0,0,0,4.71-7,82,82,0,0,0,4-8.43c1.22-3,2.28-5.85,3.16-8.66a75.14,75.14,0,0,0,2.06-7.87,33.47,33.47,0,0,0,.72-6.33,8.8,8.8,0,0,0-2.28-6.43c-1.51-1.55-3.9-2.33-7.15-2.33Q540.93,129.13,539.61,135.12Z"/><path class="cls-2" d="M607.56,171.79a27.48,27.48,0,0,1-6.44,8.71,28.66,28.66,0,0,1-9.54,5.66,34.33,34.33,0,0,1-11.81,2,18.61,18.61,0,0,1-8.88-2.38,28,28,0,0,1-8.54-7.6l8.21-16.09a12,12,0,0,0,2.33,2.94,17.46,17.46,0,0,0,3.49,2.61,26.12,26.12,0,0,0,3.88,1.83,10.21,10.21,0,0,0,3.5.72,9.56,9.56,0,0,0,2.77-.44,9.27,9.27,0,0,0,2.67-1.33,7.27,7.27,0,0,0,1.94-2.06,5,5,0,0,0,.72-2.71,8.06,8.06,0,0,0-1.72-4.94,24.87,24.87,0,0,0-4.27-4.33c-1.7-1.37-3.55-2.75-5.55-4.16a49.18,49.18,0,0,1-5.49-4.44,25.08,25.08,0,0,1-4.27-5.21,12,12,0,0,1-1.78-6.43,18.59,18.59,0,0,1,3.44-10.76,33.8,33.8,0,0,1,8.6-8.6,45.4,45.4,0,0,1,11.26-5.72,35.49,35.49,0,0,1,11.54-2.1,21.67,21.67,0,0,1,5.66.72,12.06,12.06,0,0,1,4.6,2.33,11.79,11.79,0,0,1,3.11,4,14.21,14.21,0,0,1,1.16,6.1,17.1,17.1,0,0,1-.28,3.1c-.18,1-.35,2.15-.5,3.33l-16.08,4.66q.23-.88.39-1.77a9.82,9.82,0,0,0,.16-1.78,7.92,7.92,0,0,0-1.16-4.82,3.69,3.69,0,0,0-3-1.5,4.92,4.92,0,0,0-2.17.66,15.24,15.24,0,0,0-2.55,1.72,10.17,10.17,0,0,0-2.16,2.5,5.85,5.85,0,0,0-.89,3.11,6.62,6.62,0,0,0,1.5,4.43,18.68,18.68,0,0,0,3.72,3.33q2.2,1.56,4.82,3.16a21.29,21.29,0,0,1,4.83,4.16,21.57,21.57,0,0,1,3.71,6.38,26.87,26.87,0,0,1,1.5,9.71A26,26,0,0,1,607.56,171.79Z"/><g id="soundoff"><path class="cls-2" d="M198.29,122.26a1,1,0,0,0-1.3.2l-11.94,13.06h-5.71c-1.35,0-2.46,1.51-2.46,3.36v13.43c0,1.85,1.11,3.35,2.46,3.35h5.71L197,168.72a1,1,0,0,0,.77.37,1,1,0,0,0,.53-.17,1.79,1.79,0,0,0,.7-1.51V123.77A1.8,1.8,0,0,0,198.29,122.26Z"/><path class="cls-2" d="M202.85,133.72a1,1,0,0,0-1.74,0,2.13,2.13,0,0,0,0,2.37,17,17,0,0,1,0,19,2.15,2.15,0,0,0,0,2.38,1.09,1.09,0,0,0,.87.49,1.12,1.12,0,0,0,.87-.48,21.37,21.37,0,0,0,0-23.74Z"/><path class="cls-2" d="M208.31,129a1,1,0,0,0-1.74,0,2.17,2.17,0,0,0,0,2.38,25.5,25.5,0,0,1,0,28.43,2.15,2.15,0,0,0,0,2.37,1.11,1.11,0,0,0,.87.5,1.07,1.07,0,0,0,.87-.49,29.76,29.76,0,0,0,0-33.2Z"/></g><g id="soundoff-2" data-name="soundoff"><path class="cls-2" d="M779.92,168.35l-43.65-43.64a1.67,1.67,0,0,0-2.37,0,1.68,1.68,0,0,0,0,2.37l10.56,10.56h-1a3.42,3.42,0,0,0-3.36,3.36v13.43a3.37,3.37,0,0,0,3.36,3.36h7.79l16.35,13.06a1.74,1.74,0,0,0,1,.37,2,2,0,0,0,.74-.17,1.69,1.69,0,0,0,.94-1.51v-6l7.2,7.2a1.68,1.68,0,0,0,1.19.5,1.72,1.72,0,0,0,1.19-.49A1.7,1.7,0,0,0,779.92,168.35Z"/><path class="cls-2" d="M772.49,127.73a1.71,1.71,0,0,0-1-1.53,1.64,1.64,0,0,0-1.8.2l-15,12,17.79,17.79Z"/></g></g></svg>